  0
SECTION
  2
HEADER
  9
$ACADVER
  1
AC1032
  9
$ACADMAINTVER
 90
       55
  9
$DWGCODEPAGE
  3
ANSI_1252
  9
$LASTSAVEDBY
  1
maria
  9
$REQUIREDVERSIONS
160
                 0
  9
$INSBASE
 10
0.0
 20
0.0
 30
0.0
  9
$EXTMIN
 10
32099.41306926461
 20
-0.0000000000069704
 30
21.0
  9
$EXTMAX
 10
42097.08882098889
 20
7662.735351311464
 30
26.0
  9
$LIMMIN
 10
0.0
 20
0.0
  9
$LIMMAX
 10
12.0
 20
9.0
  9
$ORTHOMODE
 70
     0
  9
$REGENMODE
 70
     1
  9
$FILLMODE
 70
     1
  9
$QTEXTMODE
 70
     0
  9
$MIRRTEXT
 70
     0
  9
$LTSCALE
 40
1.0
  9
$ATTMODE
 70
     1
  9
$TEXTSIZE
 40
0.2
  9
$TRACEWID
 40
0.05
  9
$TEXTSTYLE
  7
Standard
  9
$CLAYER
  8
DEFAULT
  9
$CELTYPE
  6
ByLayer
  9
$CECOLOR
 62
   256
  9
$CELTSCALE
 40
1.0
  9
$DISPSILH
 70
     0
  9
$DIMSCALE
 40
1.0
  9
$DIMASZ
 40
0.18
  9
$DIMEXO
 40
0.0625
  9
$DIMDLI
 40
0.38
  9
$DIMRND
 40
0.0
  9
$DIMDLE
 40
0.0
  9
$DIMEXE
 40
0.18
  9
$DIMTP
 40
0.0
  9
$DIMTM
 40
0.0
  9
$DIMTXT
 40
0.18
  9
$DIMCEN
 40
0.09
  9
$DIMTSZ
 40
0.0
  9
$DIMTOL
 70
     0
  9
$DIMLIM
 70
     0
  9
$DIMTIH
 70
     1
  9
$DIMTOH
 70
     1
  9
$DIMSE1
 70
     0
  9
$DIMSE2
 70
     0
  9
$DIMTAD
 70
     0
  9
$DIMZIN
 70
     0
  9
$DIMBLK
  1

  9
$DIMASO
 70
     1
  9
$DIMSHO
 70
     1
  9
$DIMPOST
  1

  9
$DIMAPOST
  1

  9
$DIMALT
 70
     0
  9
$DIMALTD
 70
     2
  9
$DIMALTF
 40
25.4
  9
$DIMLFAC
 40
1.0
  9
$DIMTOFL
 70
     0
  9
$DIMTVP
 40
0.0
  9
$DIMTIX
 70
     0
  9
$DIMSOXD
 70
     0
  9
$DIMSAH
 70
     0
  9
$DIMBLK1
  1

  9
$DIMBLK2
  1

  9
$DIMSTYLE
  2
STANDARD_ACAD
  9
$DIMCLRD
 70
     0
  9
$DIMCLRE
 70
     0
  9
$DIMCLRT
 70
     0
  9
$DIMTFAC
 40
1.0
  9
$DIMGAP
 40
0.09
  9
$DIMJUST
 70
     0
  9
$DIMSD1
 70
     0
  9
$DIMSD2
 70
     0
  9
$DIMTOLJ
 70
     1
  9
$DIMTZIN
 70
     0
  9
$DIMALTZ
 70
     0
  9
$DIMALTTZ
 70
     0
  9
$DIMUPT
 70
     0
  9
$DIMDEC
 70
     4
  9
$DIMTDEC
 70
     4
  9
$DIMALTU
 70
     2
  9
$DIMALTTD
 70
     2
  9
$DIMTXSTY
  7
Standard
  9
$DIMAUNIT
 70
     0
  9
$DIMADEC
 70
     0
  9
$DIMALTRND
 40
0.0
  9
$DIMAZIN
 70
     0
  9
$DIMDSEP
 70
    46
  9
$DIMATFIT
 70
     3
  9
$DIMFRAC
 70
     0
  9
$DIMLDRBLK
  1

  9
$DIMLUNIT
 70
     2
  9
$DIMLWD
 70
    -2
  9
$DIMLWE
 70
    -2
  9
$DIMTMOVE
 70
     2
  9
$DIMFXL
 40
1.0
  9
$DIMFXLON
 70
     0
  9
$DIMJOGANG
 40
0.7853981633974483
  9
$DIMTFILL
 70
     0
  9
$DIMTFILLCLR
 70
     0
  9
$DIMARCSYM
 70
     0
  9
$DIMLTYPE
  6

  9
$DIMLTEX1
  6

  9
$DIMLTEX2
  6

  9
$DIMTXTDIRECTION
 70
     0
  9
$LUNITS
 70
     2
  9
$LUPREC
 70
     3
  9
$SKETCHINC
 40
0.1
  9
$FILLETRAD
 40
0.0
  9
$AUNITS
 70
     0
  9
$AUPREC
 70
     0
  9
$MENU
  1
.
  9
$ELEVATION
 40
0.0
  9
$PELEVATION
 40
0.0
  9
$THICKNESS
 40
0.0
  9
$LIMCHECK
 70
     0
  9
$CHAMFERA
 40
0.0
  9
$CHAMFERB
 40
0.0
  9
$CHAMFERC
 40
0.0
  9
$CHAMFERD
 40
0.0
  9
$SKPOLY
 70
     0
  9
$TDCREATE
 40
2461230.555096274
  9
$TDUCREATE
 40
2461230.47176294
  9
$TDUPDATE
 40
2461230.555113958
  9
$TDUUPDATE
 40
2461230.471780625
  9
$TDINDWG
 40
0.0000000116
  9
$TDUSRTIMER
 40
0.0000000116
  9
$USRTIMER
 70
     1
  9
$ANGBASE
 50
0.0
  9
$ANGDIR
 70
     0
  9
$PDMODE
 70
     0
  9
$PDSIZE
 40
0.0
  9
$PLINEWID
 40
0.0
  9
$SPLFRAME
 70
     0
  9
$SPLINETYPE
 70
     6
  9
$SPLINESEGS
 70
     8
  9
$HANDSEED
  5
3D4
  9
$SURFTAB1
 70
     6
  9
$SURFTAB2
 70
     6
  9
$SURFTYPE
 70
     6
  9
$SURFU
 70
     6
  9
$SURFV
 70
     6
  9
$UCSBASE
  2

  9
$UCSNAME
  2

  9
$UCSORG
 10
0.0
 20
0.0
 30
0.0
  9
$UCSXDIR
 10
1.0
 20
0.0
 30
0.0
  9
$UCSYDIR
 10
0.0
 20
1.0
 30
0.0
  9
$UCSORTHOREF
  2

  9
$UCSORTHOVIEW
 70
     0
  9
$UCSORGTOP
 10
0.0
 20
0.0
 30
0.0
  9
$UCSORGBOTTOM
 10
0.0
 20
0.0
 30
0.0
  9
$UCSORGLEFT
 10
0.0
 20
0.0
 30
0.0
  9
$UCSORGRIGHT
 10
0.0
 20
0.0
 30
0.0
  9
$UCSORGFRONT
 10
0.0
 20
0.0
 30
0.0
  9
$UCSORGBACK
 10
0.0
 20
0.0
 30
0.0
  9
$PUCSBASE
  2

  9
$PUCSNAME
  2

  9
$PUCSORG
 10
0.0
 20
0.0
 30
0.0
  9
$PUCSXDIR
 10
1.0
 20
0.0
 30
0.0
  9
$PUCSYDIR
 10
0.0
 20
1.0
 30
0.0
  9
$PUCSORTHOREF
  2

  9
$PUCSORTHOVIEW
 70
     0
  9
$PUCSORGTOP
 10
0.0
 20
0.0
 30
0.0
  9
$PUCSORGBOTTOM
 10
0.0
 20
0.0
 30
0.0
  9
$PUCSORGLEFT
 10
0.0
 20
0.0
 30
0.0
  9
$PUCSORGRIGHT
 10
0.0
 20
0.0
 30
0.0
  9
$PUCSORGFRONT
 10
0.0
 20
0.0
 30
0.0
  9
$PUCSORGBACK
 10
0.0
 20
0.0
 30
0.0
  9
$USERI1
 70
     0
  9
$USERI2
 70
     0
  9
$USERI3
 70
     0
  9
$USERI4
 70
     0
  9
$USERI5
 70
     0
  9
$USERR1
 40
0.0
  9
$USERR2
 40
0.0
  9
$USERR3
 40
0.0
  9
$USERR4
 40
0.0
  9
$USERR5
 40
0.0
  9
$WORLDVIEW
 70
     1
  9
$SHADEDGE
 70
     3
  9
$SHADEDIF
 70
    70
  9
$TILEMODE
 70
     1
  9
$MAXACTVP
 70
    64
  9
$PINSBASE
 10
0.0
 20
0.0
 30
0.0
  9
$PLIMCHECK
 70
     0
  9
$PEXTMIN
 10
1.000000000000000E+20
 20
1.000000000000000E+20
 30
1.000000000000000E+20
  9
$PEXTMAX
 10
-1.000000000000000E+20
 20
-1.000000000000000E+20
 30
-1.000000000000000E+20
  9
$PLIMMIN
 10
0.0
 20
0.0
  9
$PLIMMAX
 10
12.0
 20
9.0
  9
$UNITMODE
 70
     0
  9
$VISRETAIN
 70
     1
  9
$PLINEGEN
 70
     0
  9
$PSLTSCALE
 70
     1
  9
$TREEDEPTH
 70
  3020
  9
$CMLSTYLE
  2
Standard
  9
$CMLJUST
 70
     0
  9
$CMLSCALE
 40
1.0
  9
$PROXYGRAPHICS
 70
     1
  9
$MEASUREMENT
 70
     1
  9
$CELWEIGHT
370
    -1
  9
$ENDCAPS
280
     0
  9
$JOINSTYLE
280
     0
  9
$LWDISPLAY
290
     0
  9
$INSUNITS
 70
     4
  9
$HYPERLINKBASE
  1

  9
$STYLESHEET
  1

  9
$XEDIT
290
     1
  9
$CEPSNTYPE
380
     0
  9
$PSTYLEMODE
290
     1
  9
$FINGERPRINTGUID
  2
{bf521f11-dc46-4b7f-b7f0-bce869aae2b2}
  9
$VERSIONGUID
  2
{FAEB1C32-E019-11D5-929B-00C0DF256EC4}
  9
$EXTNAMES
290
     1
  9
$PSVPSCALE
 40
0.0
  9
$OLESTARTUP
290
     0
  9
$SORTENTS
280
   127
  9
$INDEXCTL
280
     0
  9
$HIDETEXT
280
     1
  9
$XCLIPFRAME
280
     2
  9
$HALOGAP
280
     0
  9
$OBSCOLOR
 70
   257
  9
$OBSLTYPE
280
     0
  9
$INTERSECTIONDISPLAY
280
     0
  9
$INTERSECTIONCOLOR
 70
   257
  9
$DIMASSOC
280
     2
  9
$PROJECTNAME
  1

  9
$CAMERADISPLAY
290
     0
  9
$LENSLENGTH
 40
50.0
  9
$CAMERAHEIGHT
 40
0.0
  9
$STEPSPERSEC
 40
2.0
  9
$STEPSIZE
 40
6.0
  9
$3DDWFPREC
 40
2.0
  9
$PSOLWIDTH
 40
0.25
  9
$PSOLHEIGHT
 40
4.0
  9
$LOFTANG1
 40
1.570796326794897
  9
$LOFTANG2
 40
1.570796326794897
  9
$LOFTMAG1
 40
0.0
  9
$LOFTMAG2
 40
0.0
  9
$LOFTPARAM
 70
     7
  9
$LOFTNORMALS
280
     1
  9
$LATITUDE
 40
37.795
  9
$LONGITUDE
 40
-122.394
  9
$NORTHDIRECTION
 40
0.0
  9
$TIMEZONE
 70
 -8000
  9
$LIGHTGLYPHDISPLAY
280
     1
  9
$TILEMODELIGHTSYNCH
280
     1
  9
$CMATERIAL
347
44
  9
$SOLIDHIST
280
     0
  9
$SHOWHIST
280
     1
  9
$DWFFRAME
280
     2
  9
$DGNFRAME
280
     2
  9
$REALWORLDSCALE
290
     1
  9
$INTERFERECOLOR
 62
   256
  9
$CSHADOW
280
     0
  9
$SHADOWPLANELOCATION
 40
0.0
  0
ENDSEC
  0
SECTION
  2
CLASSES
  0
CLASS
  1
ACDBDICTIONARYWDFLT
  2
AcDbDictionaryWithDefault
  3
ObjectDBX Classes
 90
        0
 91
        3
280
     0
281
     0
  0
CLASS
  1
VISUALSTYLE
  2
AcDbVisualStyle
  3
ObjectDBX Classes
 90
     4095
 91
        3
280
     0
281
     0
  0
CLASS
  1
MATERIAL
  2
AcDbMaterial
  3
ObjectDBX Classes
 90
     1153
 91
        3
280
     0
281
     0
  0
CLASS
  1
SCALE
  2
AcDbScale
  3
ObjectDBX Classes
 90
     1153
 91
        3
280
     0
281
     0
  0
CLASS
  1
TABLESTYLE
  2
AcDbTableStyle
  3
ObjectDBX Classes
 90
     4095
 91
        3
280
     0
281
     0
  0
CLASS
  1
MLEADERSTYLE
  2
AcDbMLeaderStyle
  3
ACDB_MLEADERSTYLE_CLASS
 90
     4095
 91
        3
280
     0
281
     0
  0
CLASS
  1
SUN
  2
AcDbSun
  3
SCENEOE
 90
     1153
 91
        3
280
     0
281
     0
  0
CLASS
  1
DICTIONARYVAR
  2
AcDbDictionaryVar
  3
ObjectDBX Classes
 90
        0
 91
        3
280
     0
281
     0
  0
CLASS
  1
CELLSTYLEMAP
  2
AcDbCellStyleMap
  3
ObjectDBX Classes
 90
     1152
 91
        3
280
     0
281
     0
  0
ENDSEC
  0
SECTION
  2
TABLES
  0
TABLE
  2
VPORT
  5
8
330
0
100
AcDbSymbolTable
 70
     1
  0
VPORT
  5
29
330
8
100
AcDbSymbolTableRecord
100
AcDbViewportTableRecord
  2
*Active
 70
     0
 10
0.0
 20
0.0
 11
1.0
 21
1.0
 12
10.42990654205607
 22
4.5
 13
0.0
 23
0.0
 14
0.5
 24
0.5
 15
0.5
 25
0.5
 16
0.0
 26
0.0
 36
1.0
 17
0.0
 27
0.0
 37
0.0
 40
9.0
 41
1.972972972850329
 42
50.0
 43
0.0
 44
0.0
 50
0.0
 51
0.0
 71
     0
 72
   100
 73
     1
 74
     3
 75
     0
 76
     0
 77
     0
 78
     0
281
     0
 65
     1
110
0.0
120
0.0
130
0.0
111
1.0
121
0.0
131
0.0
112
0.0
122
1.0
132
0.0
 79
     0
146
0.0
348
2F
 60
     3
 61
     5
292
     1
282
     1
141
0.0
142
0.0
 63
   250
361
5D
  0
ENDTAB
  0
TABLE
  2
LTYPE
  5
5
330
0
100
AcDbSymbolTable
 70
     1
  0
LTYPE
  5
14
330
5
100
AcDbSymbolTableRecord
100
AcDbLinetypeTableRecord
  2
ByBlock
 70
     0
  3

 72
    65
 73
     0
 40
0.0
  0
LTYPE
  5
15
330
5
100
AcDbSymbolTableRecord
100
AcDbLinetypeTableRecord
  2
ByLayer
 70
     0
  3

 72
    65
 73
     0
 40
0.0
  0
LTYPE
  5
16
330
5
100
AcDbSymbolTableRecord
100
AcDbLinetypeTableRecord
  2
Continuous
 70
     0
  3
Solid line
 72
    65
 73
     0
 40
0.0
  0
ENDTAB
  0
TABLE
  2
LAYER
  5
2
330
0
100
AcDbSymbolTable
 70
     2
  0
LAYER
  5
10
330
2
100
AcDbSymbolTableRecord
100
AcDbLayerTableRecord
  2
0
 70
     0
 62
     7
  6
Continuous
370
    -3
390
F
347
46
348
0
  0
LAYER
  5
5F
330
2
100
AcDbSymbolTableRecord
100
AcDbLayerTableRecord
  2
DEFAULT
 70
     0
 62
     7
420
 16777215
  6
Continuous
370
    -3
390
F
347
46
348
0
  0
ENDTAB
  0
TABLE
  2
STYLE
  5
3
330
0
100
AcDbSymbolTable
 70
     2
  0
STYLE
  5
11
330
3
100
AcDbSymbolTableRecord
100
AcDbTextStyleTableRecord
  2
Standard
 70
     0
 40
0.0
 41
1.0
 50
0.0
 71
     0
 42
0.2
  3
txt
  4

  0
STYLE
  5
60
330
3
100
AcDbSymbolTableRecord
100
AcDbTextStyleTableRecord
  2
DEFAULT
 70
     0
 40
0.0
 41
1.0
 50
0.0
 71
     0
 42
0.2
  3
arial.ttf
  4

1001
ACAD
1000
Arial
1071
      256
  0
ENDTAB
  0
TABLE
  2
VIEW
  5
6
330
0
100
AcDbSymbolTable
 70
     0
  0
ENDTAB
  0
TABLE
  2
UCS
  5
7
330
0
100
AcDbSymbolTable
 70
     0
  0
ENDTAB
  0
TABLE
  2
APPID
  5
9
330
0
100
AcDbSymbolTable
 70
     2
  0
APPID
  5
12
330
9
100
AcDbSymbolTableRecord
100
AcDbRegAppTableRecord
  2
ACAD
 70
     0
  0
APPID
  5
5E
330
9
100
AcDbSymbolTableRecord
100
AcDbRegAppTableRecord
  2
Rhino
 70
     0
  0
ENDTAB
  0
TABLE
  2
DIMSTYLE
  5
A
330
0
100
AcDbSymbolTable
 70
     1
100
AcDbDimStyleTable
  0
DIMSTYLE
105
27
330
A
100
AcDbSymbolTableRecord
100
AcDbDimStyleTableRecord
  2
STANDARD_ACAD
 70
     0
178
     0
340
11
  0
ENDTAB
  0
TABLE
  2
BLOCK_RECORD
  5
1
330
0
100
AcDbSymbolTable
 70
     1
  0
BLOCK_RECORD
  5
1F
330
1
100
AcDbSymbolTableRecord
100
AcDbBlockTableRecord
  2
*Model_Space
340
22
 70
     0
280
     1
281
     0
  0
BLOCK_RECORD
  5
1B
330
1
100
AcDbSymbolTableRecord
100
AcDbBlockTableRecord
  2
*Paper_Space
340
1E
 70
     0
280
     1
281
     0
  0
BLOCK_RECORD
  5
23
330
1
100
AcDbSymbolTableRecord
100
AcDbBlockTableRecord
  2
*Paper_Space0
340
26
 70
     0
280
     1
281
     0
  0
ENDTAB
  0
ENDSEC
  0
SECTION
  2
BLOCKS
  0
BLOCK
  5
20
330
1F
100
AcDbEntity
  8
0
100
AcDbBlockBegin
  2
*Model_Space
 70
     0
 10
0.0
 20
0.0
 30
0.0
  3
*Model_Space
  1

  0
ENDBLK
  5
21
330
1F
100
AcDbEntity
  8
0
100
AcDbBlockEnd
  0
BLOCK
  5
1C
330
1B
100
AcDbEntity
 67
     1
  8
0
100
AcDbBlockBegin
  2
*Paper_Space
 70
     0
 10
0.0
 20
0.0
 30
0.0
  3
*Paper_Space
  1

  0
ENDBLK
  5
1D
330
1B
100
AcDbEntity
 67
     1
  8
0
100
AcDbBlockEnd
  0
BLOCK
  5
24
330
23
100
AcDbEntity
  8
0
100
AcDbBlockBegin
  2
*Paper_Space0
 70
     0
 10
0.0
 20
0.0
 30
0.0
  3
*Paper_Space0
  1

  0
ENDBLK
  5
25
330
23
100
AcDbEntity
  8
0
100
AcDbBlockEnd
  0
ENDSEC
  0
SECTION
  2
ENTITIES
  0
MTEXT
  5
61
330
1F
100
AcDbEntity
  8
DEFAULT
100
AcDbMText
 10
39169.79021516691
 20
1369.083407225676
 30
26.0
 40
18.0
 41
145.7608695652174
 46
7.591304347826085
 71
     5
 72
     1
  1
PY91
  7
DEFAULT
 73
     1
 44
1.0
  0
MTEXT
  5
62
330
1F
100
AcDbEntity
  8
DEFAULT
100
AcDbMText
 10
39169.79021516691
 20
1390.683407225676
 30
26.0
 40
24.0
 41
115.0434782608696
 46
9.599999999999998
 71
     5
 72
     1
  1
x4
  7
DEFAULT
 73
     1
 44
1.0
  0
MTEXT
  5
63
330
1F
100
AcDbEntity
  8
DEFAULT
100
AcDbMText
 10
41083.3719420864
 20
172.314347202853
 30
26.0
 40
18.0
 41
152.6086956521739
 46
7.591304347826085
 71
     5
 72
     1
  1
PB97
  7
DEFAULT
 73
     1
 44
1.0
  0
MTEXT
  5
64
330
1F
100
AcDbEntity
  8
DEFAULT
100
AcDbMText
 10
41083.3719420864
 20
193.914347202853
 30
26.0
 40
24.0
 41
106.1739130434783
 46
9.599999999999998
 71
     5
 72
     1
  1
x1
  7
DEFAULT
 73
     1
 44
1.0
  0
MTEXT
  5
65
330
1F
100
AcDbEntity
  8
DEFAULT
100
AcDbMText
 10
38366.86844145558
 20
4559.306883263729
 30
26.0
 40
18.0
 41
156.5217391304348
 46
7.591304347826085
 71
     5
 72
     1
  1
AY63
  7
DEFAULT
 73
     1
 44
1.0
  0
MTEXT
  5
66
330
1F
100
AcDbEntity
  8
DEFAULT
100
AcDbMText
 10
38366.88685891807
 20
4581.354983612538
 30
26.0
 40
24.685
 41
119.1319565217391
 46
10.00815760869565
 71
     5
 72
     1
  1
x5
  7
DEFAULT
 73
     1
 44
1.0
  0
MTEXT
  5
67
330
1F
100
AcDbEntity
  8
DEFAULT
100
AcDbMText
 10
36534.69351562763
 20
4606.069082429503
 30
26.0
 40
26.1982
 41
226.9561456521739
 46
11.04880608695652
 71
     5
 72
     1
  1
BH35
  7
DEFAULT
 73
     1
 44
1.0
  0
MTEXT
  5
68
330
1F
100
AcDbEntity
  8
DEFAULT
100
AcDbMText
 10
36534.69351562762
 20
4640.364859905083
 30
26.0
 40
38.1064
 41
183.0764
 46
16.07095999999999
 71
     5
 72
     1
  1
x3
  7
DEFAULT
 73
     1
 44
1.0
  0
MTEXT
  5
69
330
1F
100
AcDbEntity
  8
DEFAULT
100
AcDbMText
 10
32213.26778013417
 20
2270.041670598084
 30
26.0
 40
24.1351
 41
227.7094217391304
 46
10.17871608695652
 71
     5
 72
     1
  1
YW02
  7
DEFAULT
 73
     1
 44
1.0
  0
MTEXT
  5
6A
330
1F
100
AcDbEntity
  8
DEFAULT
100
AcDbMText
 10
32213.26778013417
 20
2301.636736770267
 30
26.0
 40
35.1056
 41
168.6595130434783
 46
14.8054052173913
 71
     5
 72
     1
  1
x3
  7
DEFAULT
 73
     1
 44
1.0
  0
MTEXT
  5
6B
330
1F
100
AcDbEntity
  8
DEFAULT
100
AcDbMText
 10
33271.27696354209
 20
2762.468144362777
 30
26.0
 40
25.8971
 41
227.4440956521739
 46
10.9218204347826
 71
     5
 72
     1
  1
MT09
  7
DEFAULT
 73
     1
 44
1.0
  0
MTEXT
  5
6C
330
1F
100
AcDbEntity
  8
DEFAULT
100
AcDbMText
 10
33271.27696354207
 20
2796.112907418032
 30
26.0
 40
37.6686
 41
181.7919391304348
 46
15.27216065217391
 71
     5
 72
     1
  1
x5
  7
DEFAULT
 73
     1
 44
1.0
  0
MTEXT
  5
6D
330
1F
100
AcDbEntity
  8
DEFAULT
100
AcDbMText
 10
38842.17786873883
 20
1309.116286864121
 30
26.0
 40
19.4953
 41
169.9481586956522
 46
9.705268913043477
 71
     5
 72
     1
  1
QF48
  7
DEFAULT
 73
     1
 44
1.0
  0
MTEXT
  5
6E
330
1F
100
AcDbEntity
  8
DEFAULT
100
AcDbMText
 10
38842.17786873883
 20
1334.637458554447
 30
26.0
 40
28.3569
 41
135.6199565217391
 46
11.34276
 71
     5
 72
     1
  1
x2
  7
DEFAULT
 73
     1
 44
1.0
  0
MTEXT
  5
6F
330
1F
100
AcDbEntity
  8
DEFAULT
100
AcDbMText
 10
40952.79270423482
 20
5195.040897239199
 30
26.0
 40
21.8306
 41
195.2889543478261
 46
9.206818260869566
 71
     5
 72
     1
  1
LW26
  7
DEFAULT
 73
     1
 44
1.0
  0
MTEXT
  5
70
330
1F
100
AcDbEntity
  8
DEFAULT
100
AcDbMText
 10
40952.79270423481
 20
5223.402541246825
 30
26.0
 40
31.7536
 41
153.2456347826087
 46
12.87401391304347
 71
     5
 72
     1
  1
x5
  7
DEFAULT
 73
     1
 44
1.0
  0
MTEXT
  5
71
330
1F
100
AcDbEntity
  8
DEFAULT
100
AcDbMText
 10
39662.86732376278
 20
3769.979801323633
 30
26.0
 40
42.2637
 41
369.3479869565217
 46
18.51333815217392
 71
     5
 72
     1
  1
SH25
  7
DEFAULT
 73
     1
 44
1.0
  0
MTEXT
  5
72
330
1F
100
AcDbEntity
  8
DEFAULT
100
AcDbMText
 10
39662.86732376278
 20
3825.306806489033
 30
26.0
 40
61.4745
 41
294.6766793478261
 46
24.5898
 71
     5
 72
     1
  1
x4
  7
DEFAULT
 73
     1
 44
1.0
  0
MTEXT
  5
73
330
1F
100
AcDbEntity
  8
DEFAULT
100
AcDbMText
 10
40276.20271196164
 20
1944.929740166618
 30
26.0
 40
25.5925
 41
226.9943478260869
 46
12.74061413043478
 71
     5
 72
     1
  1
QB03
  7
DEFAULT
 73
     1
 44
1.0
  0
MTEXT
  5
74
330
1F
100
AcDbEntity
  8
DEFAULT
100
AcDbMText
 10
40276.20271196165
 20
1978.432661210536
 30
26.0
 40
37.2255
 41
178.84425
 46
15.69945
 71
     5
 72
     1
  1
x3
  7
DEFAULT
 73
     1
 44
1.0
  0
MTEXT
  5
75
330
1F
100
AcDbEntity
  8
DEFAULT
100
AcDbMText
 10
35032.14402588088
 20
51.53982214789237
 30
26.0
 40
18.0
 41
162.0
 46
8.96086956521739
 71
     5
 72
     1
  1
QC32
  7
DEFAULT
 73
     1
 44
1.0
  0
MTEXT
  5
76
330
1F
100
AcDbEntity
  8
DEFAULT
100
AcDbMText
 10
35032.14402588088
 20
73.13982214789237
 30
26.0
 40
24.0
 41
114.7826086956522
 46
9.599999999999998
 71
     5
 72
     1
  1
x2
  7
DEFAULT
 73
     1
 44
1.0
  0
MTEXT
  5
77
330
1F
100
AcDbEntity
  8
DEFAULT
100
AcDbMText
 10
39927.88784316587
 20
4799.700540329008
 30
26.0
 40
18.0
 41
152.0217391304348
 46
7.591304347826085
 71
     5
 72
     1
  1
UF74
  7
DEFAULT
 73
     1
 44
1.0
  0
MTEXT
  5
78
330
1F
100
AcDbEntity
  8
DEFAULT
100
AcDbMText
 10
39927.88784316587
 20
4821.300540329008
 30
26.0
 40
24.0
 41
106.1739130434783
 46
9.599999999999998
 71
     5
 72
     1
  1
x1
  7
DEFAULT
 73
     1
 44
1.0
  0
MTEXT
  5
79
330
1F
100
AcDbEntity
  8
DEFAULT
100
AcDbMText
 10
37234.71141570507
 20
5472.913033735229
 30
26.0
 40
18.0
 41
162.0
 46
8.96086956521739
 71
     5
 72
     1
  1
AQ66
  7
DEFAULT
 73
     1
 44
1.0
  0
MTEXT
  5
7A
330
1F
100
AcDbEntity
  8
DEFAULT
100
AcDbMText
 10
37234.72983316755
 20
5494.513033735231
 30
26.0
 40
24.0
 41
114.7826086956522
 46
9.599999999999998
 71
     5
 72
     1
  1
x2
  7
DEFAULT
 73
     1
 44
1.0
  0
MTEXT
  5
7B
330
1F
100
AcDbEntity
  8
DEFAULT
100
AcDbMText
 10
36767.0103517649
 20
6653.678019014847
 30
26.0
 40
24.9585
 41
214.5888423913044
 46
10.52597608695652
 71
     5
 72
     1
  1
ER02
  7
DEFAULT
 73
     1
 44
1.0
  0
MTEXT
  5
7C
330
1F
100
AcDbEntity
  8
DEFAULT
100
AcDbMText
 10
36767.0103517649
 20
6686.103311082697
 30
26.0
 40
36.3033
 41
175.2028826086956
 46
14.71862054347825
 71
     5
 72
     1
  1
x5
  7
DEFAULT
 73
     1
 44
1.0
  0
MTEXT
  5
7D
330
1F
100
AcDbEntity
  8
DEFAULT
100
AcDbMText
 10
35030.90595271517
 20
2214.051409451577
 30
26.0
 40
27.0209
 41
254.0552010869565
 46
11.39577086956521
 71
     5
 72
     1
  1
WV82
  7
DEFAULT
 73
     1
 44
1.0
  0
MTEXT
  5
7E
330
1F
100
AcDbEntity
  8
DEFAULT
100
AcDbMText
 10
35030.90595271517
 20
2249.424190061539
 30
26.0
 40
39.3031
 41
187.971347826087
 46
15.72124
 71
     5
 72
     1
  1
x2
  7
DEFAULT
 73
     1
 44
1.0
  0
MTEXT
  5
7F
330
1F
100
AcDbEntity
  8
DEFAULT
100
AcDbMText
 10
36589.47727758097
 20
3018.981827789203
 30
26.0
 40
39.1535
 41
351.9559184782609
 46
19.49163369565217
 71
     5
 72
     1
  1
CQ02
  7
DEFAULT
 73
     1
 44
1.0
  0
MTEXT
  5
80
330
1F
100
AcDbEntity
  8
DEFAULT
100
AcDbMText
 10
36589.47727758096
 20
3070.237335046493
 30
26.0
 40
56.9506
 41
272.9914630434783
 46
22.78023999999998
 71
     5
 72
     1
  1
x4
  7
DEFAULT
 73
     1
 44
1.0
  0
MTEXT
  5
81
330
1F
100
AcDbEntity
  8
DEFAULT
100
AcDbMText
 10
40482.48073655271
 20
3239.004696109104
 30
26.0
 40
34.3011
 41
286.7124554347826
 46
14.46611608695652
 71
     5
 72
     1
  1
XL26
  7
DEFAULT
 73
     1
 44
1.0
  0
MTEXT
  5
82
330
1F
100
AcDbEntity
  8
DEFAULT
100
AcDbMText
 10
40482.48073655271
 20
3283.907949055461
 30
26.0
 40
49.8925
 41
220.7200815217391
 46
19.95699999999999
 71
     5
 72
     1
  1
x1
  7
DEFAULT
 73
     1
 44
1.0
  0
MTEXT
  5
83
330
1F
100
AcDbEntity
  8
DEFAULT
100
AcDbMText
 10
39503.84138285707
 20
251.4132478209459
 30
26.0
 40
18.0
 41
150.0652173913044
 46
7.591304347826085
 71
     5
 72
     1
  1
LD88
  7
DEFAULT
 73
     1
 44
1.0
  0
MTEXT
  5
84
330
1F
100
AcDbEntity
  8
DEFAULT
100
AcDbMText
 10
39503.84138285707
 20
272.8495370433197
 30
26.0
 40
24.0
 41
115.8260869565217
 46
9.730434782608693
 71
     5
 72
     1
  1
x5
  7
DEFAULT
 73
     1
 44
1.0
  0
MTEXT
  5
85
330
1F
100
AcDbEntity
  8
DEFAULT
100
AcDbMText
 10
39913.17256124688
 20
1962.150742726445
 30
26.0
 40
24.1142
 41
199.7284826086957
 46
10.16990173913043
 71
     5
 72
     1
  1
JH52
  7
DEFAULT
 73
     1
 44
1.0
  0
MTEXT
  5
86
330
1F
100
AcDbEntity
  8
DEFAULT
100
AcDbMText
 10
39913.17256124688
 20
1993.718385859086
 30
26.0
 40
35.0752
 41
168.5134608695652
 46
14.79258434782609
 71
     5
 72
     1
  1
x3
  7
DEFAULT
 73
     1
 44
1.0
  0
MTEXT
  5
87
330
1F
100
AcDbEntity
  8
DEFAULT
100
AcDbMText
 10
39569.31244848192
 20
1872.280238993654
 30
26.0
 40
25.4649
 41
207.5942934782609
 46
10.7395447826087
 71
     5
 72
     1
  1
JY76
  7
DEFAULT
 73
     1
 44
1.0
  0
MTEXT
  5
88
330
1F
100
AcDbEntity
  8
DEFAULT
100
AcDbMText
 10
39569.31244848192
 20
1905.616169649989
 30
26.0
 40
37.0399
 41
177.5499554347826
 46
14.81596
 71
     5
 72
     1
  1
x4
  7
DEFAULT
 73
     1
 44
1.0
  0
MTEXT
  5
89
330
1F
100
AcDbEntity
  8
DEFAULT
100
AcDbMText
 10
39204.62339477196
 20
3831.598086913278
 30
26.0
 40
22.2334
 41
194.0589152173913
 46
9.739195869565215
 71
     5
 72
     1
  1
SC29
  7
DEFAULT
 73
     1
 44
1.0
  0
MTEXT
  5
8A
330
1F
100
AcDbEntity
  8
DEFAULT
100
AcDbMText
 10
39204.62339477196
 20
3860.703570101147
 30
26.0
 40
32.3394
 41
154.6666956521739
 46
12.93575999999999
 71
     5
 72
     1
  1
x2
  7
DEFAULT
 73
     1
 44
1.0
  0
MTEXT
  5
8B
330
1F
100
AcDbEntity
  8
DEFAULT
100
AcDbMText
 10
34410.23852069928
 20
3455.433226347881
 30
26.0
 40
39.5507
 41
340.9098380434783
 46
15.82028
 71
     5
 72
     1
  1
HX77
  7
DEFAULT
 73
     1
 44
1.0
  0
MTEXT
  5
8C
330
1F
100
AcDbEntity
  8
DEFAULT
100
AcDbMText
 10
34410.23852069928
 20
3507.208657605832
 30
26.0
 40
57.5283
 41
275.135347826087
 46
23.01132
 71
     5
 72
     1
  1
x2
  7
DEFAULT
 73
     1
 44
1.0
  0
MTEXT
  5
8D
330
1F
100
AcDbEntity
  8
DEFAULT
100
AcDbMText
 10
39678.73307444625
 20
927.6518981311933
 30
26.0
 40
18.0
 41
155.1521739130435
 46
7.591304347826085
 71
     5
 72
     1
  1
ZN93
  7
DEFAULT
 73
     1
 44
1.0
  0
MTEXT
  5
8E
330
1F
100
AcDbEntity
  8
DEFAULT
100
AcDbMText
 10
39678.73307444625
 20
949.2518981311931
 30
26.0
 40
24.0
 41
115.0434782608696
 46
9.599999999999998
 71
     5
 72
     1
  1
x4
  7
DEFAULT
 73
     1
 44
1.0
  0
MTEXT
  5
8F
330
1F
100
AcDbEntity
  8
DEFAULT
100
AcDbMText
 10
35810.9883176422
 20
4248.686028563439
 30
26.0
 40
45.0
 41
380.5434782608696
 46
18.97826086956522
 71
     5
 72
     1
  1
HT96
  7
DEFAULT
 73
     1
 44
1.0
  0
MTEXT
  5
90
330
1F
100
AcDbEntity
  8
DEFAULT
100
AcDbMText
 10
35810.9883176422
 20
4307.18602856344
 30
26.0
 40
65.0
 41
312.2826086956522
 46
27.41304347826087
 71
     5
 72
     1
  1
x3
  7
DEFAULT
 73
     1
 44
1.0
  0
MTEXT
  5
91
330
1F
100
AcDbEntity
  8
DEFAULT
100
AcDbMText
 10
36219.2978506735
 20
6561.688741659228
 30
26.0
 40
45.0
 41
408.4239130434783
 46
18.0
 71
     5
 72
     1
  1
HM77
  7
DEFAULT
 73
     1
 44
1.0
  0
MTEXT
  5
92
330
1F
100
AcDbEntity
  8
DEFAULT
100
AcDbMText
 10
36219.2978506735
 20
6619.745358303157
 30
26.0
 40
65.0
 41
313.6956521739131
 46
26.35326086956521
 71
     5
 72
     1
  1
x5
  7
DEFAULT
 73
     1
 44
1.0
  0
MTEXT
  5
93
330
1F
100
AcDbEntity
  8
DEFAULT
100
AcDbMText
 10
36215.75795593667
 20
5856.001825576755
 30
26.0
 40
23.8776
 41
202.1809826086956
 46
10.07011826086956
 71
     5
 72
     1
  1
RT48
  7
DEFAULT
 73
     1
 44
1.0
  0
MTEXT
  5
94
330
1F
100
AcDbEntity
  8
DEFAULT
100
AcDbMText
 10
36215.75795593667
 20
5887.022863368571
 30
26.0
 40
34.7311
 41
167.6153086956522
 46
14.08119597826087
 71
     5
 72
     1
  1
x5
  7
DEFAULT
 73
     1
 44
1.0
  0
MTEXT
  5
95
330
1F
100
AcDbEntity
  8
DEFAULT
100
AcDbMText
 10
37335.45043696882
 20
6606.707290148457
 30
26.0
 40
45.0
 41
430.9239130434783
 46
18.97826086956522
 71
     5
 72
     1
  1
WD93
  7
DEFAULT
 73
     1
 44
1.0
  0
MTEXT
  5
96
330
1F
100
AcDbEntity
  8
DEFAULT
100
AcDbMText
 10
37335.45043696882
 20
6665.207290148457
 30
26.0
 40
65.0
 41
287.554347826087
 46
25.99999999999999
 71
     5
 72
     1
  1
x1
  7
DEFAULT
 73
     1
 44
1.0
  0
MTEXT
  5
97
330
1F
100
AcDbEntity
  8
DEFAULT
100
AcDbMText
 10
33667.49857926842
 20
4773.148379423395
 30
26.0
 40
36.0659
 41
305.7761086956522
 46
15.21040130434782
 71
     5
 72
     1
  1
ZY28
  7
DEFAULT
 73
     1
 44
1.0
  0
MTEXT
  5
98
330
1F
100
AcDbEntity
  8
DEFAULT
100
AcDbMText
 10
33667.49857926842
 20
4820.361915746241
 30
26.0
 40
52.4595
 41
251.463472826087
 46
20.98379999999999
 71
     5
 72
     1
  1
x4
  7
DEFAULT
 73
     1
 44
1.0
  0
MTEXT
  5
99
330
1F
100
AcDbEntity
  8
DEFAULT
100
AcDbMText
 10
41473.16586725325
 20
6098.831663977127
 30
26.0
 40
45.0
 41
398.6413043478261
 46
19.71195652173913
 71
     5
 72
     1
  1
GV38
  7
DEFAULT
 73
     1
 44
1.0
  0
MTEXT
  5
9A
330
1F
100
AcDbEntity
  8
DEFAULT
100
AcDbMText
 10
41473.16586725325
 20
6157.331663977127
 30
26.0
 40
65.0
 41
287.554347826087
 46
25.99999999999999
 71
     5
 72
     1
  1
x1
  7
DEFAULT
 73
     1
 44
1.0
  0
MTEXT
  5
9B
330
1F
100
AcDbEntity
  8
DEFAULT
100
AcDbMText
 10
35463.81320946893
 20
1092.098671703605
 30
26.0
 40
45.0
 41
381.5217391304348
 46
22.40217391304348
 71
     5
 72
     1
  1
JQ15
  7
DEFAULT
 73
     1
 44
1.0
  0
MTEXT
  5
9C
330
1F
100
AcDbEntity
  8
DEFAULT
100
AcDbMText
 10
35463.81320946893
 20
1150.155288347534
 30
26.0
 40
65.0
 41
313.6956521739131
 46
26.35326086956521
 71
     5
 72
     1
  1
x5
  7
DEFAULT
 73
     1
 44
1.0
  0
MTEXT
  5
9D
330
1F
100
AcDbEntity
  8
DEFAULT
100
AcDbMText
 10
38992.3352504176
 20
2823.373677797577
 30
26.0
 40
28.7208
 41
258.1750173913044
 46
12.58095913043478
 71
     5
 72
     1
  1
VG39
  7
DEFAULT
 73
     1
 44
1.0
  0
MTEXT
  5
9E
330
1F
100
AcDbEntity
  8
DEFAULT
100
AcDbMText
 10
38992.3352504176
 20
2860.971811612598
 30
26.0
 40
41.7757
 41
200.2509097826087
 46
16.71028
 71
     5
 72
     1
  1
x4
  7
DEFAULT
 73
     1
 44
1.0
  0
MTEXT
  5
9F
330
1F
100
AcDbEntity
  8
DEFAULT
100
AcDbMText
 10
33534.37452373778
 20
5907.856711304034
 30
26.0
 40
45.0
 41
400.1086956521739
 46
22.40217391304348
 71
     5
 72
     1
  1
QA05
  7
DEFAULT
 73
     1
 44
1.0
  0
MTEXT
  5
A0
330
1F
100
AcDbEntity
  8
DEFAULT
100
AcDbMText
 10
33534.37452373778
 20
5965.913327947963
 30
26.0
 40
65.0
 41
313.6956521739131
 46
26.35326086956521
 71
     5
 72
     1
  1
x5
  7
DEFAULT
 73
     1
 44
1.0
  0
MTEXT
  5
A1
330
1F
100
AcDbEntity
  8
DEFAULT
100
AcDbMText
 10
32450.6577607033
 20
6480.337912899069
 30
26.0
 40
45.0
 41
399.6195652173913
 46
19.71195652173913
 71
     5
 72
     1
  1
OV05
  7
DEFAULT
 73
     1
 44
1.0
  0
MTEXT
  5
A2
330
1F
100
AcDbEntity
  8
DEFAULT
100
AcDbMText
 10
32450.6577607033
 20
6538.837912899069
 30
26.0
 40
65.0
 41
310.8695652173913
 46
25.99999999999999
 71
     5
 72
     1
  1
x2
  7
DEFAULT
 73
     1
 44
1.0
  0
MTEXT
  5
A3
330
1F
100
AcDbEntity
  8
DEFAULT
100
AcDbMText
 10
33931.78292650187
 20
878.2182441202099
 30
26.0
 40
18.0
 41
162.5869565217392
 46
8.96086956521739
 71
     5
 72
     1
  1
QD48
  7
DEFAULT
 73
     1
 44
1.0
  0
MTEXT
  5
A4
330
1F
100
AcDbEntity
  8
DEFAULT
100
AcDbMText
 10
33931.78292650188
 20
900.7456724462909
 30
26.0
 40
25.0305
 41
119.7110869565217
 46
10.01219999999999
 71
     5
 72
     1
  1
x2
  7
DEFAULT
 73
     1
 44
1.0
  0
MTEXT
  5
A5
330
1F
100
AcDbEntity
  8
DEFAULT
100
AcDbMText
 10
38570.19850695167
 20
4887.639347100062
 30
26.0
 40
18.0
 41
146.7391304347826
 46
7.884782608695655
 71
     5
 72
     1
  1
JS07
  7
DEFAULT
 73
     1
 44
1.0
  0
MTEXT
  5
A6
330
1F
100
AcDbEntity
  8
DEFAULT
100
AcDbMText
 10
38570.19850695167
 20
4910.86103492981
 30
26.0
 40
25.8019
 41
123.9613021739131
 46
10.88167086956521
 71
     5
 72
     1
  1
x3
  7
DEFAULT
 73
     1
 44
1.0
  0
MTEXT
  5
A7
330
1F
100
AcDbEntity
  8
DEFAULT
100
AcDbMText
 10
39974.6201221797
 20
5683.491947965329
 30
26.0
 40
45.0
 41
315.9782608695652
 46
18.97826086956522
 71
     5
 72
     1
  1
BI01
  7
DEFAULT
 73
     1
 44
1.0
  0
MTEXT
  5
A8
330
1F
100
AcDbEntity
  8
DEFAULT
100
AcDbMText
 10
39974.62012217971
 20
5741.991947965329
 30
26.0
 40
65.0
 41
311.5760869565217
 46
25.99999999999999
 71
     5
 72
     1
  1
x4
  7
DEFAULT
 73
     1
 44
1.0
  0
MTEXT
  5
A9
330
1F
100
AcDbEntity
  8
DEFAULT
100
AcDbMText
 10
41650.32575512371
 20
4826.674297779372
 30
26.0
 40
45.0
 41
382.0108695652174
 46
18.97826086956522
 71
     5
 72
     1
  1
KV10
  7
DEFAULT
 73
     1
 44
1.0
  0
MTEXT
  5
AA
330
1F
100
AcDbEntity
  8
DEFAULT
100
AcDbMText
 10
41650.32575512372
 20
4885.174297779372
 30
26.0
 40
65.0
 41
311.5760869565217
 46
25.99999999999999
 71
     5
 72
     1
  1
x4
  7
DEFAULT
 73
     1
 44
1.0
  0
MTEXT
  5
AB
330
1F
100
AcDbEntity
  8
DEFAULT
100
AcDbMText
 10
38540.51919651503
 20
5914.604041484408
 30
26.0
 40
45.0
 41
408.9130434782609
 46
18.97826086956522
 71
     5
 72
     1
  1
MD33
  7
DEFAULT
 73
     1
 44
1.0
  0
MTEXT
  5
AC
330
1F
100
AcDbEntity
  8
DEFAULT
100
AcDbMText
 10
38540.51919651503
 20
5973.104041484408
 30
26.0
 40
65.0
 41
311.5760869565217
 46
25.99999999999999
 71
     5
 72
     1
  1
x4
  7
DEFAULT
 73
     1
 44
1.0
  0
MTEXT
  5
AD
330
1F
100
AcDbEntity
  8
DEFAULT
100
AcDbMText
 10
37438.36971849286
 20
4792.89577586865
 30
26.0
 40
45.0
 41
389.8369565217391
 46
18.97826086956522
 71
     5
 72
     1
  1
KH55
  7
DEFAULT
 73
     1
 44
1.0
  0
MTEXT
  5
AE
330
1F
100
AcDbEntity
  8
DEFAULT
100
AcDbMText
 10
37438.36971849286
 20
4851.395775868652
 30
26.0
 40
65.0
 41
312.2826086956522
 46
27.41304347826087
 71
     5
 72
     1
  1
x3
  7
DEFAULT
 73
     1
 44
1.0
  0
MTEXT
  5
AF
330
1F
100
AcDbEntity
  8
DEFAULT
100
AcDbMText
 10
36158.6838340203
 20
5269.662892203442
 30
26.0
 40
45.0
 41
401.0869565217391
 46
19.71195652173913
 71
     5
 72
     1
  1
RG24
  7
DEFAULT
 73
     1
 44
1.0
  0
MTEXT
  5
B0
330
1F
100
AcDbEntity
  8
DEFAULT
100
AcDbMText
 10
36158.6838340203
 20
5328.162892203442
 30
26.0
 40
65.0
 41
311.5760869565217
 46
25.99999999999999
 71
     5
 72
     1
  1
x4
  7
DEFAULT
 73
     1
 44
1.0
  0
MTEXT
  5
B1
330
1F
100
AcDbEntity
  8
DEFAULT
100
AcDbMText
 10
40011.31684620684
 20
4409.455451803801
 30
26.0
 40
41.4559
 41
359.5848717391304
 46
16.58236
 71
     5
 72
     1
  1
AA22
  7
DEFAULT
 73
     1
 44
1.0
  0
MTEXT
  5
B2
330
1F
100
AcDbEntity
  8
DEFAULT
100
AcDbMText
 10
40011.35926359612
 20
4463.313710729205
 30
26.0
 40
60.2995
 41
291.0106304347826
 46
24.44751467391304
 71
     5
 72
     1
  1
x5
  7
DEFAULT
 73
     1
 44
1.0
  0
MTEXT
  5
B3
330
1F
100
AcDbEntity
  8
DEFAULT
100
AcDbMText
 10
34714.79563030202
 20
5128.923633698761
 30
26.0
 40
45.0
 41
379.5652173913044
 46
18.0
 71
     5
 72
     1
  1
TX22
  7
DEFAULT
 73
     1
 44
1.0
  0
MTEXT
  5
B4
330
1F
100
AcDbEntity
  8
DEFAULT
100
AcDbMText
 10
34714.79563030202
 20
5186.980250342689
 30
26.0
 40
65.0
 41
313.6956521739131
 46
26.35326086956521
 71
     5
 72
     1
  1
x5
  7
DEFAULT
 73
     1
 44
1.0
  0
MTEXT
  5
B5
330
1F
100
AcDbEntity
  8
DEFAULT
100
AcDbMText
 10
33456.82005516757
 20
948.9310515594095
 30
26.0
 40
18.0
 41
155.3478260869565
 46
7.591304347826085
 71
     5
 72
     1
  1
ZR99
  7
DEFAULT
 73
     1
 44
1.0
  0
MTEXT
  5
B6
330
1F
100
AcDbEntity
  8
DEFAULT
100
AcDbMText
 10
33456.82005516757
 20
970.3673407817832
 30
26.0
 40
24.0
 41
115.8260869565217
 46
9.730434782608693
 71
     5
 72
     1
  1
x5
  7
DEFAULT
 73
     1
 44
1.0
  0
MTEXT
  5
B7
330
1F
100
AcDbEntity
  8
DEFAULT
100
AcDbMText
 10
34412.74470013054
 20
2188.106103810638
 30
26.0
 40
28.0701
 41
211.7461891304348
 46
11.83825956521739
 71
     5
 72
     1
  1
HI78
  7
DEFAULT
 73
     1
 44
1.0
  0
MTEXT
  5
B8
330
1F
100
AcDbEntity
  8
DEFAULT
100
AcDbMText
 10
34412.74470013055
 20
2224.852424913989
 30
26.0
 40
40.8292
 41
196.1576782608696
 46
17.21927130434782
 71
     5
 72
     1
  1
x3
  7
DEFAULT
 73
     1
 44
1.0
  0
MTEXT
  5
B9
330
1F
100
AcDbEntity
  8
DEFAULT
100
AcDbMText
 10
41614.27185719971
 20
3576.899214742107
 30
26.0
 40
45.0
 41
422.6086956521739
 46
18.97826086956522
 71
     5
 72
     1
  1
RW97
  7
DEFAULT
 73
     1
 44
1.0
  0
MTEXT
  5
BA
330
1F
100
AcDbEntity
  8
DEFAULT
100
AcDbMText
 10
41614.27185719971
 20
3635.399214742107
 30
26.0
 40
65.0
 41
312.2826086956522
 46
27.41304347826087
 71
     5
 72
     1
  1
x3
  7
DEFAULT
 73
     1
 44
1.0
  0
MTEXT
  5
BB
330
1F
100
AcDbEntity
  8
DEFAULT
100
AcDbMText
 10
32726.282712659
 20
4462.015855075115
 30
26.0
 40
45.0
 41
394.7282608695652
 46
18.97826086956522
 71
     5
 72
     1
  1
NN34
  7
DEFAULT
 73
     1
 44
1.0
  0
MTEXT
  5
BC
330
1F
100
AcDbEntity
  8
DEFAULT
100
AcDbMText
 10
32726.282712659
 20
4520.072471719042
 30
26.0
 40
65.0
 41
313.6956521739131
 46
26.35326086956521
 71
     5
 72
     1
  1
x5
  7
DEFAULT
 73
     1
 44
1.0
  0
MTEXT
  5
BD
330
1F
100
AcDbEntity
  8
DEFAULT
100
AcDbMText
 10
40550.46475669938
 20
3810.594760490449
 30
26.0
 40
45.0
 41
386.9021739130435
 46
18.97826086956522
 71
     5
 72
     1
  1
RB02
  7
DEFAULT
 73
     1
 44
1.0
  0
MTEXT
  5
BE
330
1F
100
AcDbEntity
  8
DEFAULT
100
AcDbMText
 10
40550.46475669938
 20
3868.651377134378
 30
26.0
 40
65.0
 41
313.6956521739131
 46
26.35326086956521
 71
     5
 72
     1
  1
x5
  7
DEFAULT
 73
     1
 44
1.0
  0
MTEXT
  5
BF
330
1F
100
AcDbEntity
  8
DEFAULT
100
AcDbMText
 10
37452.43382184395
 20
1379.301476662282
 30
26.0
 40
30.8629
 41
266.3602456521739
 46
13.01609260869565
 71
     5
 72
     1
  1
RA48
  7
DEFAULT
 73
     1
 44
1.0
  0
MTEXT
  5
C0
330
1F
100
AcDbEntity
  8
DEFAULT
100
AcDbMText
 10
37452.43382184395
 20
1419.703822292332
 30
26.0
 40
44.8915
 41
214.6984782608696
 46
17.95659999999999
 71
     5
 72
     1
  1
x2
  7
DEFAULT
 73
     1
 44
1.0
  0
MTEXT
  5
C1
330
1F
100
AcDbEntity
  8
DEFAULT
100
AcDbMText
 10
33270.06470965757
 20
3269.864716319516
 30
26.0
 40
25.6304
 41
221.2014956521739
 46
10.80934260869565
 71
     5
 72
     1
  1
PR57
  7
DEFAULT
 73
     1
 44
1.0
  0
MTEXT
  5
C2
330
1F
100
AcDbEntity
  8
DEFAULT
100
AcDbMText
 10
33270.06470965757
 20
3303.417298194438
 30
26.0
 40
37.2806
 41
178.2985217391304
 46
14.91224
 71
     5
 72
     1
  1
x2
  7
DEFAULT
 73
     1
 44
1.0
  0
MTEXT
  5
C3
330
1F
100
AcDbEntity
  8
DEFAULT
100
AcDbMText
 10
37491.69733435686
 20
3854.991243011227
 30
26.0
 40
45.0
 41
398.6413043478261
 46
19.71195652173913
 71
     5
 72
     1
  1
OV27
  7
DEFAULT
 73
     1
 44
1.0
  0
MTEXT
  5
C4
330
1F
100
AcDbEntity
  8
DEFAULT
100
AcDbMText
 10
37491.69733435686
 20
3913.491243011226
 30
26.0
 40
65.0
 41
287.554347826087
 46
25.99999999999999
 71
     5
 72
     1
  1
x1
  7
DEFAULT
 73
     1
 44
1.0
  0
MTEXT
  5
C5
330
1F
100
AcDbEntity
  8
DEFAULT
100
AcDbMText
 10
32667.10261163661
 20
910.2325289412115
 30
26.0
 40
18.0
 41
161.2173913043478
 46
7.884782608695655
 71
     5
 72
     1
  1
DG35
  7
DEFAULT
 73
     1
 44
1.0
  0
MTEXT
  5
C6
330
1F
100
AcDbEntity
  8
DEFAULT
100
AcDbMText
 10
32667.1026116366
 20
931.8325289412114
 30
26.0
 40
24.0
 41
115.0434782608696
 46
9.599999999999998
 71
     5
 72
     1
  1
x4
  7
DEFAULT
 73
     1
 44
1.0
  0
MTEXT
  5
C7
330
1F
100
AcDbEntity
  8
DEFAULT
100
AcDbMText
 10
32918.79977140872
 20
1272.358119451846
 30
26.0
 40
23.3112
 41
201.4391739130435
 46
9.831245217391302
 71
     5
 72
     1
  1
DP68
  7
DEFAULT
 73
     1
 44
1.0
  0
MTEXT
  5
C8
330
1F
100
AcDbEntity
  8
DEFAULT
100
AcDbMText
 10
32918.79977140871
 20
1302.87460929511
 30
26.0
 40
33.9072
 41
162.1648695652174
 46
13.56288
 71
     5
 72
     1
  1
x2
  7
DEFAULT
 73
     1
 44
1.0
  0
MTEXT
  5
C9
330
1F
100
AcDbEntity
  8
DEFAULT
100
AcDbMText
 10
41469.39085435627
 20
2590.933802157825
 30
26.0
 40
45.0
 41
397.6630434782609
 46
19.71195652173913
 71
     5
 72
     1
  1
CD02
  7
DEFAULT
 73
     1
 44
1.0
  0
MTEXT
  5
CA
330
1F
100
AcDbEntity
  8
DEFAULT
100
AcDbMText
 10
41469.39085435627
 20
2649.433802157825
 30
26.0
 40
65.0
 41
311.5760869565217
 46
25.99999999999999
 71
     5
 72
     1
  1
x4
  7
DEFAULT
 73
     1
 44
1.0
  0
MTEXT
  5
CB
330
1F
100
AcDbEntity
  8
DEFAULT
100
AcDbMText
 10
40481.33269013678
 20
2680.812138935076
 30
26.0
 40
44.4791
 41
359.700547826087
 46
18.75857695652173
 71
     5
 72
     1
  1
ZX31
  7
DEFAULT
 73
     1
 44
1.0
  0
MTEXT
  5
CC
330
1F
100
AcDbEntity
  8
DEFAULT
100
AcDbMText
 10
40481.33269013678
 20
2739.039350671728
 30
26.0
 40
64.6969
 41
310.1231836956522
 46
25.87875999999999
 71
     5
 72
     1
  1
x4
  7
DEFAULT
 73
     1
 44
1.0
  0
MTEXT
  5
CD
330
1F
100
AcDbEntity
  8
DEFAULT
100
AcDbMText
 10
39751.37379859777
 20
2840.278440748771
 30
26.0
 40
45.0
 41
398.1521739130435
 46
19.71195652173913
 71
     5
 72
     1
  1
OS44
  7
DEFAULT
 73
     1
 44
1.0
  0
MTEXT
  5
CE
330
1F
100
AcDbEntity
  8
DEFAULT
100
AcDbMText
 10
39751.37379859777
 20
2898.335057392699
 30
26.0
 40
65.0
 41
313.6956521739131
 46
26.35326086956521
 71
     5
 72
     1
  1
x5
  7
DEFAULT
 73
     1
 44
1.0
  0
MTEXT
  5
CF
330
1F
100
AcDbEntity
  8
DEFAULT
100
AcDbMText
 10
35525.47568829767
 20
3140.822330972012
 30
26.0
 40
45.0
 41
382.0108695652174
 46
22.40217391304348
 71
     5
 72
     1
  1
QK31
  7
DEFAULT
 73
     1
 44
1.0
  0
MTEXT
  5
D0
330
1F
100
AcDbEntity
  8
DEFAULT
100
AcDbMText
 10
35525.47568829768
 20
3199.322330972011
 30
26.0
 40
65.0
 41
287.554347826087
 46
25.99999999999999
 71
     5
 72
     1
  1
x1
  7
DEFAULT
 73
     1
 44
1.0
  0
MTEXT
  5
D1
330
1F
100
AcDbEntity
  8
DEFAULT
100
AcDbMText
 10
38980.67738177238
 20
1895.673657106334
 30
26.0
 40
45.0
 41
413.3152173913044
 46
22.40217391304348
 71
     5
 72
     1
  1
QO89
  7
DEFAULT
 73
     1
 44
1.0
  0
MTEXT
  5
D2
330
1F
100
AcDbEntity
  8
DEFAULT
100
AcDbMText
 10
38980.67738177239
 20
1954.173657106334
 30
26.0
 40
65.0
 41
311.5760869565217
 46
25.99999999999999
 71
     5
 72
     1
  1
x4
  7
DEFAULT
 73
     1
 44
1.0
  0
MTEXT
  5
D3
330
1F
100
AcDbEntity
  8
DEFAULT
100
AcDbMText
 10
37900.88319490677
 20
2639.442761319668
 30
26.0
 40
45.0
 41
405.4891304347826
 46
22.40217391304348
 71
     5
 72
     1
  1
QN64
  7
DEFAULT
 73
     1
 44
1.0
  0
MTEXT
  5
D4
330
1F
100
AcDbEntity
  8
DEFAULT
100
AcDbMText
 10
37900.88319490677
 20
2697.942761319667
 30
26.0
 40
65.0
 41
312.2826086956522
 46
27.41304347826087
 71
     5
 72
     1
  1
x3
  7
DEFAULT
 73
     1
 44
1.0
  0
MTEXT
  5
D5
330
1F
100
AcDbEntity
  8
DEFAULT
100
AcDbMText
 10
37906.08758956181
 20
1760.853259553258
 30
26.0
 40
25.4022
 41
227.2392456521739
 46
10.71310173913043
 71
     5
 72
     1
  1
ME48
  7
DEFAULT
 73
     1
 44
1.0
  0
MTEXT
  5
D6
330
1F
100
AcDbEntity
  8
DEFAULT
100
AcDbMText
 10
37906.08758956181
 20
1794.107013994066
 30
26.0
 40
36.9486
 41
176.7106956521739
 46
14.77944
 71
     5
 72
     1
  1
x2
  7
DEFAULT
 73
     1
 44
1.0
  0
MTEXT
  5
D7
330
1F
100
AcDbEntity
  8
DEFAULT
100
AcDbMText
 10
36637.67899651145
 20
2201.064124254856
 30
26.0
 40
45.0
 41
396.1956521739131
 46
18.97826086956522
 71
     5
 72
     1
  1
VU92
  7
DEFAULT
 73
     1
 44
1.0
  0
MTEXT
  5
D8
330
1F
100
AcDbEntity
  8
DEFAULT
100
AcDbMText
 10
36637.67899651146
 20
2259.564124254857
 30
26.0
 40
65.0
 41
311.5760869565217
 46
25.99999999999999
 71
     5
 72
     1
  1
x4
  7
DEFAULT
 73
     1
 44
1.0
  0
MTEXT
  5
D9
330
1F
100
AcDbEntity
  8
DEFAULT
100
AcDbMText
 10
41360.84321011391
 20
1506.345226801613
 30
26.0
 40
45.0
 41
402.554347826087
 46
18.97826086956522
 71
     5
 72
     1
  1
KM66
  7
DEFAULT
 73
     1
 44
1.0
  0
MTEXT
  5
DA
330
1F
100
AcDbEntity
  8
DEFAULT
100
AcDbMText
 10
41360.84321011391
 20
1564.845226801613
 30
26.0
 40
65.0
 41
310.8695652173913
 46
25.99999999999999
 71
     5
 72
     1
  1
x2
  7
DEFAULT
 73
     1
 44
1.0
  0
MTEXT
  5
DB
330
1F
100
AcDbEntity
  8
DEFAULT
100
AcDbMText
 10
39934.44388360405
 20
1338.920164868909
 30
26.0
 40
45.0
 41
401.5760869565217
 46
18.97826086956522
 71
     5
 72
     1
  1
MP54
  7
DEFAULT
 73
     1
 44
1.0
  0
MTEXT
  5
DC
330
1F
100
AcDbEntity
  8
DEFAULT
100
AcDbMText
 10
39934.44388360405
 20
1396.976781512838
 30
26.0
 40
65.0
 41
313.6956521739131
 46
26.35326086956521
 71
     5
 72
     1
  1
x5
  7
DEFAULT
 73
     1
 44
1.0
  0
MTEXT
  5
DD
330
1F
100
AcDbEntity
  8
DEFAULT
100
AcDbMText
 10
34490.52434543145
 20
2948.453617949253
 30
26.0
 40
45.0
 41
330.1630434782609
 46
18.0
 71
     5
 72
     1
  1
IY44
  7
DEFAULT
 73
     1
 44
1.0
  0
MTEXT
  5
DE
330
1F
100
AcDbEntity
  8
DEFAULT
100
AcDbMText
 10
34490.52434543145
 20
3006.510234593182
 30
26.0
 40
65.0
 41
313.6956521739131
 46
26.35326086956521
 71
     5
 72
     1
  1
x5
  7
DEFAULT
 73
     1
 44
1.0
  0
MTEXT
  5
DF
330
1F
100
AcDbEntity
  8
DEFAULT
100
AcDbMText
 10
33684.13486042666
 20
2893.802972536441
 30
26.0
 40
39.7259
 41
337.2383467391305
 46
16.75396652173913
 71
     5
 72
     1
  1
BV16
  7
DEFAULT
 73
     1
 44
1.0
  0
MTEXT
  5
E0
330
1F
100
AcDbEntity
  8
DEFAULT
100
AcDbMText
 10
33684.13486042666
 20
2945.807757832861
 30
26.0
 40
57.7831
 41
255.6274097826087
 46
23.11323999999998
 71
     5
 72
     1
  1
x1
  7
DEFAULT
 73
     1
 44
1.0
  0
MTEXT
  5
E1
330
1F
100
AcDbEntity
  8
DEFAULT
100
AcDbMText
 10
35685.86152445765
 20
2058.073779328344
 30
26.0
 40
45.0
 41
373.6956521739131
 46
18.97826086956522
 71
     5
 72
     1
  1
EZ67
  7
DEFAULT
 73
     1
 44
1.0
  0
MTEXT
  5
E2
330
1F
100
AcDbEntity
  8
DEFAULT
100
AcDbMText
 10
35685.86152445765
 20
2116.573779328343
 30
26.0
 40
65.0
 41
310.8695652173913
 46
25.99999999999999
 71
     5
 72
     1
  1
x2
  7
DEFAULT
 73
     1
 44
1.0
  0
MTEXT
  5
E3
330
1F
100
AcDbEntity
  8
DEFAULT
100
AcDbMText
 10
34617.3347151072
 20
1350.320928036031
 30
26.0
 40
45.0
 41
366.3586956521739
 46
18.0
 71
     5
 72
     1
  1
PL22
  7
DEFAULT
 73
     1
 44
1.0
  0
MTEXT
  5
E4
330
1F
100
AcDbEntity
  8
DEFAULT
100
AcDbMText
 10
34617.3347151072
 20
1408.820928036031
 30
26.0
 40
65.0
 41
310.8695652173913
 46
25.99999999999999
 71
     5
 72
     1
  1
x2
  7
DEFAULT
 73
     1
 44
1.0
  0
MTEXT
  5
E5
330
1F
100
AcDbEntity
  8
DEFAULT
100
AcDbMText
 10
33814.02089035949
 20
1433.797202461095
 30
26.0
 40
34.7379
 41
332.6531510869566
 46
14.65033173913044
 71
     5
 72
     1
  1
WU56
  7
DEFAULT
 73
     1
 44
1.0
  0
MTEXT
  5
E6
330
1F
100
AcDbEntity
  8
DEFAULT
100
AcDbMText
 10
33814.02089035949
 20
1478.927579817071
 30
26.0
 40
50.5278
 41
243.8515565217391
 46
20.48572760869564
 71
     5
 72
     1
  1
x5
  7
DEFAULT
 73
     1
 44
1.0
  0
MTEXT
  5
E7
330
1F
100
AcDbEntity
  8
DEFAULT
100
AcDbMText
 10
32804.19690060326
 20
1974.78482551092
 30
26.0
 40
45.0
 41
398.1521739130435
 46
19.71195652173913
 71
     5
 72
     1
  1
GS26
  7
DEFAULT
 73
     1
 44
1.0
  0
MTEXT
  5
E8
330
1F
100
AcDbEntity
  8
DEFAULT
100
AcDbMText
 10
32804.19690060326
 20
2032.841442154849
 30
26.0
 40
65.0
 41
313.6956521739131
 46
26.35326086956521
 71
     5
 72
     1
  1
x5
  7
DEFAULT
 73
     1
 44
1.0
  0
MTEXT
  5
E9
330
1F
100
AcDbEntity
  8
DEFAULT
100
AcDbMText
 10
32459.33864379621
 20
3006.975620733529
 30
26.0
 40
45.0
 41
388.8586956521739
 46
18.97826086956522
 71
     5
 72
     1
  1
LM78
  7
DEFAULT
 73
     1
 44
1.0
  0
MTEXT
  5
EA
330
1F
100
AcDbEntity
  8
DEFAULT
100
AcDbMText
 10
32459.33864379621
 20
3065.475620733529
 30
26.0
 40
65.0
 41
310.8695652173913
 46
25.99999999999999
 71
     5
 72
     1
  1
x2
  7
DEFAULT
 73
     1
 44
1.0
  0
MTEXT
  5
EB
330
1F
100
AcDbEntity
  8
DEFAULT
100
AcDbMText
 10
41549.35580401434
 20
396.1627626663482
 30
26.0
 40
45.0
 41
380.054347826087
 46
19.71195652173913
 71
     5
 72
     1
  1
JO14
  7
DEFAULT
 73
     1
 44
1.0
  0
MTEXT
  5
EC
330
1F
100
AcDbEntity
  8
DEFAULT
100
AcDbMText
 10
41549.35580401434
 20
454.2193793102773
 30
26.0
 40
65.0
 41
313.6956521739131
 46
26.35326086956521
 71
     5
 72
     1
  1
x5
  7
DEFAULT
 73
     1
 44
1.0
  0
MTEXT
  5
ED
330
1F
100
AcDbEntity
  8
DEFAULT
100
AcDbMText
 10
40703.71011130646
 20
470.2573245417775
 30
26.0
 40
45.0
 41
395.2173913043478
 46
19.71195652173913
 71
     5
 72
     1
  1
HC88
  7
DEFAULT
 73
     1
 44
1.0
  0
MTEXT
  5
EE
330
1F
100
AcDbEntity
  8
DEFAULT
100
AcDbMText
 10
40703.71011130645
 20
528.7573245417775
 30
26.0
 40
65.0
 41
310.8695652173913
 46
25.99999999999999
 71
     5
 72
     1
  1
x2
  7
DEFAULT
 73
     1
 44
1.0
  0
MTEXT
  5
EF
330
1F
100
AcDbEntity
  8
DEFAULT
100
AcDbMText
 10
39878.27501238451
 20
126.550163151247
 30
26.0
 40
45.0
 41
388.3695652173913
 46
18.97826086956522
 71
     5
 72
     1
  1
KD54
  7
DEFAULT
 73
     1
 44
1.0
  0
MTEXT
  5
F0
330
1F
100
AcDbEntity
  8
DEFAULT
100
AcDbMText
 10
39878.27501238451
 20
185.050163151247
 30
26.0
 40
65.0
 41
311.5760869565217
 46
25.99999999999999
 71
     5
 72
     1
  1
x4
  7
DEFAULT
 73
     1
 44
1.0
  0
MTEXT
  5
F1
330
1F
100
AcDbEntity
  8
DEFAULT
100
AcDbMText
 10
38729.54389389392
 20
543.217859957826
 30
26.0
 40
45.0
 41
373.2065217391304
 46
18.97826086956522
 71
     5
 72
     1
  1
JD64
  7
DEFAULT
 73
     1
 44
1.0
  0
MTEXT
  5
F2
330
1F
100
AcDbEntity
  8
DEFAULT
100
AcDbMText
 10
38729.54389389392
 20
601.717859957826
 30
26.0
 40
65.0
 41
311.5760869565217
 46
25.99999999999999
 71
     5
 72
     1
  1
x4
  7
DEFAULT
 73
     1
 44
1.0
  0
MTEXT
  5
F3
330
1F
100
AcDbEntity
  8
DEFAULT
100
AcDbMText
 10
36987.08023756041
 20
359.9756168016663
 30
26.0
 40
45.0
 41
381.5217391304348
 46
18.97826086956522
 71
     5
 72
     1
  1
EK29
  7
DEFAULT
 73
     1
 44
1.0
  0
MTEXT
  5
F4
330
1F
100
AcDbEntity
  8
DEFAULT
100
AcDbMText
 10
36987.08023756041
 20
418.4756168016663
 30
26.0
 40
65.0
 41
312.2826086956522
 46
27.41304347826087
 71
     5
 72
     1
  1
x3
  7
DEFAULT
 73
     1
 44
1.0
  0
MTEXT
  5
F5
330
1F
100
AcDbEntity
  8
DEFAULT
100
AcDbMText
 10
35545.48194222877
 20
216.6090048410219
 30
26.0
 40
45.0
 41
360.0
 46
18.0
 71
     5
 72
     1
  1
AL11
  7
DEFAULT
 73
     1
 44
1.0
  0
MTEXT
  5
F6
330
1F
100
AcDbEntity
  8
DEFAULT
100
AcDbMText
 10
35545.52798588497
 20
274.665621484951
 30
26.0
 40
65.0
 41
313.6956521739131
 46
26.35326086956521
 71
     5
 72
     1
  1
x5
  7
DEFAULT
 73
     1
 44
1.0
  0
MTEXT
  5
F7
330
1F
100
AcDbEntity
  8
DEFAULT
100
AcDbMText
 10
34438.9227103176
 20
124.5212726004738
 30
26.0
 40
45.0
 41
374.1847826086956
 46
18.0
 71
     5
 72
     1
  1
AP71
  7
DEFAULT
 73
     1
 44
1.0
  0
MTEXT
  5
F8
330
1F
100
AcDbEntity
  8
DEFAULT
100
AcDbMText
 10
34438.9687539738
 20
183.0212726004738
 30
26.0
 40
65.0
 41
310.8695652173913
 46
25.99999999999999
 71
     5
 72
     1
  1
x2
  7
DEFAULT
 73
     1
 44
1.0
  0
MTEXT
  5
F9
330
1F
100
AcDbEntity
  8
DEFAULT
100
AcDbMText
 10
33140.06234644221
 20
68.70672193234236
 30
26.0
 40
18.0
 41
158.0869565217391
 46
7.884782608695655
 71
     5
 72
     1
  1
PG30
  7
DEFAULT
 73
     1
 44
1.0
  0
MTEXT
  5
FA
330
1F
100
AcDbEntity
  8
DEFAULT
100
AcDbMText
 10
33140.06234644223
 20
91.82300220864445
 30
26.0
 40
25.6848
 41
113.6273217391304
 46
10.27391999999999
 71
     5
 72
     1
  1
x1
  7
DEFAULT
 73
     1
 44
1.0
  0
MTEXT
  5
FB
330
1F
100
AcDbEntity
  8
DEFAULT
100
AcDbMText
 10
32183.9037357618
 20
1014.31026397593
 30
26.0
 40
18.0
 41
129.1304347826087
 46
7.199999999999999
 71
     5
 72
     1
  1
IZ14
  7
DEFAULT
 73
     1
 44
1.0
  0
MTEXT
  5
FC
330
1F
100
AcDbEntity
  8
DEFAULT
100
AcDbMText
 10
32183.9037357618
 20
1037.44848536887
 30
26.0
 40
25.7091
 41
123.2360119565217
 46
10.28364
 71
     5
 72
     1
  1
x4
  7
DEFAULT
 73
     1
 44
1.0
  0
POLYLINE
  5
FD
330
1F
100
AcDbEntity
  8
DEFAULT
100
AcDb2dPolyline
 66
     1
 10
0.0
 20
0.0
 30
21.0
 70
     1
  0
VERTEX
  5
FE
330
FD
100
AcDbEntity
  8
DEFAULT
100
AcDbVertex
100
AcDb2dVertex
 10
39158.56019709791
 20
1459.508264223626
 30
21.0
  0
VERTEX
  5
FF
330
FD
100
AcDbEntity
  8
DEFAULT
100
AcDbVertex
100
AcDb2dVertex
 10
39103.56268925853
 20
1340.070978726701
 30
21.0
  0
VERTEX
  5
100
330
FD
100
AcDbEntity
  8
DEFAULT
100
AcDbVertex
100
AcDb2dVertex
 10
39247.24775914429
 20
1340.070978726701
 30
21.0
  0
SEQEND
  5
101
330
FD
100
AcDbEntity
  8
DEFAULT
  0
CIRCLE
  5
102
330
1F
100
AcDbEntity
  8
DEFAULT
100
AcDbCircle
 10
-41032.43231433354
 20
303.645190383634
 30
-21.0
 40
16.57811054914055
210
0.0
220
0.0
230
-1.0
  0
POLYLINE
  5
103
330
1F
100
AcDbEntity
  8
DEFAULT
100
AcDb2dPolyline
 66
     1
 10
0.0
 20
0.0
 30
21.0
 70
     1
  0
VERTEX
  5
104
330
103
100
AcDbEntity
  8
DEFAULT
100
AcDbVertex
100
AcDb2dVertex
 10
41015.50355245082
 20
366.2286944057059
 30
21.0
  0
VERTEX
  5
105
330
103
100
AcDbEntity
  8
DEFAULT
100
AcDbVertex
100
AcDb2dVertex
 10
41015.50355245082
 20
0.0
 30
21.0
  0
VERTEX
  5
106
330
103
100
AcDbEntity
  8
DEFAULT
100
AcDbVertex
100
AcDb2dVertex
 10
41151.24033172195
 20
0.0
 30
21.0
  0
VERTEX
  5
107
330
103
100
AcDbEntity
  8
DEFAULT
100
AcDbVertex
100
AcDb2dVertex
 10
41151.24033172195
 20
366.2286944057059
 30
21.0
  0
SEQEND
  5
108
330
103
100
AcDbEntity
  8
DEFAULT
  0
POLYLINE
  5
109
330
1F
100
AcDbEntity
  8
DEFAULT
100
AcDb2dPolyline
 66
     1
 10
0.0
 20
0.0
 30
21.0
 70
     1
  0
VERTEX
  5
10A
330
109
100
AcDbEntity
  8
DEFAULT
100
AcDbVertex
100
AcDb2dVertex
 10
41105.56429180056
 20
0.910211176012498
 30
21.0
  0
VERTEX
  5
10B
330
109
100
AcDbEntity
  8
DEFAULT
100
AcDbVertex
100
AcDb2dVertex
 10
41019.8325160997
 20
0.9102111760125182
 30
21.0
  0
VERTEX
  5
10C
330
109
100
AcDbEntity
  8
DEFAULT
100
AcDbVertex
100
AcDb2dVertex
 10
41019.8325160997
 20
20.46773708892755
 30
21.0
  0
VERTEX
  5
10D
330
109
100
AcDbEntity
  8
DEFAULT
100
AcDbVertex
100
AcDb2dVertex
 10
41105.56429180056
 20
20.46773708892753
 30
21.0
  0
SEQEND
  5
10E
330
109
100
AcDbEntity
  8
DEFAULT
  0
POLYLINE
  5
10F
330
1F
100
AcDbEntity
  8
DEFAULT
100
AcDb2dPolyline
 66
     1
 10
0.0
 20
0.0
 30
21.0
 70
     1
  0
VERTEX
  5
110
330
10F
100
AcDbEntity
  8
DEFAULT
100
AcDbVertex
100
AcDb2dVertex
 10
38053.56268925853
 20
4647.555693041558
 30
21.0
  0
VERTEX
  5
111
330
10F
100
AcDbEntity
  8
DEFAULT
100
AcDbVertex
100
AcDb2dVertex
 10
38053.56268925853
 20
4493.274557066333
 30
21.0
  0
VERTEX
  5
112
330
10F
100
AcDbEntity
  8
DEFAULT
100
AcDbVertex
100
AcDb2dVertex
 10
38680.2110285776
 20
4493.274557066333
 30
21.0
  0
VERTEX
  5
113
330
10F
100
AcDbEntity
  8
DEFAULT
100
AcDbVertex
100
AcDb2dVertex
 10
38680.2110285776
 20
4647.555693041558
 30
21.0
  0
SEQEND
  5
114
330
10F
100
AcDbEntity
  8
DEFAULT
  0
CIRCLE
  5
115
330
1F
100
AcDbEntity
  8
DEFAULT
100
AcDbCircle
 10
-36524.10789894573
 20
4737.273420284292
 30
-21.0
 40
13.07791225116671
210
0.0
220
0.0
230
-1.0
  0
POLYLINE
  5
116
330
1F
100
AcDbEntity
  8
DEFAULT
100
AcDb2dPolyline
 66
     1
 10
0.0
 20
0.0
 30
21.0
 70
     1
  0
VERTEX
  5
117
330
116
100
AcDbEntity
  8
DEFAULT
100
AcDbVertex
100
AcDb2dVertex
 10
36499.35939560765
 20
4781.993718739419
 30
21.0
  0
VERTEX
  5
118
330
116
100
AcDbEntity
  8
DEFAULT
100
AcDbVertex
100
AcDb2dVertex
 10
36303.56268925853
 20
4543.82859738123
 30
21.0
  0
VERTEX
  5
119
330
116
100
AcDbEntity
  8
DEFAULT
100
AcDbVertex
100
AcDb2dVertex
 10
36801.15846201669
 20
4543.82859738123
 30
21.0
  0
SEQEND
  5
11A
330
116
100
AcDbEntity
  8
DEFAULT
  0
POLYLINE
  5
11B
330
1F
100
AcDbEntity
  8
DEFAULT
100
AcDb2dPolyline
 66
     1
 10
0.0
 20
0.0
 30
21.0
 70
     1
  0
VERTEX
  5
11C
330
11B
100
AcDbEntity
  8
DEFAULT
100
AcDbVertex
100
AcDb2dVertex
 10
36664.87799876414
 20
4642.221097546343
 30
21.0
  0
VERTEX
  5
11D
330
11B
100
AcDbEntity
  8
DEFAULT
100
AcDbVertex
100
AcDb2dVertex
 10
36679.2542177756
 20
4574.798972289356
 30
21.0
  0
VERTEX
  5
11E
330
11B
100
AcDbEntity
  8
DEFAULT
100
AcDbVertex
100
AcDb2dVertex
 10
36652.28536767281
 20
4574.798972289356
 30
21.0
  0
SEQEND
  5
11F
330
11B
100
AcDbEntity
  8
DEFAULT
  0
CIRCLE
  5
120
330
1F
100
AcDbEntity
  8
DEFAULT
100
AcDbCircle
 10
32213.26778013417
 20
2285.839203684176
 30
21.0
 40
109.7050908756355
  0
CIRCLE
  5
121
330
1F
100
AcDbEntity
  8
DEFAULT
100
AcDbCircle
 10
33271.27696354209
 20
2779.418999859601
 30
21.0
 40
117.7142742835495
  0
CIRCLE
  5
122
330
1F
100
AcDbEntity
  8
DEFAULT
100
AcDbCircle
 10
38842.17786873885
 20
1321.87687270929
 30
21.0
 40
88.61517948029359
  0
POLYLINE
  5
123
330
1F
100
AcDbEntity
  8
DEFAULT
100
AcDb2dPolyline
 66
     1
 10
0.0
 20
0.0
 30
21.0
 70
     1
  0
VERTEX
  5
124
330
123
100
AcDbEntity
  8
DEFAULT
100
AcDbVertex
100
AcDb2dVertex
 10
40853.56268925853
 20
5500.960866010273
 30
21.0
  0
VERTEX
  5
125
330
123
100
AcDbEntity
  8
DEFAULT
100
AcDbVertex
100
AcDb2dVertex
 10
40853.56268925853
 20
4917.699172781291
 30
21.0
  0
VERTEX
  5
126
330
123
100
AcDbEntity
  8
DEFAULT
100
AcDbVertex
100
AcDb2dVertex
 10
41052.02271921109
 20
4917.699172781291
 30
21.0
  0
VERTEX
  5
127
330
123
100
AcDbEntity
  8
DEFAULT
100
AcDbVertex
100
AcDb2dVertex
 10
41052.02271921109
 20
5500.960866010273
 30
21.0
  0
SEQEND
  5
128
330
123
100
AcDbEntity
  8
DEFAULT
  0
POLYLINE
  5
129
330
1F
100
AcDbEntity
  8
DEFAULT
100
AcDb2dPolyline
 66
     1
 10
0.0
 20
0.0
 30
21.0
 70
     1
  0
VERTEX
  5
12A
330
129
100
AcDbEntity
  8
DEFAULT
100
AcDbVertex
100
AcDb2dVertex
 10
40975.95250138498
 20
5500.94167569848
 30
21.0
  0
VERTEX
  5
12B
330
129
100
AcDbEntity
  8
DEFAULT
100
AcDbVertex
100
AcDb2dVertex
 10
41028.90773764452
 20
5415.722391852429
 30
21.0
  0
VERTEX
  5
12C
330
129
100
AcDbEntity
  8
DEFAULT
100
AcDbVertex
100
AcDb2dVertex
 10
40911.38214580983
 20
5415.722391852429
 30
21.0
  0
SEQEND
  5
12D
330
129
100
AcDbEntity
  8
DEFAULT
  0
POLYLINE
  5
12E
330
1F
100
AcDbEntity
  8
DEFAULT
100
AcDb2dPolyline
 66
     1
 10
0.0
 20
0.0
 30
21.0
 70
     1
  0
VERTEX
  5
12F
330
12E
100
AcDbEntity
  8
DEFAULT
100
AcDbVertex
100
AcDb2dVertex
 10
41000.6384756646
 20
5101.942284400107
 30
21.0
  0
VERTEX
  5
130
330
12E
100
AcDbEntity
  8
DEFAULT
100
AcDbVertex
100
AcDb2dVertex
 10
41008.82790531784
 20
5061.576511160364
 30
21.0
  0
VERTEX
  5
131
330
12E
100
AcDbEntity
  8
DEFAULT
100
AcDbVertex
100
AcDb2dVertex
 10
40992.68159602195
 20
5061.576511160364
 30
21.0
  0
SEQEND
  5
132
330
12E
100
AcDbEntity
  8
DEFAULT
  0
POLYLINE
  5
133
330
1F
100
AcDbEntity
  8
DEFAULT
100
AcDb2dPolyline
 66
     1
 10
0.0
 20
0.0
 30
21.0
 70
     1
  0
VERTEX
  5
134
330
133
100
AcDbEntity
  8
DEFAULT
100
AcDbVertex
100
AcDb2dVertex
 10
39453.56268925853
 20
3989.750960730639
 30
21.0
  0
VERTEX
  5
135
330
133
100
AcDbEntity
  8
DEFAULT
100
AcDbVertex
100
AcDb2dVertex
 10
39453.56268925853
 20
3605.535647082028
 30
21.0
  0
VERTEX
  5
136
330
133
100
AcDbEntity
  8
DEFAULT
100
AcDbVertex
100
AcDb2dVertex
 10
39872.17195826702
 20
3605.535647082028
 30
21.0
  0
VERTEX
  5
137
330
133
100
AcDbEntity
  8
DEFAULT
100
AcDbVertex
100
AcDb2dVertex
 10
39872.17195826702
 20
3989.750960730639
 30
21.0
  0
SEQEND
  5
138
330
133
100
AcDbEntity
  8
DEFAULT
  0
CIRCLE
  5
139
330
1F
100
AcDbEntity
  8
DEFAULT
100
AcDbCircle
 10
-40359.72489606247
 20
2062.380272344621
 30
-21.0
 40
2.85569924122683
210
0.0
220
0.0
230
-1.0
  0
POLYLINE
  5
13A
330
1F
100
AcDbEntity
  8
DEFAULT
100
AcDb2dPolyline
 66
     1
 10
0.0
 20
0.0
 30
21.0
 70
     1
  0
VERTEX
  5
13B
330
13A
100
AcDbEntity
  8
DEFAULT
100
AcDbVertex
100
AcDb2dVertex
 10
40153.56268925853
 20
2078.010787646623
 30
21.0
  0
VERTEX
  5
13C
330
13A
100
AcDbEntity
  8
DEFAULT
100
AcDbVertex
100
AcDb2dVertex
 10
40153.56268925853
 20
1845.351613730531
 30
21.0
  0
VERTEX
  5
13D
330
13A
100
AcDbEntity
  8
DEFAULT
100
AcDbVertex
100
AcDb2dVertex
 10
40398.84273466478
 20
1845.351613730531
 30
21.0
  0
VERTEX
  5
13E
330
13A
100
AcDbEntity
  8
DEFAULT
100
AcDbVertex
100
AcDb2dVertex
 10
40398.84273466478
 20
2078.010787646623
 30
21.0
  0
SEQEND
  5
13F
330
13A
100
AcDbEntity
  8
DEFAULT
  0
CIRCLE
  5
140
330
1F
100
AcDbEntity
  8
DEFAULT
100
AcDbCircle
 10
35032.14402588088
 20
62.33982214788588
 30
21.0
 40
62.33982214789285
  0
CIRCLE
  5
141
330
1F
100
AcDbEntity
  8
DEFAULT
100
AcDbCircle
 10
-39696.29061550593
 20
4795.736188041796
 30
-21.0
 40
14.75451260555565
210
0.0
220
0.0
230
-1.0
  0
POLYLINE
  5
142
330
1F
100
AcDbEntity
  8
DEFAULT
100
AcDb2dPolyline
 66
     1
 10
0.0
 20
0.0
 30
21.0
 70
     1
  0
VERTEX
  5
143
330
142
100
AcDbEntity
  8
DEFAULT
100
AcDbVertex
100
AcDb2dVertex
 10
39453.56268925853
 20
4870.353378832339
 30
21.0
  0
VERTEX
  5
144
330
142
100
AcDbEntity
  8
DEFAULT
100
AcDbVertex
100
AcDb2dVertex
 10
39453.56268925853
 20
4750.647701825676
 30
21.0
  0
VERTEX
  5
145
330
142
100
AcDbEntity
  8
DEFAULT
100
AcDbVertex
100
AcDb2dVertex
 10
40402.21299707322
 20
4750.647701825676
 30
21.0
  0
VERTEX
  5
146
330
142
100
AcDbEntity
  8
DEFAULT
100
AcDbVertex
100
AcDb2dVertex
 10
40402.21299707322
 20
4870.353378832339
 30
21.0
  0
SEQEND
  5
147
330
142
100
AcDbEntity
  8
DEFAULT
  0
POLYLINE
  5
148
330
1F
100
AcDbEntity
  8
DEFAULT
100
AcDb2dPolyline
 66
     1
 10
0.0
 20
0.0
 30
21.0
 70
     1
  0
VERTEX
  5
149
330
148
100
AcDbEntity
  8
DEFAULT
100
AcDbVertex
100
AcDb2dVertex
 10
40336.97661138066
 20
4757.463863592489
 30
21.0
  0
VERTEX
  5
14A
330
148
100
AcDbEntity
  8
DEFAULT
100
AcDbVertex
100
AcDb2dVertex
 10
40305.69793228607
 20
4757.463863592489
 30
21.0
  0
VERTEX
  5
14B
330
148
100
AcDbEntity
  8
DEFAULT
100
AcDbVertex
100
AcDb2dVertex
 10
40305.69793228607
 20
4775.476369999589
 30
21.0
  0
VERTEX
  5
14C
330
148
100
AcDbEntity
  8
DEFAULT
100
AcDbVertex
100
AcDb2dVertex
 10
40336.97661138066
 20
4775.476369999589
 30
21.0
  0
SEQEND
  5
14D
330
148
100
AcDbEntity
  8
DEFAULT
  0
CIRCLE
  5
14E
330
1F
100
AcDbEntity
  8
DEFAULT
100
AcDbCircle
 10
-37078.66678974495
 20
5549.892077688553
 30
-21.0
 40
3.343045185501978
210
0.0
220
0.0
230
-1.0
  0
POLYLINE
  5
14F
330
1F
100
AcDbEntity
  8
DEFAULT
100
AcDb2dPolyline
 66
     1
 10
0.0
 20
0.0
 30
21.0
 70
     1
  0
VERTEX
  5
150
330
14F
100
AcDbEntity
  8
DEFAULT
100
AcDbVertex
100
AcDb2dVertex
 10
37003.56268925853
 20
5554.556428708181
 30
21.0
  0
VERTEX
  5
151
330
14F
100
AcDbEntity
  8
DEFAULT
100
AcDbVertex
100
AcDb2dVertex
 10
37003.56268925853
 20
5412.869638762279
 30
21.0
  0
VERTEX
  5
152
330
14F
100
AcDbEntity
  8
DEFAULT
100
AcDbVertex
100
AcDb2dVertex
 10
37465.89697707659
 20
5412.869638762279
 30
21.0
  0
VERTEX
  5
153
330
14F
100
AcDbEntity
  8
DEFAULT
100
AcDbVertex
100
AcDb2dVertex
 10
37465.89697707659
 20
5554.556428708181
 30
21.0
  0
SEQEND
  5
154
330
14F
100
AcDbEntity
  8
DEFAULT
  0
CIRCLE
  5
155
330
1F
100
AcDbEntity
  8
DEFAULT
100
AcDbCircle
 10
-36743.00823567546
 20
6994.731711886307
 30
-21.0
 40
55.4530600670987
210
0.0
220
0.0
230
-1.0
  0
POLYLINE
  5
156
330
1F
100
AcDbEntity
  8
DEFAULT
100
AcDb2dPolyline
 66
     1
 10
0.0
 20
0.0
 30
21.0
 70
     1
  0
VERTEX
  5
157
330
156
100
AcDbEntity
  8
DEFAULT
100
AcDbVertex
100
AcDb2dVertex
 10
36653.56268925853
 20
7098.106677556991
 30
21.0
  0
VERTEX
  5
158
330
156
100
AcDbEntity
  8
DEFAULT
100
AcDbVertex
100
AcDb2dVertex
 10
36653.56268925853
 20
6241.922287274538
 30
21.0
  0
VERTEX
  5
159
330
156
100
AcDbEntity
  8
DEFAULT
100
AcDbVertex
100
AcDb2dVertex
 10
36880.45801427126
 20
6241.922287274538
 30
21.0
  0
VERTEX
  5
15A
330
156
100
AcDbEntity
  8
DEFAULT
100
AcDbVertex
100
AcDb2dVertex
 10
36880.45801427126
 20
7098.106677556991
 30
21.0
  0
SEQEND
  5
15B
330
156
100
AcDbEntity
  8
DEFAULT
  0
POLYLINE
  5
15C
330
1F
100
AcDbEntity
  8
DEFAULT
100
AcDb2dPolyline
 66
     1
 10
0.0
 20
0.0
 30
21.0
 70
     1
  0
VERTEX
  5
15D
330
15C
100
AcDbEntity
  8
DEFAULT
100
AcDbVertex
100
AcDb2dVertex
 10
36818.4484416517
 20
6854.634328204533
 30
21.0
  0
VERTEX
  5
15E
330
15C
100
AcDbEntity
  8
DEFAULT
100
AcDbVertex
100
AcDb2dVertex
 10
36838.30845402954
 20
6834.806241872817
 30
21.0
  0
VERTEX
  5
15F
330
15C
100
AcDbEntity
  8
DEFAULT
100
AcDbVertex
100
AcDb2dVertex
 10
36803.79100177986
 20
6834.806241872817
 30
21.0
  0
SEQEND
  5
160
330
15C
100
AcDbEntity
  8
DEFAULT
  0
CIRCLE
  5
161
330
1F
100
AcDbEntity
  8
DEFAULT
100
AcDbCircle
 10
-34936.57761235693
 20
2120.098111681412
 30
-21.0
 40
7.093849689350463
210
0.0
220
0.0
230
-1.0
  0
POLYLINE
  5
162
330
1F
100
AcDbEntity
  8
DEFAULT
100
AcDb2dPolyline
 66
     1
 10
0.0
 20
0.0
 30
21.0
 70
     1
  0
VERTEX
  5
163
330
162
100
AcDbEntity
  8
DEFAULT
100
AcDbVertex
100
AcDb2dVertex
 10
35039.94816983706
 20
2475.296369283833
 30
21.0
  0
VERTEX
  5
164
330
162
100
AcDbEntity
  8
DEFAULT
100
AcDbVertex
100
AcDb2dVertex
 10
34903.56268925853
 20
2109.958514992921
 30
21.0
  0
VERTEX
  5
165
330
162
100
AcDbEntity
  8
DEFAULT
100
AcDbVertex
100
AcDb2dVertex
 10
35149.20699904993
 20
2109.958514992921
 30
21.0
  0
SEQEND
  5
166
330
162
100
AcDbEntity
  8
DEFAULT
  0
POLYLINE
  5
167
330
1F
100
AcDbEntity
  8
DEFAULT
100
AcDb2dPolyline
 66
     1
 10
0.0
 20
0.0
 30
21.0
 70
     1
  0
VERTEX
  5
168
330
167
100
AcDbEntity
  8
DEFAULT
100
AcDbVertex
100
AcDb2dVertex
 10
35037.94146925116
 20
2450.599861787034
 30
21.0
  0
VERTEX
  5
169
330
167
100
AcDbEntity
  8
DEFAULT
100
AcDbVertex
100
AcDb2dVertex
 10
35050.76959254201
 20
2374.563566706063
 30
21.0
  0
VERTEX
  5
16A
330
167
100
AcDbEntity
  8
DEFAULT
100
AcDbVertex
100
AcDb2dVertex
 10
35020.35507450962
 20
2374.563566706063
 30
21.0
  0
SEQEND
  5
16B
330
167
100
AcDbEntity
  8
DEFAULT
  0
CIRCLE
  5
16C
330
1F
100
AcDbEntity
  8
DEFAULT
100
AcDbCircle
 10
-36584.1860083996
 20
3253.393190338589
 30
-21.0
 40
4.84553769910417
210
0.0
220
0.0
230
-1.0
  0
POLYLINE
  5
16D
330
1F
100
AcDbEntity
  8
DEFAULT
100
AcDb2dPolyline
 66
     1
 10
0.0
 20
0.0
 30
21.0
 70
     1
  0
VERTEX
  5
16E
330
16D
100
AcDbEntity
  8
DEFAULT
100
AcDbVertex
100
AcDb2dVertex
 10
36586.29843242012
 20
3281.903596497893
 30
21.0
  0
VERTEX
  5
16F
330
16D
100
AcDbEntity
  8
DEFAULT
100
AcDbVertex
100
AcDb2dVertex
 10
36303.56268925853
 20
2925.962573877825
 30
21.0
  0
VERTEX
  5
170
330
16D
100
AcDbEntity
  8
DEFAULT
100
AcDbVertex
100
AcDb2dVertex
 10
36878.57071106423
 20
2925.962573877825
 30
21.0
  0
SEQEND
  5
171
330
16D
100
AcDbEntity
  8
DEFAULT
  0
POLYLINE
  5
172
330
1F
100
AcDbEntity
  8
DEFAULT
100
AcDb2dPolyline
 66
     1
 10
0.0
 20
0.0
 30
21.0
 70
     1
  0
VERTEX
  5
173
330
172
100
AcDbEntity
  8
DEFAULT
100
AcDbVertex
100
AcDb2dVertex
 10
36787.280168835
 20
3035.135797015703
 30
21.0
  0
VERTEX
  5
174
330
172
100
AcDbEntity
  8
DEFAULT
100
AcDbVertex
100
AcDb2dVertex
 10
36791.46138059697
 20
3009.289693075373
 30
21.0
  0
VERTEX
  5
175
330
172
100
AcDbEntity
  8
DEFAULT
100
AcDbVertex
100
AcDb2dVertex
 10
36781.12293902083
 20
3009.289693075373
 30
21.0
  0
SEQEND
  5
176
330
172
100
AcDbEntity
  8
DEFAULT
  0
POLYLINE
  5
177
330
1F
100
AcDbEntity
  8
DEFAULT
100
AcDb2dPolyline
 66
     1
 10
0.0
 20
0.0
 30
21.0
 70
     1
  0
VERTEX
  5
178
330
177
100
AcDbEntity
  8
DEFAULT
100
AcDbVertex
100
AcDb2dVertex
 10
40153.56268925853
 20
3417.370395312683
 30
21.0
  0
VERTEX
  5
179
330
177
100
AcDbEntity
  8
DEFAULT
100
AcDbVertex
100
AcDb2dVertex
 10
40153.56268925853
 20
3105.542249851881
 30
21.0
  0
VERTEX
  5
17A
330
177
100
AcDbEntity
  8
DEFAULT
100
AcDbVertex
100
AcDb2dVertex
 10
40811.39878384689
 20
3105.542249851881
 30
21.0
  0
VERTEX
  5
17B
330
177
100
AcDbEntity
  8
DEFAULT
100
AcDbVertex
100
AcDb2dVertex
 10
40811.39878384689
 20
3417.370395312683
 30
21.0
  0
SEQEND
  5
17C
330
177
100
AcDbEntity
  8
DEFAULT
  0
POLYLINE
  5
17D
330
1F
100
AcDbEntity
  8
DEFAULT
100
AcDb2dPolyline
 66
     1
 10
0.0
 20
0.0
 30
21.0
 70
     1
  0
VERTEX
  5
17E
330
17D
100
AcDbEntity
  8
DEFAULT
100
AcDbVertex
100
AcDb2dVertex
 10
40226.12285375786
 20
3351.683860648454
 30
21.0
  0
VERTEX
  5
17F
330
17D
100
AcDbEntity
  8
DEFAULT
100
AcDbVertex
100
AcDb2dVertex
 10
40273.25906402374
 20
3153.726053821811
 30
21.0
  0
VERTEX
  5
180
330
17D
100
AcDbEntity
  8
DEFAULT
100
AcDbVertex
100
AcDb2dVertex
 10
40169.97023958713
 20
3153.726053821811
 30
21.0
  0
SEQEND
  5
181
330
17D
100
AcDbEntity
  8
DEFAULT
  0
POLYLINE
  5
182
330
1F
100
AcDbEntity
  8
DEFAULT
100
AcDb2dPolyline
 66
     1
 10
0.0
 20
0.0
 30
21.0
 70
     1
  0
VERTEX
  5
183
330
182
100
AcDbEntity
  8
DEFAULT
100
AcDbVertex
100
AcDb2dVertex
 10
40729.25979301895
 20
3283.879709276849
 30
21.0
  0
VERTEX
  5
184
330
182
100
AcDbEntity
  8
DEFAULT
100
AcDbVertex
100
AcDb2dVertex
 10
40789.40250991102
 20
3222.63385798272
 30
21.0
  0
VERTEX
  5
185
330
182
100
AcDbEntity
  8
DEFAULT
100
AcDbVertex
100
AcDb2dVertex
 10
40648.43215765144
 20
3222.63385798272
 30
21.0
  0
SEQEND
  5
186
330
182
100
AcDbEntity
  8
DEFAULT
  0
POLYLINE
  5
187
330
1F
100
AcDbEntity
  8
DEFAULT
100
AcDb2dPolyline
 66
     1
 10
0.0
 20
0.0
 30
21.0
 70
     1
  0
VERTEX
  5
188
330
187
100
AcDbEntity
  8
DEFAULT
100
AcDbVertex
100
AcDb2dVertex
 10
39451.20406089093
 20
524.4264956418917
 30
21.0
  0
VERTEX
  5
189
330
187
100
AcDbEntity
  8
DEFAULT
100
AcDbVertex
100
AcDb2dVertex
 10
39451.20406089093
 20
0.0
 30
21.0
  0
VERTEX
  5
18A
330
187
100
AcDbEntity
  8
DEFAULT
100
AcDbVertex
100
AcDb2dVertex
 10
39556.47870482322
 20
0.0
 30
21.0
  0
VERTEX
  5
18B
330
187
100
AcDbEntity
  8
DEFAULT
100
AcDbVertex
100
AcDb2dVertex
 10
39556.47870482322
 20
524.4264956418917
 30
21.0
  0
SEQEND
  5
18C
330
187
100
AcDbEntity
  8
DEFAULT
  0
POLYLINE
  5
18D
330
1F
100
AcDbEntity
  8
DEFAULT
100
AcDb2dPolyline
 66
     1
 10
0.0
 20
0.0
 30
21.0
 70
     1
  0
VERTEX
  5
18E
330
18D
100
AcDbEntity
  8
DEFAULT
100
AcDbVertex
100
AcDb2dVertex
 10
39803.56268925853
 20
2133.664431218249
 30
21.0
  0
VERTEX
  5
18F
330
18D
100
AcDbEntity
  8
DEFAULT
100
AcDbVertex
100
AcDb2dVertex
 10
39803.56268925853
 20
1822.204697367282
 30
21.0
  0
VERTEX
  5
190
330
18D
100
AcDbEntity
  8
DEFAULT
100
AcDbVertex
100
AcDb2dVertex
 10
40022.78243323521
 20
1822.204697367282
 30
21.0
  0
VERTEX
  5
191
330
18D
100
AcDbEntity
  8
DEFAULT
100
AcDbVertex
100
AcDb2dVertex
 10
40022.78243323521
 20
2133.664431218249
 30
21.0
  0
SEQEND
  5
192
330
18D
100
AcDbEntity
  8
DEFAULT
  0
POLYLINE
  5
193
330
1F
100
AcDbEntity
  8
DEFAULT
100
AcDb2dPolyline
 66
     1
 10
0.0
 20
0.0
 30
21.0
 70
     1
  0
VERTEX
  5
194
330
193
100
AcDbEntity
  8
DEFAULT
100
AcDbVertex
100
AcDb2dVertex
 10
39886.76246888473
 20
1878.838798492459
 30
21.0
  0
VERTEX
  5
195
330
193
100
AcDbEntity
  8
DEFAULT
100
AcDbVertex
100
AcDb2dVertex
 10
39896.12580235114
 20
1870.10370860307
 30
21.0
  0
VERTEX
  5
196
330
193
100
AcDbEntity
  8
DEFAULT
100
AcDbVertex
100
AcDb2dVertex
 10
39874.28807762766
 20
1870.10370860307
 30
21.0
  0
SEQEND
  5
197
330
193
100
AcDbEntity
  8
DEFAULT
  0
POLYLINE
  5
198
330
1F
100
AcDbEntity
  8
DEFAULT
100
AcDb2dPolyline
 66
     1
 10
0.0
 20
0.0
 30
21.0
 70
     1
  0
VERTEX
  5
199
330
198
100
AcDbEntity
  8
DEFAULT
100
AcDbVertex
100
AcDb2dVertex
 10
39829.36975633231
 20
2122.092236034057
 30
21.0
  0
VERTEX
  5
19A
330
198
100
AcDbEntity
  8
DEFAULT
100
AcDbVertex
100
AcDb2dVertex
 10
39847.98302113705
 20
2075.445600633614
 30
21.0
  0
VERTEX
  5
19B
330
198
100
AcDbEntity
  8
DEFAULT
100
AcDbVertex
100
AcDb2dVertex
 10
39804.35685640729
 20
2075.445600633614
 30
21.0
  0
SEQEND
  5
19C
330
198
100
AcDbEntity
  8
DEFAULT
  0
CIRCLE
  5
19D
330
1F
100
AcDbEntity
  8
DEFAULT
100
AcDbCircle
 10
39569.31244848192
 20
1888.948204321818
 30
21.0
 40
115.7497592233849
  0
POLYLINE
  5
19E
330
1F
100
AcDbEntity
  8
DEFAULT
100
AcDb2dPolyline
 66
     1
 10
0.0
 20
0.0
 30
21.0
 70
     1
  0
VERTEX
  5
19F
330
19E
100
AcDbEntity
  8
DEFAULT
100
AcDbVertex
100
AcDb2dVertex
 10
39103.56268925853
 20
4082.750051056428
 30
21.0
  0
VERTEX
  5
1A0
330
19E
100
AcDbEntity
  8
DEFAULT
100
AcDbVertex
100
AcDb2dVertex
 10
39103.56268925853
 20
3609.551605957995
 30
21.0
  0
VERTEX
  5
1A1
330
19E
100
AcDbEntity
  8
DEFAULT
100
AcDbVertex
100
AcDb2dVertex
 10
39305.6841002854
 20
3609.551605957995
 30
21.0
  0
VERTEX
  5
1A2
330
19E
100
AcDbEntity
  8
DEFAULT
100
AcDbVertex
100
AcDb2dVertex
 10
39305.6841002854
 20
4082.750051056428
 30
21.0
  0
SEQEND
  5
1A3
330
19E
100
AcDbEntity
  8
DEFAULT
  0
POLYLINE
  5
1A4
330
1F
100
AcDbEntity
  8
DEFAULT
100
AcDb2dPolyline
 66
     1
 10
0.0
 20
0.0
 30
21.0
 70
     1
  0
VERTEX
  5
1A5
330
1A4
100
AcDbEntity
  8
DEFAULT
100
AcDbVertex
100
AcDb2dVertex
 10
39276.4548319152
 20
4049.285534701221
 30
21.0
  0
VERTEX
  5
1A6
330
1A4
100
AcDbEntity
  8
DEFAULT
100
AcDbVertex
100
AcDb2dVertex
 10
39159.38552101291
 20
4049.285534701221
 30
21.0
  0
VERTEX
  5
1A7
330
1A4
100
AcDbEntity
  8
DEFAULT
100
AcDbVertex
100
AcDb2dVertex
 10
39159.38552101291
 20
4057.38080580746
 30
21.0
  0
VERTEX
  5
1A8
330
1A4
100
AcDbEntity
  8
DEFAULT
100
AcDbVertex
100
AcDb2dVertex
 10
39276.4548319152
 20
4057.38080580746
 30
21.0
  0
SEQEND
  5
1A9
330
1A4
100
AcDbEntity
  8
DEFAULT
  0
POLYLINE
  5
1AA
330
1F
100
AcDbEntity
  8
DEFAULT
100
AcDb2dPolyline
 66
     1
 10
0.0
 20
0.0
 30
21.0
 70
     1
  0
VERTEX
  5
1AB
330
1AA
100
AcDbEntity
  8
DEFAULT
100
AcDbVertex
100
AcDb2dVertex
 10
39248.13346714984
 20
3722.388117312771
 30
21.0
  0
VERTEX
  5
1AC
330
1AA
100
AcDbEntity
  8
DEFAULT
100
AcDbVertex
100
AcDb2dVertex
 10
39278.05556424283
 20
3657.349284718601
 30
21.0
  0
VERTEX
  5
1AD
330
1AA
100
AcDbEntity
  8
DEFAULT
100
AcDbVertex
100
AcDb2dVertex
 10
39216.42226051027
 20
3657.349284718601
 30
21.0
  0
SEQEND
  5
1AE
330
1AA
100
AcDbEntity
  8
DEFAULT
  0
POLYLINE
  5
1AF
330
1F
100
AcDbEntity
  8
DEFAULT
100
AcDb2dPolyline
 66
     1
 10
0.0
 20
0.0
 30
21.0
 70
     1
  0
VERTEX
  5
1B0
330
1AF
100
AcDbEntity
  8
DEFAULT
100
AcDbVertex
100
AcDb2dVertex
 10
34384.61287663882
 20
3721.022012615519
 30
21.0
  0
VERTEX
  5
1B1
330
1AF
100
AcDbEntity
  8
DEFAULT
100
AcDbVertex
100
AcDb2dVertex
 10
34203.56268925853
 20
3361.470406657525
 30
21.0
  0
VERTEX
  5
1B2
330
1AF
100
AcDbEntity
  8
DEFAULT
100
AcDbVertex
100
AcDb2dVertex
 10
34642.53999620048
 20
3361.470406657525
 30
21.0
  0
SEQEND
  5
1B3
330
1AF
100
AcDbEntity
  8
DEFAULT
  0
POLYLINE
  5
1B4
330
1F
100
AcDbEntity
  8
DEFAULT
100
AcDb2dPolyline
 66
     1
 10
0.0
 20
0.0
 30
21.0
 70
     1
  0
VERTEX
  5
1B5
330
1B4
100
AcDbEntity
  8
DEFAULT
100
AcDbVertex
100
AcDb2dVertex
 10
39453.56268925853
 20
994.1871014599556
 30
21.0
  0
VERTEX
  5
1B6
330
1B4
100
AcDbEntity
  8
DEFAULT
100
AcDbVertex
100
AcDb2dVertex
 10
39453.56268925853
 20
882.716694802431
 30
21.0
  0
VERTEX
  5
1B7
330
1B4
100
AcDbEntity
  8
DEFAULT
100
AcDbVertex
100
AcDb2dVertex
 10
39903.90345963399
 20
882.716694802431
 30
21.0
  0
VERTEX
  5
1B8
330
1B4
100
AcDbEntity
  8
DEFAULT
100
AcDbVertex
100
AcDb2dVertex
 10
39903.90345963399
 20
994.1871014599556
 30
21.0
  0
SEQEND
  5
1B9
330
1B4
100
AcDbEntity
  8
DEFAULT
  0
POLYLINE
  5
1BA
330
1F
100
AcDbEntity
  8
DEFAULT
100
AcDb2dPolyline
 66
     1
 10
0.0
 20
0.0
 30
21.0
 70
     1
  0
VERTEX
  5
1BB
330
1BA
100
AcDbEntity
  8
DEFAULT
100
AcDbVertex
100
AcDb2dVertex
 10
39553.71986316248
 20
915.5263389607537
 30
21.0
  0
VERTEX
  5
1BC
330
1BA
100
AcDbEntity
  8
DEFAULT
100
AcDbVertex
100
AcDb2dVertex
 10
39492.3051592501
 20
915.5263389607537
 30
21.0
  0
VERTEX
  5
1BD
330
1BA
100
AcDbEntity
  8
DEFAULT
100
AcDbVertex
100
AcDb2dVertex
 10
39492.3051592501
 20
925.5432891735805
 30
21.0
  0
VERTEX
  5
1BE
330
1BA
100
AcDbEntity
  8
DEFAULT
100
AcDbVertex
100
AcDb2dVertex
 10
39553.71986316248
 20
925.5432891735805
 30
21.0
  0
SEQEND
  5
1BF
330
1BA
100
AcDbEntity
  8
DEFAULT
  0
POLYLINE
  5
1C0
330
1F
100
AcDbEntity
  8
DEFAULT
100
AcDb2dPolyline
 66
     1
 10
0.0
 20
0.0
 30
21.0
 70
     1
  0
VERTEX
  5
1C1
330
1C0
100
AcDbEntity
  8
DEFAULT
100
AcDbVertex
100
AcDb2dVertex
 10
35796.48641475677
 20
4623.417837946443
 30
21.0
  0
VERTEX
  5
1C2
330
1C0
100
AcDbEntity
  8
DEFAULT
100
AcDbVertex
100
AcDb2dVertex
 10
35603.56268925853
 20
4105.195123871934
 30
21.0
  0
VERTEX
  5
1C3
330
1C0
100
AcDbEntity
  8
DEFAULT
100
AcDbVertex
100
AcDb2dVertex
 10
36032.91584891128
 20
4105.195123871934
 30
21.0
  0
SEQEND
  5
1C4
330
1C0
100
AcDbEntity
  8
DEFAULT
  0
POLYLINE
  5
1C5
330
1F
100
AcDbEntity
  8
DEFAULT
100
AcDb2dPolyline
 66
     1
 10
0.0
 20
0.0
 30
21.0
 70
     1
  0
VERTEX
  5
1C6
330
1C5
100
AcDbEntity
  8
DEFAULT
100
AcDbVertex
100
AcDb2dVertex
 10
35867.35708271763
 20
4152.211171910173
 30
21.0
  0
VERTEX
  5
1C7
330
1C5
100
AcDbEntity
  8
DEFAULT
100
AcDbVertex
100
AcDb2dVertex
 10
35899.41053253383
 20
4129.238873172887
 30
21.0
  0
VERTEX
  5
1C8
330
1C5
100
AcDbEntity
  8
DEFAULT
100
AcDbVertex
100
AcDb2dVertex
 10
35841.97978569061
 20
4129.238873172887
 30
21.0
  0
SEQEND
  5
1C9
330
1C5
100
AcDbEntity
  8
DEFAULT
  0
POLYLINE
  5
1CA
330
1F
100
AcDbEntity
  8
DEFAULT
100
AcDb2dPolyline
 66
     1
 10
0.0
 20
0.0
 30
21.0
 70
     1
  0
VERTEX
  5
1CB
330
1CA
100
AcDbEntity
  8
DEFAULT
100
AcDbVertex
100
AcDb2dVertex
 10
36252.15866101728
 20
7161.068824240517
 30
21.0
  0
VERTEX
  5
1CC
330
1CA
100
AcDbEntity
  8
DEFAULT
100
AcDbVertex
100
AcDb2dVertex
 10
35953.56268925853
 20
6305.873700368583
 30
21.0
  0
VERTEX
  5
1CD
330
1CA
100
AcDbEntity
  8
DEFAULT
100
AcDbVertex
100
AcDb2dVertex
 10
36452.17220174471
 20
6305.873700368583
 30
21.0
  0
SEQEND
  5
1CE
330
1CA
100
AcDbEntity
  8
DEFAULT
  0
POLYLINE
  5
1CF
330
1F
100
AcDbEntity
  8
DEFAULT
100
AcDb2dPolyline
 66
     1
 10
0.0
 20
0.0
 30
21.0
 70
     1
  0
VERTEX
  5
1D0
330
1CF
100
AcDbEntity
  8
DEFAULT
100
AcDbVertex
100
AcDb2dVertex
 10
36141.31271748744
 20
6420.08433872475
 30
21.0
  0
VERTEX
  5
1D1
330
1CF
100
AcDbEntity
  8
DEFAULT
100
AcDbVertex
100
AcDb2dVertex
 10
36164.20401973011
 20
6336.254734573029
 30
21.0
  0
VERTEX
  5
1D2
330
1CF
100
AcDbEntity
  8
DEFAULT
100
AcDbVertex
100
AcDb2dVertex
 10
36105.59041505296
 20
6336.254734573029
 30
21.0
  0
SEQEND
  5
1D3
330
1CF
100
AcDbEntity
  8
DEFAULT
  0
POLYLINE
  5
1D4
330
1F
100
AcDbEntity
  8
DEFAULT
100
AcDb2dPolyline
 66
     1
 10
0.0
 20
0.0
 30
21.0
 70
     1
  0
VERTEX
  5
1D5
330
1D4
100
AcDbEntity
  8
DEFAULT
100
AcDbVertex
100
AcDb2dVertex
 10
36396.566280159
 20
6401.814449768861
 30
21.0
  0
VERTEX
  5
1D6
330
1D4
100
AcDbEntity
  8
DEFAULT
100
AcDbVertex
100
AcDb2dVertex
 10
36343.6667074579
 20
6401.814449768861
 30
21.0
  0
VERTEX
  5
1D7
330
1D4
100
AcDbEntity
  8
DEFAULT
100
AcDbVertex
100
AcDb2dVertex
 10
36343.6667074579
 20
6462.810723138221
 30
21.0
  0
VERTEX
  5
1D8
330
1D4
100
AcDbEntity
  8
DEFAULT
100
AcDbVertex
100
AcDb2dVertex
 10
36396.566280159
 20
6462.810723138221
 30
21.0
  0
SEQEND
  5
1D9
330
1D4
100
AcDbEntity
  8
DEFAULT
  0
POLYLINE
  5
1DA
330
1F
100
AcDbEntity
  8
DEFAULT
100
AcDb2dPolyline
 66
     1
 10
0.0
 20
0.0
 30
21.0
 70
     1
  0
VERTEX
  5
1DB
330
1DA
100
AcDbEntity
  8
DEFAULT
100
AcDbVertex
100
AcDb2dVertex
 10
35603.56268925853
 20
5980.165341702477
 30
21.0
  0
VERTEX
  5
1DC
330
1DA
100
AcDbEntity
  8
DEFAULT
100
AcDbVertex
100
AcDb2dVertex
 10
35603.56268925853
 20
5763.096257566598
 30
21.0
  0
VERTEX
  5
1DD
330
1DA
100
AcDbEntity
  8
DEFAULT
100
AcDbVertex
100
AcDb2dVertex
 10
36827.9532226148
 20
5763.096257566598
 30
21.0
  0
VERTEX
  5
1DE
330
1DA
100
AcDbEntity
  8
DEFAULT
100
AcDbVertex
100
AcDb2dVertex
 10
36827.9532226148
 20
5980.165341702477
 30
21.0
  0
SEQEND
  5
1DF
330
1DA
100
AcDbEntity
  8
DEFAULT
  0
POLYLINE
  5
1E0
330
1F
100
AcDbEntity
  8
DEFAULT
100
AcDb2dPolyline
 66
     1
 10
0.0
 20
0.0
 30
21.0
 70
     1
  0
VERTEX
  5
1E1
330
1E0
100
AcDbEntity
  8
DEFAULT
100
AcDbVertex
100
AcDb2dVertex
 10
37003.56268925853
 20
7567.505418931756
 30
21.0
  0
VERTEX
  5
1E2
330
1E0
100
AcDbEntity
  8
DEFAULT
100
AcDbVertex
100
AcDb2dVertex
 10
37003.56268925853
 20
5704.409161365158
 30
21.0
  0
VERTEX
  5
1E3
330
1E0
100
AcDbEntity
  8
DEFAULT
100
AcDbVertex
100
AcDb2dVertex
 10
37667.3381846791
 20
5704.409161365158
 30
21.0
  0
VERTEX
  5
1E4
330
1E0
100
AcDbEntity
  8
DEFAULT
100
AcDbVertex
100
AcDb2dVertex
 10
37667.3381846791
 20
7567.505418931756
 30
21.0
  0
SEQEND
  5
1E5
330
1E0
100
AcDbEntity
  8
DEFAULT
  0
POLYLINE
  5
1E6
330
1F
100
AcDbEntity
  8
DEFAULT
100
AcDb2dPolyline
 66
     1
 10
0.0
 20
0.0
 30
21.0
 70
     1
  0
VERTEX
  5
1E7
330
1E6
100
AcDbEntity
  8
DEFAULT
100
AcDbVertex
100
AcDb2dVertex
 10
33503.56268925853
 20
5328.349048056979
 30
21.0
  0
VERTEX
  5
1E8
330
1E6
100
AcDbEntity
  8
DEFAULT
100
AcDbVertex
100
AcDb2dVertex
 10
33503.56268925853
 20
4265.161247112658
 30
21.0
  0
VERTEX
  5
1E9
330
1E6
100
AcDbEntity
  8
DEFAULT
100
AcDbVertex
100
AcDb2dVertex
 10
33831.4344692783
 20
4265.161247112658
 30
21.0
  0
VERTEX
  5
1EA
330
1E6
100
AcDbEntity
  8
DEFAULT
100
AcDbVertex
100
AcDb2dVertex
 10
33831.4344692783
 20
5328.349048056979
 30
21.0
  0
SEQEND
  5
1EB
330
1E6
100
AcDbEntity
  8
DEFAULT
  0
POLYLINE
  5
1EC
330
1F
100
AcDbEntity
  8
DEFAULT
100
AcDb2dPolyline
 66
     1
 10
0.0
 20
0.0
 30
21.0
 70
     1
  0
VERTEX
  5
1ED
330
1EC
100
AcDbEntity
  8
DEFAULT
100
AcDbVertex
100
AcDb2dVertex
 10
33710.46399779569
 20
5174.07522018622
 30
21.0
  0
VERTEX
  5
1EE
330
1EC
100
AcDbEntity
  8
DEFAULT
100
AcDbVertex
100
AcDb2dVertex
 10
33714.06270134232
 20
5156.22151925627
 30
21.0
  0
VERTEX
  5
1EF
330
1EC
100
AcDbEntity
  8
DEFAULT
100
AcDbVertex
100
AcDb2dVertex
 10
33706.92122097034
 20
5156.22151925627
 30
21.0
  0
SEQEND
  5
1F0
330
1EC
100
AcDbEntity
  8
DEFAULT
  0
POLYLINE
  5
1F1
330
1F
100
AcDbEntity
  8
DEFAULT
100
AcDb2dPolyline
 66
     1
 10
0.0
 20
0.0
 30
21.0
 70
     1
  0
VERTEX
  5
1F2
330
1F1
100
AcDbEntity
  8
DEFAULT
100
AcDbVertex
100
AcDb2dVertex
 10
33685.48209925081
 20
4304.456536402473
 30
21.0
  0
VERTEX
  5
1F3
330
1F1
100
AcDbEntity
  8
DEFAULT
100
AcDbVertex
100
AcDb2dVertex
 10
33539.49616886684
 20
4304.456536402473
 30
21.0
  0
VERTEX
  5
1F4
330
1F1
100
AcDbEntity
  8
DEFAULT
100
AcDbVertex
100
AcDb2dVertex
 10
33539.49616886684
 20
4459.613787412846
 30
21.0
  0
VERTEX
  5
1F5
330
1F1
100
AcDbEntity
  8
DEFAULT
100
AcDbVertex
100
AcDb2dVertex
 10
33685.48209925081
 20
4459.613787412846
 30
21.0
  0
SEQEND
  5
1F6
330
1F1
100
AcDbEntity
  8
DEFAULT
  0
POLYLINE
  5
1F7
330
1F
100
AcDbEntity
  8
DEFAULT
100
AcDb2dPolyline
 66
     1
 10
0.0
 20
0.0
 30
21.0
 70
     1
  0
VERTEX
  5
1F8
330
1F7
100
AcDbEntity
  8
DEFAULT
100
AcDbVertex
100
AcDb2dVertex
 10
40853.56268925853
 20
6635.662287533456
 30
21.0
  0
VERTEX
  5
1F9
330
1F7
100
AcDbEntity
  8
DEFAULT
100
AcDbVertex
100
AcDb2dVertex
 10
40853.56268925853
 20
5620.501040420799
 30
21.0
  0
VERTEX
  5
1FA
330
1F7
100
AcDbEntity
  8
DEFAULT
100
AcDbVertex
100
AcDb2dVertex
 10
42092.76904524794
 20
5620.501040420799
 30
21.0
  0
VERTEX
  5
1FB
330
1F7
100
AcDbEntity
  8
DEFAULT
100
AcDbVertex
100
AcDb2dVertex
 10
42092.76904524794
 20
6635.662287533456
 30
21.0
  0
SEQEND
  5
1FC
330
1F7
100
AcDbEntity
  8
DEFAULT
  0
POLYLINE
  5
1FD
330
1F
100
AcDbEntity
  8
DEFAULT
100
AcDb2dPolyline
 66
     1
 10
0.0
 20
0.0
 30
21.0
 70
     1
  0
VERTEX
  5
1FE
330
1FD
100
AcDbEntity
  8
DEFAULT
100
AcDbVertex
100
AcDb2dVertex
 10
41986.09679393457
 20
5964.87714205398
 30
21.0
  0
VERTEX
  5
1FF
330
1FD
100
AcDbEntity
  8
DEFAULT
100
AcDbVertex
100
AcDb2dVertex
 10
42030.54085369539
 20
5897.737969799803
 30
21.0
  0
VERTEX
  5
200
330
1FD
100
AcDbEntity
  8
DEFAULT
100
AcDbVertex
100
AcDb2dVertex
 10
41946.97908719613
 20
5897.737969799803
 30
21.0
  0
SEQEND
  5
201
330
1FD
100
AcDbEntity
  8
DEFAULT
  0
CIRCLE
  5
202
330
1F
100
AcDbEntity
  8
DEFAULT
100
AcDbCircle
 10
35463.81320946893
 20
1121.348671703598
 30
21.0
 40
210.2505202104003
  0
POLYLINE
  5
203
330
1F
100
AcDbEntity
  8
DEFAULT
100
AcDb2dPolyline
 66
     1
 10
0.0
 20
0.0
 30
21.0
 70
     1
  0
VERTEX
  5
204
330
203
100
AcDbEntity
  8
DEFAULT
100
AcDbVertex
100
AcDb2dVertex
 10
35558.27216647235
 20
1269.699507186691
 30
21.0
  0
VERTEX
  5
205
330
203
100
AcDbEntity
  8
DEFAULT
100
AcDbVertex
100
AcDb2dVertex
 10
35562.42106297039
 20
1250.46594620089
 30
21.0
  0
VERTEX
  5
206
330
203
100
AcDbEntity
  8
DEFAULT
100
AcDbVertex
100
AcDb2dVertex
 10
35554.72763857607
 20
1250.46594620089
 30
21.0
  0
SEQEND
  5
207
330
203
100
AcDbEntity
  8
DEFAULT
  0
CIRCLE
  5
208
330
1F
100
AcDbEntity
  8
DEFAULT
100
AcDbCircle
 10
-38869.95194736135
 20
2904.765879481759
 30
-21.0
 40
15.58798761084472
210
0.0
220
0.0
230
-1.0
  0
POLYLINE
  5
209
330
1F
100
AcDbEntity
  8
DEFAULT
100
AcDb2dPolyline
 66
     1
 10
0.0
 20
0.0
 30
21.0
 70
     1
  0
VERTEX
  5
20A
330
209
100
AcDbEntity
  8
DEFAULT
100
AcDbVertex
100
AcDb2dVertex
 10
38753.56268925853
 20
2972.721820451691
 30
21.0
  0
VERTEX
  5
20B
330
209
100
AcDbEntity
  8
DEFAULT
100
AcDbVertex
100
AcDb2dVertex
 10
38753.56268925853
 20
2711.623668958485
 30
21.0
  0
VERTEX
  5
20C
330
209
100
AcDbEntity
  8
DEFAULT
100
AcDbVertex
100
AcDb2dVertex
 10
39231.10781157665
 20
2711.623668958485
 30
21.0
  0
VERTEX
  5
20D
330
209
100
AcDbEntity
  8
DEFAULT
100
AcDbVertex
100
AcDb2dVertex
 10
39231.10781157665
 20
2972.721820451691
 30
21.0
  0
SEQEND
  5
20E
330
209
100
AcDbEntity
  8
DEFAULT
  0
CIRCLE
  5
20F
330
1F
100
AcDbEntity
  8
DEFAULT
100
AcDbCircle
 10
33534.37452373778
 20
5937.106711304034
 30
21.0
 40
380.8118344792383
  0
CIRCLE
  5
210
330
1F
100
AcDbEntity
  8
DEFAULT
100
AcDbCircle
 10
-33693.60850873257
 20
5695.890464185715
 30
-21.0
 40
45.39248402422527
210
0.0
220
0.0
230
-1.0
  0
CIRCLE
  5
211
330
1F
100
AcDbEntity
  8
DEFAULT
100
AcDbCircle
 10
-33733.6545328913
 20
5988.356235705909
 30
-21.0
 40
41.76533232771908
210
0.0
220
0.0
230
-1.0
  0
CIRCLE
  5
212
330
1F
100
AcDbEntity
  8
DEFAULT
100
AcDbCircle
 10
-32216.18918942728
 20
6844.160434924244
 30
-21.0
 40
15.86856690010609
210
0.0
220
0.0
230
-1.0
  0
POLYLINE
  5
213
330
1F
100
AcDbEntity
  8
DEFAULT
100
AcDb2dPolyline
 66
     1
 10
0.0
 20
0.0
 30
21.0
 70
     1
  0
VERTEX
  5
214
330
213
100
AcDbEntity
  8
DEFAULT
100
AcDbVertex
100
AcDb2dVertex
 10
32103.56268925853
 20
7662.735351311464
 30
21.0
  0
VERTEX
  5
215
330
213
100
AcDbEntity
  8
DEFAULT
100
AcDbVertex
100
AcDb2dVertex
 10
32103.56268925853
 20
5356.440474486673
 30
21.0
  0
VERTEX
  5
216
330
213
100
AcDbEntity
  8
DEFAULT
100
AcDbVertex
100
AcDb2dVertex
 10
32797.75283214807
 20
5356.440474486673
 30
21.0
  0
VERTEX
  5
217
330
213
100
AcDbEntity
  8
DEFAULT
100
AcDbVertex
100
AcDb2dVertex
 10
32797.75283214807
 20
7662.735351311464
 30
21.0
  0
SEQEND
  5
218
330
213
100
AcDbEntity
  8
DEFAULT
  0
POLYLINE
  5
219
330
1F
100
AcDbEntity
  8
DEFAULT
100
AcDb2dPolyline
 66
     1
 10
0.0
 20
0.0
 30
21.0
 70
     1
  0
VERTEX
  5
21A
330
219
100
AcDbEntity
  8
DEFAULT
100
AcDbVertex
100
AcDb2dVertex
 10
32396.41878773483
 20
7154.067265435512
 30
21.0
  0
VERTEX
  5
21B
330
219
100
AcDbEntity
  8
DEFAULT
100
AcDbVertex
100
AcDb2dVertex
 10
32462.93841880961
 20
7077.771051986127
 30
21.0
  0
VERTEX
  5
21C
330
219
100
AcDbEntity
  8
DEFAULT
100
AcDbVertex
100
AcDb2dVertex
 10
32307.72113676272
 20
7077.771051986127
 30
21.0
  0
SEQEND
  5
21D
330
219
100
AcDbEntity
  8
DEFAULT
  0
CIRCLE
  5
21E
330
1F
100
AcDbEntity
  8
DEFAULT
100
AcDbCircle
 10
33931.78292650188
 20
889.4819582832507
 30
21.0
 40
78.22023724333849
  0
CIRCLE
  5
21F
330
1F
100
AcDbEntity
  8
DEFAULT
100
AcDbCircle
 10
-38082.09467276687
 20
4933.74297559975
 30
-21.0
 40
24.13043721285067
210
0.0
220
0.0
230
-1.0
  0
POLYLINE
  5
220
330
1F
100
AcDbEntity
  8
DEFAULT
100
AcDb2dPolyline
 66
     1
 10
0.0
 20
0.0
 30
21.0
 70
     1
  0
VERTEX
  5
221
330
220
100
AcDbEntity
  8
DEFAULT
100
AcDbVertex
100
AcDb2dVertex
 10
38053.56268925853
 20
4979.881051534892
 30
21.0
  0
VERTEX
  5
222
330
220
100
AcDbEntity
  8
DEFAULT
100
AcDbVertex
100
AcDb2dVertex
 10
38053.56268925853
 20
4818.619330494979
 30
21.0
  0
VERTEX
  5
223
330
220
100
AcDbEntity
  8
DEFAULT
100
AcDbVertex
100
AcDb2dVertex
 10
39086.83432464482
 20
4818.619330494979
 30
21.0
  0
VERTEX
  5
224
330
220
100
AcDbEntity
  8
DEFAULT
100
AcDbVertex
100
AcDb2dVertex
 10
39086.83432464482
 20
4979.881051534892
 30
21.0
  0
SEQEND
  5
225
330
220
100
AcDbEntity
  8
DEFAULT
  0
POLYLINE
  5
226
330
1F
100
AcDbEntity
  8
DEFAULT
100
AcDb2dPolyline
 66
     1
 10
0.0
 20
0.0
 30
21.0
 70
     1
  0
VERTEX
  5
227
330
226
100
AcDbEntity
  8
DEFAULT
100
AcDbVertex
100
AcDb2dVertex
 10
38339.00806950977
 20
4849.977617581339
 30
21.0
  0
VERTEX
  5
228
330
226
100
AcDbEntity
  8
DEFAULT
100
AcDbVertex
100
AcDb2dVertex
 10
38355.38818816182
 20
4833.46515251622
 30
21.0
  0
VERTEX
  5
229
330
226
100
AcDbEntity
  8
DEFAULT
100
AcDbVertex
100
AcDb2dVertex
 10
38314.10702549901
 20
4833.46515251622
 30
21.0
  0
SEQEND
  5
22A
330
226
100
AcDbEntity
  8
DEFAULT
  0
POLYLINE
  5
22B
330
1F
100
AcDbEntity
  8
DEFAULT
100
AcDb2dPolyline
 66
     1
 10
0.0
 20
0.0
 30
21.0
 70
     1
  0
VERTEX
  5
22C
330
22B
100
AcDbEntity
  8
DEFAULT
100
AcDbVertex
100
AcDb2dVertex
 10
40000.35125908601
 20
7191.821501628649
 30
21.0
  0
VERTEX
  5
22D
330
22B
100
AcDbEntity
  8
DEFAULT
100
AcDbVertex
100
AcDb2dVertex
 10
39453.56268925853
 20
4973.202171133669
 30
21.0
  0
VERTEX
  5
22E
330
22B
100
AcDbEntity
  8
DEFAULT
100
AcDbVertex
100
AcDb2dVertex
 10
40469.94641819458
 20
4973.202171133669
 30
21.0
  0
SEQEND
  5
22F
330
22B
100
AcDbEntity
  8
DEFAULT
  0
CIRCLE
  5
230
330
1F
100
AcDbEntity
  8
DEFAULT
100
AcDbCircle
 10
-41808.15148955527
 20
4394.502023642701
 30
-21.0
 40
12.54565044710762
210
0.0
220
0.0
230
-1.0
  0
POLYLINE
  5
231
330
1F
100
AcDbEntity
  8
DEFAULT
100
AcDb2dPolyline
 66
     1
 10
0.0
 20
0.0
 30
21.0
 70
     1
  0
VERTEX
  5
232
330
231
100
AcDbEntity
  8
DEFAULT
100
AcDbVertex
100
AcDb2dVertex
 10
41203.56268925853
 20
5392.525383346207
 30
21.0
  0
VERTEX
  5
233
330
231
100
AcDbEntity
  8
DEFAULT
100
AcDbVertex
100
AcDb2dVertex
 10
41203.56268925853
 20
4319.323212212538
 30
21.0
  0
VERTEX
  5
234
330
231
100
AcDbEntity
  8
DEFAULT
100
AcDbVertex
100
AcDb2dVertex
 10
42097.08882098889
 20
4319.323212212538
 30
21.0
  0
VERTEX
  5
235
330
231
100
AcDbEntity
  8
DEFAULT
100
AcDbVertex
100
AcDb2dVertex
 10
42097.08882098889
 20
5392.525383346207
 30
21.0
  0
SEQEND
  5
236
330
231
100
AcDbEntity
  8
DEFAULT
  0
POLYLINE
  5
237
330
1F
100
AcDbEntity
  8
DEFAULT
100
AcDb2dPolyline
 66
     1
 10
0.0
 20
0.0
 30
21.0
 70
     1
  0
VERTEX
  5
238
330
237
100
AcDbEntity
  8
DEFAULT
100
AcDbVertex
100
AcDb2dVertex
 10
41252.6030340187
 20
4834.140413613699
 30
21.0
  0
VERTEX
  5
239
330
237
100
AcDbEntity
  8
DEFAULT
100
AcDbVertex
100
AcDb2dVertex
 10
41299.9047311889
 20
4679.762054677119
 30
21.0
  0
VERTEX
  5
23A
330
237
100
AcDbEntity
  8
DEFAULT
100
AcDbVertex
100
AcDb2dVertex
 10
41221.95003218676
 20
4679.762054677119
 30
21.0
  0
SEQEND
  5
23B
330
237
100
AcDbEntity
  8
DEFAULT
  0
POLYLINE
  5
23C
330
1F
100
AcDbEntity
  8
DEFAULT
100
AcDb2dPolyline
 66
     1
 10
0.0
 20
0.0
 30
21.0
 70
     1
  0
VERTEX
  5
23D
330
23C
100
AcDbEntity
  8
DEFAULT
100
AcDbVertex
100
AcDb2dVertex
 10
38053.56268925853
 20
6803.515647590677
 30
21.0
  0
VERTEX
  5
23E
330
23C
100
AcDbEntity
  8
DEFAULT
100
AcDbVertex
100
AcDb2dVertex
 10
38053.56268925853
 20
5084.192435378141
 30
21.0
  0
VERTEX
  5
23F
330
23C
100
AcDbEntity
  8
DEFAULT
100
AcDbVertex
100
AcDb2dVertex
 10
39027.47570377154
 20
5084.192435378141
 30
21.0
  0
VERTEX
  5
240
330
23C
100
AcDbEntity
  8
DEFAULT
100
AcDbVertex
100
AcDb2dVertex
 10
39027.47570377154
 20
6803.515647590677
 30
21.0
  0
SEQEND
  5
241
330
23C
100
AcDbEntity
  8
DEFAULT
  0
POLYLINE
  5
242
330
1F
100
AcDbEntity
  8
DEFAULT
100
AcDb2dPolyline
 66
     1
 10
0.0
 20
0.0
 30
21.0
 70
     1
  0
VERTEX
  5
243
330
242
100
AcDbEntity
  8
DEFAULT
100
AcDbVertex
100
AcDb2dVertex
 10
38218.31481814081
 20
5621.583941451546
 30
21.0
  0
VERTEX
  5
244
330
242
100
AcDbEntity
  8
DEFAULT
100
AcDbVertex
100
AcDb2dVertex
 10
38278.55635595526
 20
5576.232657625662
 30
21.0
  0
VERTEX
  5
245
330
242
100
AcDbEntity
  8
DEFAULT
100
AcDbVertex
100
AcDb2dVertex
 10
38165.17814639055
 20
5576.232657625662
 30
21.0
  0
SEQEND
  5
246
330
242
100
AcDbEntity
  8
DEFAULT
  0
CIRCLE
  5
247
330
1F
100
AcDbEntity
  8
DEFAULT
100
AcDbCircle
 10
-37426.88407867607
 20
5099.888834789104
 30
-21.0
 40
15.70751818219287
210
0.0
220
0.0
230
-1.0
  0
POLYLINE
  5
248
330
1F
100
AcDbEntity
  8
DEFAULT
100
AcDb2dPolyline
 66
     1
 10
0.0
 20
0.0
 30
21.0
 70
     1
  0
VERTEX
  5
249
330
248
100
AcDbEntity
  8
DEFAULT
100
AcDbVertex
100
AcDb2dVertex
 10
37456.65071646191
 20
5178.274066120745
 30
21.0
  0
VERTEX
  5
24A
330
248
100
AcDbEntity
  8
DEFAULT
100
AcDbVertex
100
AcDb2dVertex
 10
37003.56268925853
 20
4644.081630742605
 30
21.0
  0
VERTEX
  5
24B
330
248
100
AcDbEntity
  8
DEFAULT
100
AcDbVertex
100
AcDb2dVertex
 10
37854.89574975815
 20
4644.081630742605
 30
21.0
  0
SEQEND
  5
24C
330
248
100
AcDbEntity
  8
DEFAULT
  0
POLYLINE
  5
24D
330
1F
100
AcDbEntity
  8
DEFAULT
100
AcDb2dPolyline
 66
     1
 10
0.0
 20
0.0
 30
21.0
 70
     1
  0
VERTEX
  5
24E
330
24D
100
AcDbEntity
  8
DEFAULT
100
AcDbVertex
100
AcDb2dVertex
 10
35603.56268925853
 20
5670.953707574743
 30
21.0
  0
VERTEX
  5
24F
330
24D
100
AcDbEntity
  8
DEFAULT
100
AcDbVertex
100
AcDb2dVertex
 10
35603.56268925853
 20
4926.872076832138
 30
21.0
  0
VERTEX
  5
250
330
24D
100
AcDbEntity
  8
DEFAULT
100
AcDbVertex
100
AcDb2dVertex
 10
36713.80497878205
 20
4926.872076832138
 30
21.0
  0
VERTEX
  5
251
330
24D
100
AcDbEntity
  8
DEFAULT
100
AcDbVertex
100
AcDb2dVertex
 10
36713.80497878205
 20
5670.953707574743
 30
21.0
  0
SEQEND
  5
252
330
24D
100
AcDbEntity
  8
DEFAULT
  0
POLYLINE
  5
253
330
1F
100
AcDbEntity
  8
DEFAULT
100
AcDb2dPolyline
 66
     1
 10
0.0
 20
0.0
 30
21.0
 70
     1
  0
VERTEX
  5
254
330
253
100
AcDbEntity
  8
DEFAULT
100
AcDbVertex
100
AcDb2dVertex
 10
39103.56268925853
 20
4625.026279751784
 30
21.0
  0
VERTEX
  5
255
330
253
100
AcDbEntity
  8
DEFAULT
100
AcDbVertex
100
AcDb2dVertex
 10
39103.56268925853
 20
4248.154202919646
 30
21.0
  0
VERTEX
  5
256
330
253
100
AcDbEntity
  8
DEFAULT
100
AcDbVertex
100
AcDb2dVertex
 10
40919.15583793371
 20
4248.154202919646
 30
21.0
  0
VERTEX
  5
257
330
253
100
AcDbEntity
  8
DEFAULT
100
AcDbVertex
100
AcDb2dVertex
 10
40919.15583793371
 20
4625.026279751784
 30
21.0
  0
SEQEND
  5
258
330
253
100
AcDbEntity
  8
DEFAULT
  0
POLYLINE
  5
259
330
1F
100
AcDbEntity
  8
DEFAULT
100
AcDb2dPolyline
 66
     1
 10
0.0
 20
0.0
 30
21.0
 70
     1
  0
VERTEX
  5
25A
330
259
100
AcDbEntity
  8
DEFAULT
100
AcDbVertex
100
AcDb2dVertex
 10
40363.00557823085
 20
4402.467792749263
 30
21.0
  0
VERTEX
  5
25B
330
259
100
AcDbEntity
  8
DEFAULT
100
AcDbVertex
100
AcDb2dVertex
 10
40296.86739010754
 20
4402.467792749263
 30
21.0
  0
VERTEX
  5
25C
330
259
100
AcDbEntity
  8
DEFAULT
100
AcDbVertex
100
AcDb2dVertex
 10
40296.86739010754
 20
4574.011267129536
 30
21.0
  0
VERTEX
  5
25D
330
259
100
AcDbEntity
  8
DEFAULT
100
AcDbVertex
100
AcDb2dVertex
 10
40363.00557823085
 20
4574.011267129536
 30
21.0
  0
SEQEND
  5
25E
330
259
100
AcDbEntity
  8
DEFAULT
  0
POLYLINE
  5
25F
330
1F
100
AcDbEntity
  8
DEFAULT
100
AcDb2dPolyline
 66
     1
 10
0.0
 20
0.0
 30
21.0
 70
     1
  0
VERTEX
  5
260
330
25F
100
AcDbEntity
  8
DEFAULT
100
AcDbVertex
100
AcDb2dVertex
 10
34203.56268925853
 20
6307.250735158585
 30
21.0
  0
VERTEX
  5
261
330
25F
100
AcDbEntity
  8
DEFAULT
100
AcDbVertex
100
AcDb2dVertex
 10
34203.56268925853
 20
4009.096532238939
 30
21.0
  0
VERTEX
  5
262
330
25F
100
AcDbEntity
  8
DEFAULT
100
AcDbVertex
100
AcDb2dVertex
 10
35226.02857134551
 20
4009.096532238939
 30
21.0
  0
VERTEX
  5
263
330
25F
100
AcDbEntity
  8
DEFAULT
100
AcDbVertex
100
AcDb2dVertex
 10
35226.02857134551
 20
6307.250735158585
 30
21.0
  0
SEQEND
  5
264
330
25F
100
AcDbEntity
  8
DEFAULT
  0
POLYLINE
  5
265
330
1F
100
AcDbEntity
  8
DEFAULT
100
AcDb2dPolyline
 66
     1
 10
0.0
 20
0.0
 30
21.0
 70
     1
  0
VERTEX
  5
266
330
265
100
AcDbEntity
  8
DEFAULT
100
AcDbVertex
100
AcDb2dVertex
 10
34268.412364535
 20
5032.321666962328
 30
21.0
  0
VERTEX
  5
267
330
265
100
AcDbEntity
  8
DEFAULT
100
AcDbVertex
100
AcDb2dVertex
 10
34317.51907243515
 20
4988.808576108394
 30
21.0
  0
VERTEX
  5
268
330
265
100
AcDbEntity
  8
DEFAULT
100
AcDbVertex
100
AcDb2dVertex
 10
34208.73634530032
 20
4988.808576108394
 30
21.0
  0
SEQEND
  5
269
330
265
100
AcDbEntity
  8
DEFAULT
  0
CIRCLE
  5
26A
330
1F
100
AcDbEntity
  8
DEFAULT
100
AcDbCircle
 10
-33247.0296548088
 20
965.6965645198237
 30
-21.0
 40
4.791610693981056
210
0.0
220
0.0
230
-1.0
  0
CIRCLE
  5
26B
330
1F
100
AcDbEntity
  8
DEFAULT
100
AcDbCircle
 10
-33663.94186400896
 20
964.3290522569296
 30
-21.0
 40
29.38659459621704
210
0.0
220
0.0
230
-1.0
  0
POLYLINE
  5
26C
330
1F
100
AcDbEntity
  8
DEFAULT
100
AcDb2dPolyline
 66
     1
 10
0.0
 20
0.0
 30
21.0
 70
     1
  0
VERTEX
  5
26D
330
26C
100
AcDbEntity
  8
DEFAULT
100
AcDbVertex
100
AcDb2dVertex
 10
33153.56268925853
 20
1014.279317678879
 30
21.0
  0
VERTEX
  5
26E
330
26C
100
AcDbEntity
  8
DEFAULT
100
AcDbVertex
100
AcDb2dVertex
 10
33153.56268925853
 20
905.1827854399401
 30
21.0
  0
VERTEX
  5
26F
330
26C
100
AcDbEntity
  8
DEFAULT
100
AcDbVertex
100
AcDb2dVertex
 10
33760.07742107662
 20
905.1827854399401
 30
21.0
  0
VERTEX
  5
270
330
26C
100
AcDbEntity
  8
DEFAULT
100
AcDbVertex
100
AcDb2dVertex
 10
33760.07742107662
 20
1014.279317678879
 30
21.0
  0
SEQEND
  5
271
330
26C
100
AcDbEntity
  8
DEFAULT
  0
CIRCLE
  5
272
330
1F
100
AcDbEntity
  8
DEFAULT
100
AcDbCircle
 10
-34385.30922286369
 20
2317.428378864388
 30
-21.0
 40
11.14596741762216
210
0.0
220
0.0
230
-1.0
  0
POLYLINE
  5
273
330
1F
100
AcDbEntity
  8
DEFAULT
100
AcDb2dPolyline
 66
     1
 10
0.0
 20
0.0
 30
21.0
 70
     1
  0
VERTEX
  5
274
330
273
100
AcDbEntity
  8
DEFAULT
100
AcDbVertex
100
AcDb2dVertex
 10
34415.671466922
 20
2376.601121322273
 30
21.0
  0
VERTEX
  5
275
330
273
100
AcDbEntity
  8
DEFAULT
100
AcDbVertex
100
AcDb2dVertex
 10
34203.56268925853
 20
2121.418335882333
 30
21.0
  0
VERTEX
  5
276
330
273
100
AcDbEntity
  8
DEFAULT
100
AcDbVertex
100
AcDb2dVertex
 10
34618.99994421111
 20
2121.418335882333
 30
21.0
  0
SEQEND
  5
277
330
273
100
AcDbEntity
  8
DEFAULT
  0
POLYLINE
  5
278
330
1F
100
AcDbEntity
  8
DEFAULT
100
AcDb2dPolyline
 66
     1
 10
0.0
 20
0.0
 30
21.0
 70
     1
  0
VERTEX
  5
279
330
278
100
AcDbEntity
  8
DEFAULT
100
AcDbVertex
100
AcDb2dVertex
 10
34292.02600107729
 20
2161.144392841608
 30
21.0
  0
VERTEX
  5
27A
330
278
100
AcDbEntity
  8
DEFAULT
100
AcDbVertex
100
AcDb2dVertex
 10
34294.84769426121
 20
2144.397458989674
 30
21.0
  0
VERTEX
  5
27B
330
278
100
AcDbEntity
  8
DEFAULT
100
AcDbVertex
100
AcDb2dVertex
 10
34288.14892072042
 20
2144.397458989674
 30
21.0
  0
SEQEND
  5
27C
330
278
100
AcDbEntity
  8
DEFAULT
  0
CIRCLE
  5
27D
330
1F
100
AcDbEntity
  8
DEFAULT
100
AcDbCircle
 10
41614.27185719971
 20
3606.149214742107
 30
21.0
 40
410.7091679411678
  0
POLYLINE
  5
27E
330
1F
100
AcDbEntity
  8
DEFAULT
100
AcDb2dPolyline
 66
     1
 10
0.0
 20
0.0
 30
21.0
 70
     1
  0
VERTEX
  5
27F
330
27E
100
AcDbEntity
  8
DEFAULT
100
AcDbVertex
100
AcDb2dVertex
 10
41806.43367666652
 20
3913.901318873189
 30
21.0
  0
VERTEX
  5
280
330
27E
100
AcDbEntity
  8
DEFAULT
100
AcDbVertex
100
AcDb2dVertex
 10
41713.60009778815
 20
3913.901318873189
 30
21.0
  0
VERTEX
  5
281
330
27E
100
AcDbEntity
  8
DEFAULT
100
AcDbVertex
100
AcDb2dVertex
 10
41713.60009778815
 20
3967.706837710736
 30
21.0
  0
VERTEX
  5
282
330
27E
100
AcDbEntity
  8
DEFAULT
100
AcDbVertex
100
AcDb2dVertex
 10
41806.43367666652
 20
3967.706837710736
 30
21.0
  0
SEQEND
  5
283
330
27E
100
AcDbEntity
  8
DEFAULT
  0
POLYLINE
  5
284
330
1F
100
AcDbEntity
  8
DEFAULT
100
AcDb2dPolyline
 66
     1
 10
0.0
 20
0.0
 30
21.0
 70
     1
  0
VERTEX
  5
285
330
284
100
AcDbEntity
  8
DEFAULT
100
AcDbVertex
100
AcDb2dVertex
 10
41955.82957254599
 20
3487.946835389558
 30
21.0
  0
VERTEX
  5
286
330
284
100
AcDbEntity
  8
DEFAULT
100
AcDbVertex
100
AcDb2dVertex
 10
41762.73357585231
 20
3487.946835389558
 30
21.0
  0
VERTEX
  5
287
330
284
100
AcDbEntity
  8
DEFAULT
100
AcDbVertex
100
AcDb2dVertex
 10
41762.73357585231
 20
3638.111124755004
 30
21.0
  0
VERTEX
  5
288
330
284
100
AcDbEntity
  8
DEFAULT
100
AcDbVertex
100
AcDb2dVertex
 10
41955.82957254599
 20
3638.111124755004
 30
21.0
  0
SEQEND
  5
289
330
284
100
AcDbEntity
  8
DEFAULT
  0
CIRCLE
  5
28A
330
1F
100
AcDbEntity
  8
DEFAULT
100
AcDbCircle
 10
32726.282712659
 20
4491.265855075116
 30
21.0
 40
622.7200234004704
  0
POLYLINE
  5
28B
330
1F
100
AcDbEntity
  8
DEFAULT
100
AcDb2dPolyline
 66
     1
 10
0.0
 20
0.0
 30
21.0
 70
     1
  0
VERTEX
  5
28C
330
28B
100
AcDbEntity
  8
DEFAULT
100
AcDbVertex
100
AcDb2dVertex
 10
32700.18696663168
 20
3927.013627604441
 30
21.0
  0
VERTEX
  5
28D
330
28B
100
AcDbEntity
  8
DEFAULT
100
AcDbVertex
100
AcDb2dVertex
 10
32565.0284509508
 20
3927.013627604441
 30
21.0
  0
VERTEX
  5
28E
330
28B
100
AcDbEntity
  8
DEFAULT
100
AcDbVertex
100
AcDb2dVertex
 10
32565.0284509508
 20
4047.168957136705
 30
21.0
  0
VERTEX
  5
28F
330
28B
100
AcDbEntity
  8
DEFAULT
100
AcDbVertex
100
AcDb2dVertex
 10
32700.18696663168
 20
4047.168957136705
 30
21.0
  0
SEQEND
  5
290
330
28B
100
AcDbEntity
  8
DEFAULT
  0
CIRCLE
  5
291
330
1F
100
AcDbEntity
  8
DEFAULT
100
AcDbCircle
 10
-40295.48977195697
 20
3638.186092484805
 30
-21.0
 40
60.78482415802864
210
0.0
220
0.0
230
-1.0
  0
POLYLINE
  5
292
330
1F
100
AcDbEntity
  8
DEFAULT
100
AcDb2dPolyline
 66
     1
 10
0.0
 20
0.0
 30
21.0
 70
     1
  0
VERTEX
  5
293
330
292
100
AcDbEntity
  8
DEFAULT
100
AcDbVertex
100
AcDb2dVertex
 10
40153.56268925853
 20
4149.117676327771
 30
21.0
  0
VERTEX
  5
294
330
292
100
AcDbEntity
  8
DEFAULT
100
AcDbVertex
100
AcDb2dVertex
 10
40153.56268925853
 20
3530.571844653127
 30
21.0
  0
VERTEX
  5
295
330
292
100
AcDbEntity
  8
DEFAULT
100
AcDbVertex
100
AcDb2dVertex
 10
40947.3668241402
 20
3530.571844653127
 30
21.0
  0
VERTEX
  5
296
330
292
100
AcDbEntity
  8
DEFAULT
100
AcDbVertex
100
AcDb2dVertex
 10
40947.3668241402
 20
4149.117676327771
 30
21.0
  0
SEQEND
  5
297
330
292
100
AcDbEntity
  8
DEFAULT
  0
POLYLINE
  5
298
330
1F
100
AcDbEntity
  8
DEFAULT
100
AcDb2dPolyline
 66
     1
 10
0.0
 20
0.0
 30
21.0
 70
     1
  0
VERTEX
  5
299
330
298
100
AcDbEntity
  8
DEFAULT
100
AcDbVertex
100
AcDb2dVertex
 10
40808.52267773256
 20
3705.957689531774
 30
21.0
  0
VERTEX
  5
29A
330
298
100
AcDbEntity
  8
DEFAULT
100
AcDbVertex
100
AcDb2dVertex
 10
40858.73711915109
 20
3644.053440971747
 30
21.0
  0
VERTEX
  5
29B
330
298
100
AcDbEntity
  8
DEFAULT
100
AcDbVertex
100
AcDb2dVertex
 10
40745.82458265621
 20
3644.053440971747
 30
21.0
  0
SEQEND
  5
29C
330
298
100
AcDbEntity
  8
DEFAULT
  0
CIRCLE
  5
29D
330
1F
100
AcDbEntity
  8
DEFAULT
100
AcDbCircle
 10
-37979.1814457648
 20
1323.933933663212
 30
-21.0
 40
28.22259737138666
210
0.0
220
0.0
230
-1.0
  0
POLYLINE
  5
29E
330
1F
100
AcDbEntity
  8
DEFAULT
100
AcDb2dPolyline
 66
     1
 10
0.0
 20
0.0
 30
21.0
 70
     1
  0
VERTEX
  5
29F
330
29E
100
AcDbEntity
  8
DEFAULT
100
AcDbVertex
100
AcDb2dVertex
 10
36303.56268925853
 20
1539.78857180387
 30
21.0
  0
VERTEX
  5
2A0
330
29E
100
AcDbEntity
  8
DEFAULT
100
AcDbVertex
100
AcDb2dVertex
 10
36303.56268925853
 20
1259.216727150743
 30
21.0
  0
VERTEX
  5
2A1
330
29E
100
AcDbEntity
  8
DEFAULT
100
AcDbVertex
100
AcDb2dVertex
 10
38601.30495442936
 20
1259.216727150743
 30
21.0
  0
VERTEX
  5
2A2
330
29E
100
AcDbEntity
  8
DEFAULT
100
AcDbVertex
100
AcDb2dVertex
 10
38601.30495442936
 20
1539.78857180387
 30
21.0
  0
SEQEND
  5
2A3
330
29E
100
AcDbEntity
  8
DEFAULT
  0
CIRCLE
  5
2A4
330
1F
100
AcDbEntity
  8
DEFAULT
100
AcDbCircle
 10
-33211.47972726645
 20
3158.087334641496
 30
-21.0
 40
5.640594607306411
210
0.0
220
0.0
230
-1.0
  0
POLYLINE
  5
2A5
330
1F
100
AcDbEntity
  8
DEFAULT
100
AcDb2dPolyline
 66
     1
 10
0.0
 20
0.0
 30
21.0
 70
     1
  0
VERTEX
  5
2A6
330
2A5
100
AcDbEntity
  8
DEFAULT
100
AcDbVertex
100
AcDb2dVertex
 10
33153.56268925853
 20
3591.249370832348
 30
21.0
  0
VERTEX
  5
2A7
330
2A5
100
AcDbEntity
  8
DEFAULT
100
AcDbVertex
100
AcDb2dVertex
 10
33153.56268925853
 20
2982.032643681604
 30
21.0
  0
VERTEX
  5
2A8
330
2A5
100
AcDbEntity
  8
DEFAULT
100
AcDbVertex
100
AcDb2dVertex
 10
33386.5667300566
 20
2982.032643681604
 30
21.0
  0
VERTEX
  5
2A9
330
2A5
100
AcDbEntity
  8
DEFAULT
100
AcDbVertex
100
AcDb2dVertex
 10
33386.5667300566
 20
3591.249370832348
 30
21.0
  0
SEQEND
  5
2AA
330
2A5
100
AcDbEntity
  8
DEFAULT
  0
CIRCLE
  5
2AB
330
1F
100
AcDbEntity
  8
DEFAULT
100
AcDbCircle
 10
-38139.48460800985
 20
3857.231531217309
 30
-21.0
 40
47.62951769842039
210
0.0
220
0.0
230
-1.0
  0
POLYLINE
  5
2AC
330
1F
100
AcDbEntity
  8
DEFAULT
100
AcDb2dPolyline
 66
     1
 10
0.0
 20
0.0
 30
21.0
 70
     1
  0
VERTEX
  5
2AD
330
2AC
100
AcDbEntity
  8
DEFAULT
100
AcDbVertex
100
AcDb2dVertex
 10
36303.56268925853
 20
4400.257564852027
 30
21.0
  0
VERTEX
  5
2AE
330
2AC
100
AcDbEntity
  8
DEFAULT
100
AcDbVertex
100
AcDb2dVertex
 10
36303.56268925853
 20
3368.224921170424
 30
21.0
  0
VERTEX
  5
2AF
330
2AC
100
AcDbEntity
  8
DEFAULT
100
AcDbVertex
100
AcDb2dVertex
 10
38679.8319794552
 20
3368.224921170424
 30
21.0
  0
VERTEX
  5
2B0
330
2AC
100
AcDbEntity
  8
DEFAULT
100
AcDbVertex
100
AcDb2dVertex
 10
38679.8319794552
 20
4400.257564852027
 30
21.0
  0
SEQEND
  5
2B1
330
2AC
100
AcDbEntity
  8
DEFAULT
  0
POLYLINE
  5
2B2
330
1F
100
AcDbEntity
  8
DEFAULT
100
AcDb2dPolyline
 66
     1
 10
0.0
 20
0.0
 30
21.0
 70
     1
  0
VERTEX
  5
2B3
330
2B2
100
AcDbEntity
  8
DEFAULT
100
AcDbVertex
100
AcDb2dVertex
 10
37652.9818177916
 20
4260.508427999228
 30
21.0
  0
VERTEX
  5
2B4
330
2B2
100
AcDbEntity
  8
DEFAULT
100
AcDbVertex
100
AcDb2dVertex
 10
37697.32622077714
 20
4169.711099214805
 30
21.0
  0
VERTEX
  5
2B5
330
2B2
100
AcDbEntity
  8
DEFAULT
100
AcDbVertex
100
AcDb2dVertex
 10
37597.37134777
 20
4169.711099214805
 30
21.0
  0
SEQEND
  5
2B6
330
2B2
100
AcDbEntity
  8
DEFAULT
  0
POLYLINE
  5
2B7
330
1F
100
AcDbEntity
  8
DEFAULT
100
AcDb2dPolyline
 66
     1
 10
0.0
 20
0.0
 30
21.0
 70
     1
  0
VERTEX
  5
2B8
330
2B7
100
AcDbEntity
  8
DEFAULT
100
AcDbVertex
100
AcDb2dVertex
 10
32453.56268925853
 20
980.1449895264232
 30
21.0
  0
VERTEX
  5
2B9
330
2B7
100
AcDbEntity
  8
DEFAULT
100
AcDbVertex
100
AcDb2dVertex
 10
32453.56268925853
 20
861.9200683559999
 30
21.0
  0
VERTEX
  5
2BA
330
2B7
100
AcDbEntity
  8
DEFAULT
100
AcDbVertex
100
AcDb2dVertex
 10
32880.64253401466
 20
861.9200683559999
 30
21.0
  0
VERTEX
  5
2BB
330
2B7
100
AcDbEntity
  8
DEFAULT
100
AcDbVertex
100
AcDb2dVertex
 10
32880.64253401466
 20
980.1449895264232
 30
21.0
  0
SEQEND
  5
2BC
330
2B7
100
AcDbEntity
  8
DEFAULT
  0
POLYLINE
  5
2BD
330
1F
100
AcDbEntity
  8
DEFAULT
100
AcDb2dPolyline
 66
     1
 10
0.0
 20
0.0
 30
21.0
 70
     1
  0
VERTEX
  5
2BE
330
2BD
100
AcDbEntity
  8
DEFAULT
100
AcDbVertex
100
AcDb2dVertex
 10
32849.14233286054
 20
952.9546520518813
 30
21.0
  0
VERTEX
  5
2BF
330
2BD
100
AcDbEntity
  8
DEFAULT
100
AcDbVertex
100
AcDb2dVertex
 10
32860.94679471311
 20
913.8872557262654
 30
21.0
  0
VERTEX
  5
2C0
330
2BD
100
AcDbEntity
  8
DEFAULT
100
AcDbVertex
100
AcDb2dVertex
 10
32833.0280848692
 20
913.8872557262654
 30
21.0
  0
SEQEND
  5
2C1
330
2BD
100
AcDbEntity
  8
DEFAULT
  0
POLYLINE
  5
2C2
330
1F
100
AcDbEntity
  8
DEFAULT
100
AcDb2dPolyline
 66
     1
 10
0.0
 20
0.0
 30
21.0
 70
     1
  0
VERTEX
  5
2C3
330
2C2
100
AcDbEntity
  8
DEFAULT
100
AcDbVertex
100
AcDb2dVertex
 10
32528.98809102601
 20
977.4325827963617
 30
21.0
  0
VERTEX
  5
2C4
330
2C2
100
AcDbEntity
  8
DEFAULT
100
AcDbVertex
100
AcDb2dVertex
 10
32539.68759632351
 20
920.8332352242676
 30
21.0
  0
VERTEX
  5
2C5
330
2C2
100
AcDbEntity
  8
DEFAULT
100
AcDbVertex
100
AcDb2dVertex
 10
32516.49178901189
 20
920.8332352242676
 30
21.0
  0
SEQEND
  5
2C6
330
2C2
100
AcDbEntity
  8
DEFAULT
  0
POLYLINE
  5
2C7
330
1F
100
AcDbEntity
  8
DEFAULT
100
AcDb2dPolyline
 66
     1
 10
0.0
 20
0.0
 30
21.0
 70
     1
  0
VERTEX
  5
2C8
330
2C7
100
AcDbEntity
  8
DEFAULT
100
AcDbVertex
100
AcDb2dVertex
 10
32453.56268925853
 20
1393.576398551478
 30
21.0
  0
VERTEX
  5
2C9
330
2C7
100
AcDbEntity
  8
DEFAULT
100
AcDbVertex
100
AcDb2dVertex
 10
32453.56268925853
 20
1181.656330195478
 30
21.0
  0
VERTEX
  5
2CA
330
2C7
100
AcDbEntity
  8
DEFAULT
100
AcDbVertex
100
AcDb2dVertex
 10
33384.03685355892
 20
1181.656330195478
 30
21.0
  0
VERTEX
  5
2CB
330
2C7
100
AcDbEntity
  8
DEFAULT
100
AcDbVertex
100
AcDb2dVertex
 10
33384.03685355892
 20
1393.576398551478
 30
21.0
  0
SEQEND
  5
2CC
330
2C7
100
AcDbEntity
  8
DEFAULT
  0
POLYLINE
  5
2CD
330
1F
100
AcDbEntity
  8
DEFAULT
100
AcDb2dPolyline
 66
     1
 10
0.0
 20
0.0
 30
21.0
 70
     1
  0
VERTEX
  5
2CE
330
2CD
100
AcDbEntity
  8
DEFAULT
100
AcDbVertex
100
AcDb2dVertex
 10
33383.95073824226
 20
1236.924714565605
 30
21.0
  0
VERTEX
  5
2CF
330
2CD
100
AcDbEntity
  8
DEFAULT
100
AcDbVertex
100
AcDb2dVertex
 10
33241.19645261068
 20
1236.924714565605
 30
21.0
  0
VERTEX
  5
2D0
330
2CD
100
AcDbEntity
  8
DEFAULT
100
AcDbVertex
100
AcDb2dVertex
 10
33241.19645261068
 20
1323.060034771537
 30
21.0
  0
VERTEX
  5
2D1
330
2CD
100
AcDbEntity
  8
DEFAULT
100
AcDbVertex
100
AcDb2dVertex
 10
33383.95073824226
 20
1323.060034771537
 30
21.0
  0
SEQEND
  5
2D2
330
2CD
100
AcDbEntity
  8
DEFAULT
  0
CIRCLE
  5
2D3
330
1F
100
AcDbEntity
  8
DEFAULT
100
AcDbCircle
 10
41469.39085435627
 20
2620.183802157837
 30
21.0
 40
265.8281650977297
  0
POLYLINE
  5
2D4
330
1F
100
AcDbEntity
  8
DEFAULT
100
AcDb2dPolyline
 66
     1
 10
0.0
 20
0.0
 30
21.0
 70
     1
  0
VERTEX
  5
2D5
330
2D4
100
AcDbEntity
  8
DEFAULT
100
AcDbVertex
100
AcDb2dVertex
 10
41280.83818655389
 20
2594.232743230016
 30
21.0
  0
VERTEX
  5
2D6
330
2D4
100
AcDbEntity
  8
DEFAULT
100
AcDbVertex
100
AcDb2dVertex
 10
41242.91447734869
 20
2594.232743230016
 30
21.0
  0
VERTEX
  5
2D7
330
2D4
100
AcDbEntity
  8
DEFAULT
100
AcDbVertex
100
AcDb2dVertex
 10
41242.91447734869
 20
2701.873600040824
 30
21.0
  0
VERTEX
  5
2D8
330
2D4
100
AcDbEntity
  8
DEFAULT
100
AcDbVertex
100
AcDb2dVertex
 10
41280.83818655389
 20
2701.873600040824
 30
21.0
  0
SEQEND
  5
2D9
330
2D4
100
AcDbEntity
  8
DEFAULT
  0
POLYLINE
  5
2DA
330
1F
100
AcDbEntity
  8
DEFAULT
100
AcDb2dPolyline
 66
     1
 10
0.0
 20
0.0
 30
21.0
 70
     1
  0
VERTEX
  5
2DB
330
2DA
100
AcDbEntity
  8
DEFAULT
100
AcDbVertex
100
AcDb2dVertex
 10
41482.78637751847
 20
2452.183819796704
 30
21.0
  0
VERTEX
  5
2DC
330
2DA
100
AcDbEntity
  8
DEFAULT
100
AcDbVertex
100
AcDb2dVertex
 10
41550.30051837153
 20
2371.691621979322
 30
21.0
  0
VERTEX
  5
2DD
330
2DA
100
AcDbEntity
  8
DEFAULT
100
AcDbVertex
100
AcDb2dVertex
 10
41426.60985785917
 20
2371.691621979322
 30
21.0
  0
SEQEND
  5
2DE
330
2DA
100
AcDbEntity
  8
DEFAULT
  0
POLYLINE
  5
2DF
330
1F
100
AcDbEntity
  8
DEFAULT
100
AcDb2dPolyline
 66
     1
 10
0.0
 20
0.0
 30
21.0
 70
     1
  0
VERTEX
  5
2E0
330
2DF
100
AcDbEntity
  8
DEFAULT
100
AcDbVertex
100
AcDb2dVertex
 10
40153.56268925853
 20
2912.103563333445
 30
21.0
  0
VERTEX
  5
2E1
330
2DF
100
AcDbEntity
  8
DEFAULT
100
AcDbVertex
100
AcDb2dVertex
 10
40153.56268925853
 20
2507.747926273359
 30
21.0
  0
VERTEX
  5
2E2
330
2DF
100
AcDbEntity
  8
DEFAULT
100
AcDbVertex
100
AcDb2dVertex
 10
40809.10269101503
 20
2507.747926273359
 30
21.0
  0
VERTEX
  5
2E3
330
2DF
100
AcDbEntity
  8
DEFAULT
100
AcDbVertex
100
AcDb2dVertex
 10
40809.10269101503
 20
2912.103563333445
 30
21.0
  0
SEQEND
  5
2E4
330
2DF
100
AcDbEntity
  8
DEFAULT
  0
POLYLINE
  5
2E5
330
1F
100
AcDbEntity
  8
DEFAULT
100
AcDb2dPolyline
 66
     1
 10
0.0
 20
0.0
 30
21.0
 70
     1
  0
VERTEX
  5
2E6
330
2E5
100
AcDbEntity
  8
DEFAULT
100
AcDbVertex
100
AcDb2dVertex
 10
40659.32962126937
 20
2624.756955644082
 30
21.0
  0
VERTEX
  5
2E7
330
2E5
100
AcDbEntity
  8
DEFAULT
100
AcDbVertex
100
AcDb2dVertex
 10
40646.54706038138
 20
2624.756955644082
 30
21.0
  0
VERTEX
  5
2E8
330
2E5
100
AcDbEntity
  8
DEFAULT
100
AcDbVertex
100
AcDb2dVertex
 10
40646.54706038138
 20
2691.822251384726
 30
21.0
  0
VERTEX
  5
2E9
330
2E5
100
AcDbEntity
  8
DEFAULT
100
AcDbVertex
100
AcDb2dVertex
 10
40659.32962126937
 20
2691.822251384726
 30
21.0
  0
SEQEND
  5
2EA
330
2E5
100
AcDbEntity
  8
DEFAULT
  0
POLYLINE
  5
2EB
330
1F
100
AcDbEntity
  8
DEFAULT
100
AcDb2dPolyline
 66
     1
 10
0.0
 20
0.0
 30
21.0
 70
     1
  0
VERTEX
  5
2EC
330
2EB
100
AcDbEntity
  8
DEFAULT
100
AcDbVertex
100
AcDb2dVertex
 10
39453.56268925853
 20
3473.40240388545
 30
21.0
  0
VERTEX
  5
2ED
330
2EB
100
AcDbEntity
  8
DEFAULT
100
AcDbVertex
100
AcDb2dVertex
 10
39453.56268925853
 20
2265.654477612091
 30
21.0
  0
VERTEX
  5
2EE
330
2EB
100
AcDbEntity
  8
DEFAULT
100
AcDbVertex
100
AcDb2dVertex
 10
40049.18490793702
 20
2265.654477612091
 30
21.0
  0
VERTEX
  5
2EF
330
2EB
100
AcDbEntity
  8
DEFAULT
100
AcDbVertex
100
AcDb2dVertex
 10
40049.18490793702
 20
3473.40240388545
 30
21.0
  0
SEQEND
  5
2F0
330
2EB
100
AcDbEntity
  8
DEFAULT
  0
POLYLINE
  5
2F1
330
1F
100
AcDbEntity
  8
DEFAULT
100
AcDb2dPolyline
 66
     1
 10
0.0
 20
0.0
 30
21.0
 70
     1
  0
VERTEX
  5
2F2
330
2F1
100
AcDbEntity
  8
DEFAULT
100
AcDbVertex
100
AcDb2dVertex
 10
39897.47869947617
 20
3212.732779731376
 30
21.0
  0
VERTEX
  5
2F3
330
2F1
100
AcDbEntity
  8
DEFAULT
100
AcDbVertex
100
AcDb2dVertex
 10
39734.28299327948
 20
3212.732779731376
 30
21.0
  0
VERTEX
  5
2F4
330
2F1
100
AcDbEntity
  8
DEFAULT
100
AcDbVertex
100
AcDb2dVertex
 10
39734.28299327948
 20
3274.931546904053
 30
21.0
  0
VERTEX
  5
2F5
330
2F1
100
AcDbEntity
  8
DEFAULT
100
AcDbVertex
100
AcDb2dVertex
 10
39897.47869947617
 20
3274.931546904053
 30
21.0
  0
SEQEND
  5
2F6
330
2F1
100
AcDbEntity
  8
DEFAULT
  0
POLYLINE
  5
2F7
330
1F
100
AcDbEntity
  8
DEFAULT
100
AcDb2dPolyline
 66
     1
 10
0.0
 20
0.0
 30
21.0
 70
     1
  0
VERTEX
  5
2F8
330
2F7
100
AcDbEntity
  8
DEFAULT
100
AcDbVertex
100
AcDb2dVertex
 10
39663.66390819539
 20
3443.644696294996
 30
21.0
  0
VERTEX
  5
2F9
330
2F7
100
AcDbEntity
  8
DEFAULT
100
AcDbVertex
100
AcDb2dVertex
 10
39560.00030349946
 20
3443.644696294996
 30
21.0
  0
VERTEX
  5
2FA
330
2F7
100
AcDbEntity
  8
DEFAULT
100
AcDbVertex
100
AcDb2dVertex
 10
39560.00030349946
 20
3456.955698633652
 30
21.0
  0
VERTEX
  5
2FB
330
2F7
100
AcDbEntity
  8
DEFAULT
100
AcDbVertex
100
AcDb2dVertex
 10
39663.66390819539
 20
3456.955698633652
 30
21.0
  0
SEQEND
  5
2FC
330
2F7
100
AcDbEntity
  8
DEFAULT
  0
CIRCLE
  5
2FD
330
1F
100
AcDbEntity
  8
DEFAULT
100
AcDbCircle
 10
-35414.74854157611
 20
2926.034647191458
 30
-21.0
 40
51.79910463041597
210
0.0
220
0.0
230
-1.0
  0
CIRCLE
  5
2FE
330
1F
100
AcDbEntity
  8
DEFAULT
100
AcDbCircle
 10
-35967.66819632565
 20
2931.598224263122
 30
-21.0
 40
40.78921255985915
210
0.0
220
0.0
230
-1.0
  0
POLYLINE
  5
2FF
330
1F
100
AcDbEntity
  8
DEFAULT
100
AcDb2dPolyline
 66
     1
 10
0.0
 20
0.0
 30
21.0
 70
     1
  0
VERTEX
  5
300
330
2FF
100
AcDbEntity
  8
DEFAULT
100
AcDbVertex
100
AcDb2dVertex
 10
35575.77482263011
 20
3813.841982713405
 30
21.0
  0
VERTEX
  5
301
330
2FF
100
AcDbEntity
  8
DEFAULT
100
AcDbVertex
100
AcDb2dVertex
 10
34903.56268925853
 20
2848.187505101314
 30
21.0
  0
VERTEX
  5
302
330
2FF
100
AcDbEntity
  8
DEFAULT
100
AcDbVertex
100
AcDb2dVertex
 10
36097.08955300437
 20
2848.187505101314
 30
21.0
  0
SEQEND
  5
303
330
2FF
100
AcDbEntity
  8
DEFAULT
  0
CIRCLE
  5
304
330
1F
100
AcDbEntity
  8
DEFAULT
100
AcDbCircle
 10
-38944.37344009491
 20
1666.612167109961
 30
-21.0
 40
7.162655053354683
210
0.0
220
0.0
230
-1.0
  0
POLYLINE
  5
305
330
1F
100
AcDbEntity
  8
DEFAULT
100
AcDb2dPolyline
 66
     1
 10
0.0
 20
0.0
 30
21.0
 70
     1
  0
VERTEX
  5
306
330
305
100
AcDbEntity
  8
DEFAULT
100
AcDbVertex
100
AcDb2dVertex
 10
39004.32650204391
 20
2523.715327173877
 30
21.0
  0
VERTEX
  5
307
330
305
100
AcDbEntity
  8
DEFAULT
100
AcDbVertex
100
AcDb2dVertex
 10
38753.56268925853
 20
1625.527822072563
 30
21.0
  0
VERTEX
  5
308
330
305
100
AcDbEntity
  8
DEFAULT
100
AcDbVertex
100
AcDb2dVertex
 10
39184.1429540147
 20
1625.527822072563
 30
21.0
  0
SEQEND
  5
309
330
305
100
AcDbEntity
  8
DEFAULT
  0
POLYLINE
  5
30A
330
1F
100
AcDbEntity
  8
DEFAULT
100
AcDb2dPolyline
 66
     1
 10
0.0
 20
0.0
 30
21.0
 70
     1
  0
VERTEX
  5
30B
330
30A
100
AcDbEntity
  8
DEFAULT
100
AcDbVertex
100
AcDb2dVertex
 10
39013.13501663597
 20
2392.598475759202
 30
21.0
  0
VERTEX
  5
30C
330
30A
100
AcDbEntity
  8
DEFAULT
100
AcDbVertex
100
AcDb2dVertex
 10
39055.88853985481
 20
2249.627662006276
 30
21.0
  0
VERTEX
  5
30D
330
30A
100
AcDbEntity
  8
DEFAULT
100
AcDbVertex
100
AcDb2dVertex
 10
38965.8141981239
 20
2249.627662006276
 30
21.0
  0
SEQEND
  5
30E
330
30A
100
AcDbEntity
  8
DEFAULT
  0
POLYLINE
  5
30F
330
1F
100
AcDbEntity
  8
DEFAULT
100
AcDb2dPolyline
 66
     1
 10
0.0
 20
0.0
 30
21.0
 70
     1
  0
VERTEX
  5
310
330
30F
100
AcDbEntity
  8
DEFAULT
100
AcDbVertex
100
AcDb2dVertex
 10
37353.56268925853
 20
3156.456672355949
 30
21.0
  0
VERTEX
  5
311
330
30F
100
AcDbEntity
  8
DEFAULT
100
AcDbVertex
100
AcDb2dVertex
 10
37353.56268925853
 20
2180.928850283385
 30
21.0
  0
VERTEX
  5
312
330
30F
100
AcDbEntity
  8
DEFAULT
100
AcDbVertex
100
AcDb2dVertex
 10
38448.203700555
 20
2180.928850283385
 30
21.0
  0
VERTEX
  5
313
330
30F
100
AcDbEntity
  8
DEFAULT
100
AcDbVertex
100
AcDb2dVertex
 10
38448.203700555
 20
3156.456672355949
 30
21.0
  0
SEQEND
  5
314
330
30F
100
AcDbEntity
  8
DEFAULT
  0
POLYLINE
  5
315
330
1F
100
AcDbEntity
  8
DEFAULT
100
AcDb2dPolyline
 66
     1
 10
0.0
 20
0.0
 30
21.0
 70
     1
  0
VERTEX
  5
316
330
315
100
AcDbEntity
  8
DEFAULT
100
AcDbVertex
100
AcDb2dVertex
 10
37353.56268925853
 20
1892.944561915354
 30
21.0
  0
VERTEX
  5
317
330
315
100
AcDbEntity
  8
DEFAULT
100
AcDbVertex
100
AcDb2dVertex
 10
37353.56268925853
 20
1662.01571163197
 30
21.0
  0
VERTEX
  5
318
330
315
100
AcDbEntity
  8
DEFAULT
100
AcDbVertex
100
AcDb2dVertex
 10
38458.61248986511
 20
1662.01571163197
 30
21.0
  0
VERTEX
  5
319
330
315
100
AcDbEntity
  8
DEFAULT
100
AcDbVertex
100
AcDb2dVertex
 10
38458.61248986511
 20
1892.944561915354
 30
21.0
  0
SEQEND
  5
31A
330
315
100
AcDbEntity
  8
DEFAULT
  0
POLYLINE
  5
31B
330
1F
100
AcDbEntity
  8
DEFAULT
100
AcDb2dPolyline
 66
     1
 10
0.0
 20
0.0
 30
21.0
 70
     1
  0
VERTEX
  5
31C
330
31B
100
AcDbEntity
  8
DEFAULT
100
AcDbVertex
100
AcDb2dVertex
 10
36303.56268925853
 20
2736.321980070841
 30
21.0
  0
VERTEX
  5
31D
330
31B
100
AcDbEntity
  8
DEFAULT
100
AcDbVertex
100
AcDb2dVertex
 10
36303.56268925853
 20
1724.306268438872
 30
21.0
  0
VERTEX
  5
31E
330
31B
100
AcDbEntity
  8
DEFAULT
100
AcDbVertex
100
AcDb2dVertex
 10
36971.79530376436
 20
1724.306268438872
 30
21.0
  0
VERTEX
  5
31F
330
31B
100
AcDbEntity
  8
DEFAULT
100
AcDbVertex
100
AcDb2dVertex
 10
36971.79530376436
 20
2736.321980070841
 30
21.0
  0
SEQEND
  5
320
330
31B
100
AcDbEntity
  8
DEFAULT
  0
POLYLINE
  5
321
330
1F
100
AcDbEntity
  8
DEFAULT
100
AcDb2dPolyline
 66
     1
 10
0.0
 20
0.0
 30
21.0
 70
     1
  0
VERTEX
  5
322
330
321
100
AcDbEntity
  8
DEFAULT
100
AcDbVertex
100
AcDb2dVertex
 10
36617.33925469624
 20
2565.699881021809
 30
21.0
  0
VERTEX
  5
323
330
321
100
AcDbEntity
  8
DEFAULT
100
AcDbVertex
100
AcDb2dVertex
 10
36628.22294481447
 20
2556.683625615619
 30
21.0
  0
VERTEX
  5
324
330
321
100
AcDbEntity
  8
DEFAULT
100
AcDbVertex
100
AcDb2dVertex
 10
36605.682306299
 20
2556.683625615619
 30
21.0
  0
SEQEND
  5
325
330
321
100
AcDbEntity
  8
DEFAULT
  0
CIRCLE
  5
326
330
1F
100
AcDbEntity
  8
DEFAULT
100
AcDbCircle
 10
-41770.02090615475
 20
1551.094852879554
 30
-21.0
 40
5.115301000245381
210
0.0
220
0.0
230
-1.0
  0
POLYLINE
  5
327
330
1F
100
AcDbEntity
  8
DEFAULT
100
AcDb2dPolyline
 66
     1
 10
0.0
 20
0.0
 30
21.0
 70
     1
  0
VERTEX
  5
328
330
327
100
AcDbEntity
  8
DEFAULT
100
AcDbVertex
100
AcDb2dVertex
 10
41485.89753215648
 20
2251.799405760861
 30
21.0
  0
VERTEX
  5
329
330
327
100
AcDbEntity
  8
DEFAULT
100
AcDbVertex
100
AcDb2dVertex
 10
40503.56268925853
 20
1177.49313732199
 30
21.0
  0
VERTEX
  5
32A
330
327
100
AcDbEntity
  8
DEFAULT
100
AcDbVertex
100
AcDb2dVertex
 10
42093.06940892672
 20
1177.49313732199
 30
21.0
  0
SEQEND
  5
32B
330
327
100
AcDbEntity
  8
DEFAULT
  0
POLYLINE
  5
32C
330
1F
100
AcDbEntity
  8
DEFAULT
100
AcDb2dPolyline
 66
     1
 10
0.0
 20
0.0
 30
21.0
 70
     1
  0
VERTEX
  5
32D
330
32C
100
AcDbEntity
  8
DEFAULT
100
AcDbVertex
100
AcDb2dVertex
 10
39453.56268925853
 20
1631.916733529904
 30
21.0
  0
VERTEX
  5
32E
330
32C
100
AcDbEntity
  8
DEFAULT
100
AcDbVertex
100
AcDb2dVertex
 10
39453.56268925853
 20
1104.423596207914
 30
21.0
  0
VERTEX
  5
32F
330
32C
100
AcDbEntity
  8
DEFAULT
100
AcDbVertex
100
AcDb2dVertex
 10
40415.32507794955
 20
1104.423596207914
 30
21.0
  0
VERTEX
  5
330
330
32C
100
AcDbEntity
  8
DEFAULT
100
AcDbVertex
100
AcDb2dVertex
 10
40415.32507794955
 20
1631.916733529904
 30
21.0
  0
SEQEND
  5
331
330
32C
100
AcDbEntity
  8
DEFAULT
  0
POLYLINE
  5
332
330
1F
100
AcDbEntity
  8
DEFAULT
100
AcDb2dPolyline
 66
     1
 10
0.0
 20
0.0
 30
21.0
 70
     1
  0
VERTEX
  5
333
330
332
100
AcDbEntity
  8
DEFAULT
100
AcDbVertex
100
AcDb2dVertex
 10
39610.42720303183
 20
1516.159203334124
 30
21.0
  0
VERTEX
  5
334
330
332
100
AcDbEntity
  8
DEFAULT
100
AcDbVertex
100
AcDb2dVertex
 10
39644.89520300769
 20
1340.955435502678
 30
21.0
  0
VERTEX
  5
335
330
332
100
AcDbEntity
  8
DEFAULT
100
AcDbVertex
100
AcDb2dVertex
 10
39563.83664718458
 20
1340.955435502678
 30
21.0
  0
SEQEND
  5
336
330
332
100
AcDbEntity
  8
DEFAULT
  0
POLYLINE
  5
337
330
1F
100
AcDbEntity
  8
DEFAULT
100
AcDb2dPolyline
 66
     1
 10
0.0
 20
0.0
 30
21.0
 70
     1
  0
VERTEX
  5
338
330
337
100
AcDbEntity
  8
DEFAULT
100
AcDbVertex
100
AcDb2dVertex
 10
34203.56268925853
 20
3204.91541605321
 30
21.0
  0
VERTEX
  5
339
330
337
100
AcDbEntity
  8
DEFAULT
100
AcDbVertex
100
AcDb2dVertex
 10
34203.56268925853
 20
2750.491819845295
 30
21.0
  0
VERTEX
  5
33A
330
337
100
AcDbEntity
  8
DEFAULT
100
AcDbVertex
100
AcDb2dVertex
 10
34777.48600160437
 20
2750.491819845295
 30
21.0
  0
VERTEX
  5
33B
330
337
100
AcDbEntity
  8
DEFAULT
100
AcDbVertex
100
AcDb2dVertex
 10
34777.48600160437
 20
3204.91541605321
 30
21.0
  0
SEQEND
  5
33C
330
337
100
AcDbEntity
  8
DEFAULT
  0
POLYLINE
  5
33D
330
1F
100
AcDbEntity
  8
DEFAULT
100
AcDb2dPolyline
 66
     1
 10
0.0
 20
0.0
 30
21.0
 70
     1
  0
VERTEX
  5
33E
330
33D
100
AcDbEntity
  8
DEFAULT
100
AcDbVertex
100
AcDb2dVertex
 10
34313.63801101051
 20
3150.802665588815
 30
21.0
  0
VERTEX
  5
33F
330
33D
100
AcDbEntity
  8
DEFAULT
100
AcDbVertex
100
AcDb2dVertex
 10
34362.78714407781
 20
3026.60532201837
 30
21.0
  0
VERTEX
  5
340
330
33D
100
AcDbEntity
  8
DEFAULT
100
AcDbVertex
100
AcDb2dVertex
 10
34247.76998082556
 20
3026.60532201837
 30
21.0
  0
SEQEND
  5
341
330
33D
100
AcDbEntity
  8
DEFAULT
  0
POLYLINE
  5
342
330
1F
100
AcDbEntity
  8
DEFAULT
100
AcDb2dPolyline
 66
     1
 10
0.0
 20
0.0
 30
21.0
 70
     1
  0
VERTEX
  5
343
330
342
100
AcDbEntity
  8
DEFAULT
100
AcDbVertex
100
AcDb2dVertex
 10
34483.77278079227
 20
2781.636809176735
 30
21.0
  0
VERTEX
  5
344
330
342
100
AcDbEntity
  8
DEFAULT
100
AcDbVertex
100
AcDb2dVertex
 10
34351.99531546316
 20
2781.636809176735
 30
21.0
  0
VERTEX
  5
345
330
342
100
AcDbEntity
  8
DEFAULT
100
AcDbVertex
100
AcDb2dVertex
 10
34351.99531546316
 20
2872.07013254643
 30
21.0
  0
VERTEX
  5
346
330
342
100
AcDbEntity
  8
DEFAULT
100
AcDbVertex
100
AcDb2dVertex
 10
34483.77278079227
 20
2872.07013254643
 30
21.0
  0
SEQEND
  5
347
330
342
100
AcDbEntity
  8
DEFAULT
  0
POLYLINE
  5
348
330
1F
100
AcDbEntity
  8
DEFAULT
100
AcDb2dPolyline
 66
     1
 10
0.0
 20
0.0
 30
21.0
 70
     1
  0
VERTEX
  5
349
330
348
100
AcDbEntity
  8
DEFAULT
100
AcDbVertex
100
AcDb2dVertex
 10
33503.56268925853
 20
3970.051275107298
 30
21.0
  0
VERTEX
  5
34A
330
348
100
AcDbEntity
  8
DEFAULT
100
AcDbVertex
100
AcDb2dVertex
 10
33503.56268925853
 20
1869.559455262002
 30
21.0
  0
VERTEX
  5
34B
330
348
100
AcDbEntity
  8
DEFAULT
100
AcDbVertex
100
AcDb2dVertex
 10
33864.7070315948
 20
1869.559455262002
 30
21.0
  0
VERTEX
  5
34C
330
348
100
AcDbEntity
  8
DEFAULT
100
AcDbVertex
100
AcDb2dVertex
 10
33864.7070315948
 20
3970.051275107298
 30
21.0
  0
SEQEND
  5
34D
330
348
100
AcDbEntity
  8
DEFAULT
  0
POLYLINE
  5
34E
330
1F
100
AcDbEntity
  8
DEFAULT
100
AcDb2dPolyline
 66
     1
 10
0.0
 20
0.0
 30
21.0
 70
     1
  0
VERTEX
  5
34F
330
34E
100
AcDbEntity
  8
DEFAULT
100
AcDbVertex
100
AcDb2dVertex
 10
35253.56268925853
 20
2697.103506959346
 30
21.0
  0
VERTEX
  5
350
330
34E
100
AcDbEntity
  8
DEFAULT
100
AcDbVertex
100
AcDb2dVertex
 10
35253.56268925853
 20
1477.544051697344
 30
21.0
  0
VERTEX
  5
351
330
34E
100
AcDbEntity
  8
DEFAULT
100
AcDbVertex
100
AcDb2dVertex
 10
36118.16035965678
 20
1477.544051697344
 30
21.0
  0
VERTEX
  5
352
330
34E
100
AcDbEntity
  8
DEFAULT
100
AcDbVertex
100
AcDb2dVertex
 10
36118.16035965678
 20
2697.103506959346
 30
21.0
  0
SEQEND
  5
353
330
34E
100
AcDbEntity
  8
DEFAULT
  0
POLYLINE
  5
354
330
1F
100
AcDbEntity
  8
DEFAULT
100
AcDb2dPolyline
 66
     1
 10
0.0
 20
0.0
 30
21.0
 70
     1
  0
VERTEX
  5
355
330
354
100
AcDbEntity
  8
DEFAULT
100
AcDbVertex
100
AcDb2dVertex
 10
35702.75658603076
 20
1579.175529162884
 30
21.0
  0
VERTEX
  5
356
330
354
100
AcDbEntity
  8
DEFAULT
100
AcDbVertex
100
AcDb2dVertex
 10
35706.94860418982
 20
1556.151990818611
 30
21.0
  0
VERTEX
  5
357
330
354
100
AcDbEntity
  8
DEFAULT
100
AcDbVertex
100
AcDb2dVertex
 10
35697.73918885211
 20
1556.151990818611
 30
21.0
  0
SEQEND
  5
358
330
354
100
AcDbEntity
  8
DEFAULT
  0
POLYLINE
  5
359
330
1F
100
AcDbEntity
  8
DEFAULT
100
AcDb2dPolyline
 66
     1
 10
0.0
 20
0.0
 30
21.0
 70
     1
  0
VERTEX
  5
35A
330
359
100
AcDbEntity
  8
DEFAULT
100
AcDbVertex
100
AcDb2dVertex
 10
35432.17518690753
 20
2368.125173166838
 30
21.0
  0
VERTEX
  5
35B
330
359
100
AcDbEntity
  8
DEFAULT
100
AcDbVertex
100
AcDb2dVertex
 10
35366.29799492995
 20
2368.125173166838
 30
21.0
  0
VERTEX
  5
35C
330
359
100
AcDbEntity
  8
DEFAULT
100
AcDbVertex
100
AcDb2dVertex
 10
35366.29799492995
 20
2482.713674744019
 30
21.0
  0
VERTEX
  5
35D
330
359
100
AcDbEntity
  8
DEFAULT
100
AcDbVertex
100
AcDb2dVertex
 10
35432.17518690753
 20
2482.713674744019
 30
21.0
  0
SEQEND
  5
35E
330
359
100
AcDbEntity
  8
DEFAULT
  0
CIRCLE
  5
35F
330
1F
100
AcDbEntity
  8
DEFAULT
100
AcDbCircle
 10
34617.3347151072
 20
1379.57092803603
 30
21.0
 40
413.7720258486734
  0
CIRCLE
  5
360
330
1F
100
AcDbEntity
  8
DEFAULT
100
AcDbCircle
 10
-34693.14530615793
 20
1710.092385736942
 30
-21.0
 40
47.02866918878135
210
0.0
220
0.0
230
-1.0
  0
POLYLINE
  5
361
330
1F
100
AcDbEntity
  8
DEFAULT
100
AcDb2dPolyline
 66
     1
 10
0.0
 20
0.0
 30
21.0
 70
     1
  0
VERTEX
  5
362
330
361
100
AcDbEntity
  8
DEFAULT
100
AcDbVertex
100
AcDb2dVertex
 10
33849.23279760938
 20
1667.067324876824
 30
21.0
  0
VERTEX
  5
363
330
361
100
AcDbEntity
  8
DEFAULT
100
AcDbVertex
100
AcDb2dVertex
 10
33503.56268925853
 20
1351.268422689464
 30
21.0
  0
VERTEX
  5
364
330
361
100
AcDbEntity
  8
DEFAULT
100
AcDbVertex
100
AcDb2dVertex
 10
34089.26718421057
 20
1351.268422689464
 30
21.0
  0
SEQEND
  5
365
330
361
100
AcDbEntity
  8
DEFAULT
  0
CIRCLE
  5
366
330
1F
100
AcDbEntity
  8
DEFAULT
100
AcDbCircle
 10
32804.19690060326
 20
2004.034825510913
 30
21.0
 40
350.6342113447317
  0
CIRCLE
  5
367
330
1F
100
AcDbEntity
  8
DEFAULT
100
AcDbCircle
 10
-32546.55128721246
 20
1984.287141792967
 30
-21.0
 40
78.80428912116622
210
0.0
220
0.0
230
-1.0
  0
POLYLINE
  5
368
330
1F
100
AcDbEntity
  8
DEFAULT
100
AcDb2dPolyline
 66
     1
 10
0.0
 20
0.0
 30
21.0
 70
     1
  0
VERTEX
  5
369
330
368
100
AcDbEntity
  8
DEFAULT
100
AcDbVertex
100
AcDb2dVertex
 10
33045.22637485159
 20
1921.151601236328
 30
21.0
  0
VERTEX
  5
36A
330
368
100
AcDbEntity
  8
DEFAULT
100
AcDbVertex
100
AcDb2dVertex
 10
33065.79066931513
 20
1901.358722563081
 30
21.0
  0
VERTEX
  5
36B
330
368
100
AcDbEntity
  8
DEFAULT
100
AcDbVertex
100
AcDb2dVertex
 10
33016.30847263201
 20
1901.358722563081
 30
21.0
  0
SEQEND
  5
36C
330
368
100
AcDbEntity
  8
DEFAULT
  0
POLYLINE
  5
36D
330
1F
100
AcDbEntity
  8
DEFAULT
100
AcDb2dPolyline
 66
     1
 10
0.0
 20
0.0
 30
21.0
 70
     1
  0
VERTEX
  5
36E
330
36D
100
AcDbEntity
  8
DEFAULT
100
AcDbVertex
100
AcDb2dVertex
 10
32481.3410270195
 20
3705.159363510988
 30
21.0
  0
VERTEX
  5
36F
330
36D
100
AcDbEntity
  8
DEFAULT
100
AcDbVertex
100
AcDb2dVertex
 10
32103.56268925853
 20
2701.7587493448
 30
21.0
  0
VERTEX
  5
370
330
36D
100
AcDbEntity
  8
DEFAULT
100
AcDbVertex
100
AcDb2dVertex
 10
32793.11221511058
 20
2701.7587493448
 30
21.0
  0
SEQEND
  5
371
330
36D
100
AcDbEntity
  8
DEFAULT
  0
CIRCLE
  5
372
330
1F
100
AcDbEntity
  8
DEFAULT
100
AcDbCircle
 10
-41669.21793972206
 20
283.0236227968853
 30
-21.0
 40
6.853488986453158
210
0.0
220
0.0
230
-1.0
  0
POLYLINE
  5
373
330
1F
100
AcDbEntity
  8
DEFAULT
100
AcDb2dPolyline
 66
     1
 10
0.0
 20
0.0
 30
21.0
 70
     1
  0
VERTEX
  5
374
330
373
100
AcDbEntity
  8
DEFAULT
100
AcDbVertex
100
AcDb2dVertex
 10
41276.54981560595
 20
850.8255253326965
 30
21.0
  0
VERTEX
  5
375
330
373
100
AcDbEntity
  8
DEFAULT
100
AcDbVertex
100
AcDb2dVertex
 10
41276.54981560595
 20
0.0
 30
21.0
  0
VERTEX
  5
376
330
373
100
AcDbEntity
  8
DEFAULT
100
AcDbVertex
100
AcDb2dVertex
 10
41822.16179242273
 20
0.0
 30
21.0
  0
VERTEX
  5
377
330
373
100
AcDbEntity
  8
DEFAULT
100
AcDbVertex
100
AcDb2dVertex
 10
41822.16179242273
 20
850.8255253326965
 30
21.0
  0
SEQEND
  5
378
330
373
100
AcDbEntity
  8
DEFAULT
  0
POLYLINE
  5
379
330
1F
100
AcDbEntity
  8
DEFAULT
100
AcDb2dPolyline
 66
     1
 10
0.0
 20
0.0
 30
21.0
 70
     1
  0
VERTEX
  5
37A
330
379
100
AcDbEntity
  8
DEFAULT
100
AcDbVertex
100
AcDb2dVertex
 10
40480.87040700695
 20
999.0146490835559
 30
21.0
  0
VERTEX
  5
37B
330
379
100
AcDbEntity
  8
DEFAULT
100
AcDbVertex
100
AcDb2dVertex
 10
40480.87040700695
 20
0.0
 30
21.0
  0
VERTEX
  5
37C
330
379
100
AcDbEntity
  8
DEFAULT
100
AcDbVertex
100
AcDb2dVertex
 10
40926.54981560595
 20
0.0
 30
21.0
  0
VERTEX
  5
37D
330
379
100
AcDbEntity
  8
DEFAULT
100
AcDbVertex
100
AcDb2dVertex
 10
40926.54981560595
 20
999.0146490835559
 30
21.0
  0
SEQEND
  5
37E
330
379
100
AcDbEntity
  8
DEFAULT
  0
POLYLINE
  5
37F
330
1F
100
AcDbEntity
  8
DEFAULT
100
AcDb2dPolyline
 66
     1
 10
0.0
 20
0.0
 30
21.0
 70
     1
  0
VERTEX
  5
380
330
37F
100
AcDbEntity
  8
DEFAULT
100
AcDbVertex
100
AcDb2dVertex
 10
40707.93557302748
 20
738.4702148890594
 30
21.0
  0
VERTEX
  5
381
330
37F
100
AcDbEntity
  8
DEFAULT
100
AcDbVertex
100
AcDb2dVertex
 10
40710.20577281633
 20
726.9491298511824
 30
21.0
  0
VERTEX
  5
382
330
37F
100
AcDbEntity
  8
DEFAULT
100
AcDbVertex
100
AcDb2dVertex
 10
40705.59733880118
 20
726.9491298511823
 30
21.0
  0
SEQEND
  5
383
330
37F
100
AcDbEntity
  8
DEFAULT
  0
POLYLINE
  5
384
330
1F
100
AcDbEntity
  8
DEFAULT
100
AcDb2dPolyline
 66
     1
 10
0.0
 20
0.0
 30
21.0
 70
     1
  0
VERTEX
  5
385
330
384
100
AcDbEntity
  8
DEFAULT
100
AcDbVertex
100
AcDb2dVertex
 10
40742.00743646415
 20
685.4677082883877
 30
21.0
  0
VERTEX
  5
386
330
384
100
AcDbEntity
  8
DEFAULT
100
AcDbVertex
100
AcDb2dVertex
 10
40626.4906084131
 20
685.4677082883877
 30
21.0
  0
VERTEX
  5
387
330
384
100
AcDbEntity
  8
DEFAULT
100
AcDbVertex
100
AcDb2dVertex
 10
40626.4906084131
 20
695.5056581072547
 30
21.0
  0
VERTEX
  5
388
330
384
100
AcDbEntity
  8
DEFAULT
100
AcDbVertex
100
AcDb2dVertex
 10
40742.00743646415
 20
695.5056581072549
 30
21.0
  0
SEQEND
  5
389
330
384
100
AcDbEntity
  8
DEFAULT
  0
POLYLINE
  5
38A
330
1F
100
AcDbEntity
  8
DEFAULT
100
AcDb2dPolyline
 66
     1
 10
0.0
 20
0.0
 30
21.0
 70
     1
  0
VERTEX
  5
38B
330
38A
100
AcDbEntity
  8
DEFAULT
100
AcDbVertex
100
AcDb2dVertex
 10
39851.9428762948
 20
467.4004894537415
 30
21.0
  0
VERTEX
  5
38C
330
38A
100
AcDbEntity
  8
DEFAULT
100
AcDbVertex
100
AcDb2dVertex
 10
39652.01175385175
 20
0.0
 30
21.0
  0
VERTEX
  5
38D
330
38A
100
AcDbEntity
  8
DEFAULT
100
AcDbVertex
100
AcDb2dVertex
 10
40130.87040700695
 20
0.0
 30
21.0
  0
SEQEND
  5
38E
330
38A
100
AcDbEntity
  8
DEFAULT
  0
CIRCLE
  5
38F
330
1F
100
AcDbEntity
  8
DEFAULT
100
AcDbCircle
 10
38729.54389389392
 20
572.4678599578256
 30
21.0
 40
572.4678599578256
  0
POLYLINE
  5
390
330
1F
100
AcDbEntity
  8
DEFAULT
100
AcDb2dPolyline
 66
     1
 10
0.0
 20
0.0
 30
21.0
 70
     1
  0
VERTEX
  5
391
330
390
100
AcDbEntity
  8
DEFAULT
100
AcDbVertex
100
AcDb2dVertex
 10
38772.82483318321
 20
965.029979690019
 30
21.0
  0
VERTEX
  5
392
330
390
100
AcDbEntity
  8
DEFAULT
100
AcDbVertex
100
AcDb2dVertex
 10
38831.73045168735
 20
800.5963406101491
 30
21.0
  0
VERTEX
  5
393
330
390
100
AcDbEntity
  8
DEFAULT
100
AcDbVertex
100
AcDb2dVertex
 10
38680.36285433112
 20
800.5963406101491
 30
21.0
  0
SEQEND
  5
394
330
390
100
AcDbEntity
  8
DEFAULT
  0
POLYLINE
  5
395
330
1F
100
AcDbEntity
  8
DEFAULT
100
AcDb2dPolyline
 66
     1
 10
0.0
 20
0.0
 30
21.0
 70
     1
  0
VERTEX
  5
396
330
395
100
AcDbEntity
  8
DEFAULT
100
AcDbVertex
100
AcDb2dVertex
 10
36908.04318463549
 20
1167.676850404999
 30
21.0
  0
VERTEX
  5
397
330
395
100
AcDbEntity
  8
DEFAULT
100
AcDbVertex
100
AcDb2dVertex
 10
36246.12149410962
 20
0.0
 30
21.0
  0
VERTEX
  5
398
330
395
100
AcDbEntity
  8
DEFAULT
100
AcDbVertex
100
AcDb2dVertex
 10
37807.0760339361
 20
0.0
 30
21.0
  0
SEQEND
  5
399
330
395
100
AcDbEntity
  8
DEFAULT
  0
POLYLINE
  5
39A
330
1F
100
AcDbEntity
  8
DEFAULT
100
AcDb2dPolyline
 66
     1
 10
0.0
 20
0.0
 30
21.0
 70
     1
  0
VERTEX
  5
39B
330
39A
100
AcDbEntity
  8
DEFAULT
100
AcDbVertex
100
AcDb2dVertex
 10
37404.60555861883
 20
172.8860725600126
 30
21.0
  0
VERTEX
  5
39C
330
39A
100
AcDbEntity
  8
DEFAULT
100
AcDbVertex
100
AcDb2dVertex
 10
37303.78481396293
 20
172.8860725600126
 30
21.0
  0
VERTEX
  5
39D
330
39A
100
AcDbEntity
  8
DEFAULT
100
AcDbVertex
100
AcDb2dVertex
 10
37303.78481396293
 20
320.9498531073865
 30
21.0
  0
VERTEX
  5
39E
330
39A
100
AcDbEntity
  8
DEFAULT
100
AcDbVertex
100
AcDb2dVertex
 10
37404.60555861883
 20
320.9498531073865
 30
21.0
  0
SEQEND
  5
39F
330
39A
100
AcDbEntity
  8
DEFAULT
  0
POLYLINE
  5
3A0
330
1F
100
AcDbEntity
  8
DEFAULT
100
AcDb2dPolyline
 66
     1
 10
0.0
 20
0.0
 30
21.0
 70
     1
  0
VERTEX
  5
3A1
330
3A0
100
AcDbEntity
  8
DEFAULT
100
AcDbVertex
100
AcDb2dVertex
 10
37059.40270555875
 20
835.9765048932602
 30
21.0
  0
VERTEX
  5
3A2
330
3A0
100
AcDbEntity
  8
DEFAULT
100
AcDbVertex
100
AcDb2dVertex
 10
37142.66524001272
 20
654.1022330964397
 30
21.0
  0
VERTEX
  5
3A3
330
3A0
100
AcDbEntity
  8
DEFAULT
100
AcDbVertex
100
AcDb2dVertex
 10
36977.45089814246
 20
654.1022330964398
 30
21.0
  0
SEQEND
  5
3A4
330
3A0
100
AcDbEntity
  8
DEFAULT
  0
POLYLINE
  5
3A5
330
1F
100
AcDbEntity
  8
DEFAULT
100
AcDb2dPolyline
 66
     1
 10
0.0
 20
0.0
 30
21.0
 70
     1
  0
VERTEX
  5
3A6
330
3A5
100
AcDbEntity
  8
DEFAULT
100
AcDbVertex
100
AcDb2dVertex
 10
35551.63796884678
 20
737.5770145230657
 30
21.0
  0
VERTEX
  5
3A7
330
3A5
100
AcDbEntity
  8
DEFAULT
100
AcDbVertex
100
AcDb2dVertex
 10
35188.82449469851
 20
0.0
 30
21.0
  0
VERTEX
  5
3A8
330
3A5
100
AcDbEntity
  8
DEFAULT
100
AcDbVertex
100
AcDb2dVertex
 10
35896.12149410962
 20
0.0
 30
21.0
  0
SEQEND
  5
3A9
330
3A5
100
AcDbEntity
  8
DEFAULT
  0
POLYLINE
  5
3AA
330
1F
100
AcDbEntity
  8
DEFAULT
100
AcDb2dPolyline
 66
     1
 10
0.0
 20
0.0
 30
21.0
 70
     1
  0
VERTEX
  5
3AB
330
3AA
100
AcDbEntity
  8
DEFAULT
100
AcDbVertex
100
AcDb2dVertex
 10
35254.22761169733
 20
66.56274924256228
 30
21.0
  0
VERTEX
  5
3AC
330
3AA
100
AcDbEntity
  8
DEFAULT
100
AcDbVertex
100
AcDb2dVertex
 10
35302.24892954809
 20
29.80498915306913
 30
21.0
  0
VERTEX
  5
3AD
330
3AA
100
AcDbEntity
  8
DEFAULT
100
AcDbVertex
100
AcDb2dVertex
 10
35210.35452932435
 20
29.80498915306913
 30
21.0
  0
SEQEND
  5
3AE
330
3AA
100
AcDbEntity
  8
DEFAULT
  0
POLYLINE
  5
3AF
330
1F
100
AcDbEntity
  8
DEFAULT
100
AcDb2dPolyline
 66
     1
 10
0.0
 20
0.0
 30
21.0
 70
     1
  0
VERTEX
  5
3B0
330
3AF
100
AcDbEntity
  8
DEFAULT
100
AcDbVertex
100
AcDb2dVertex
 10
35396.8204304604
 20
95.27649216106252
 30
21.0
  0
VERTEX
  5
3B1
330
3AF
100
AcDbEntity
  8
DEFAULT
100
AcDbVertex
100
AcDb2dVertex
 10
35281.36499055714
 20
95.27649216106252
 30
21.0
  0
VERTEX
  5
3B2
330
3AF
100
AcDbEntity
  8
DEFAULT
100
AcDbVertex
100
AcDb2dVertex
 10
35281.36499055714
 20
141.2877098152464
 30
21.0
  0
VERTEX
  5
3B3
330
3AF
100
AcDbEntity
  8
DEFAULT
100
AcDbVertex
100
AcDb2dVertex
 10
35396.8204304604
 20
141.2877098152464
 30
21.0
  0
SEQEND
  5
3B4
330
3AF
100
AcDbEntity
  8
DEFAULT
  0
POLYLINE
  5
3B5
330
1F
100
AcDbEntity
  8
DEFAULT
100
AcDb2dPolyline
 66
     1
 10
0.0
 20
0.0
 30
21.0
 70
     1
  0
VERTEX
  5
3B6
330
3B5
100
AcDbEntity
  8
DEFAULT
100
AcDbVertex
100
AcDb2dVertex
 10
34462.20185660354
 20
461.3138178014212
 30
21.0
  0
VERTEX
  5
3B7
330
3B5
100
AcDbEntity
  8
DEFAULT
100
AcDbVertex
100
AcDb2dVertex
 10
34015.87991061938
 20
0.0
 30
21.0
  0
VERTEX
  5
3B8
330
3B5
100
AcDbEntity
  8
DEFAULT
100
AcDbVertex
100
AcDb2dVertex
 10
34838.82449469851
 20
0.0
 30
21.0
  0
SEQEND
  5
3B9
330
3B5
100
AcDbEntity
  8
DEFAULT
  0
POLYLINE
  5
3BA
330
1F
100
AcDbEntity
  8
DEFAULT
100
AcDb2dPolyline
 66
     1
 10
0.0
 20
0.0
 30
21.0
 70
     1
  0
VERTEX
  5
3BB
330
3BA
100
AcDbEntity
  8
DEFAULT
100
AcDbVertex
100
AcDb2dVertex
 10
32614.24478226506
 20
160.5297241409868
 30
21.0
  0
VERTEX
  5
3BC
330
3BA
100
AcDbEntity
  8
DEFAULT
100
AcDbVertex
100
AcDb2dVertex
 10
32614.24478226506
 20
0.0
 30
21.0
  0
VERTEX
  5
3BD
330
3BA
100
AcDbEntity
  8
DEFAULT
100
AcDbVertex
100
AcDb2dVertex
 10
33665.87991061938
 20
0.0
 30
21.0
  0
VERTEX
  5
3BE
330
3BA
100
AcDbEntity
  8
DEFAULT
100
AcDbVertex
100
AcDb2dVertex
 10
33665.87991061938
 20
160.5297241409868
 30
21.0
  0
SEQEND
  5
3BF
330
3BA
100
AcDbEntity
  8
DEFAULT
  0
POLYLINE
  5
3C0
330
1F
100
AcDbEntity
  8
DEFAULT
100
AcDb2dPolyline
 66
     1
 10
0.0
 20
0.0
 30
21.0
 70
     1
  0
VERTEX
  5
3C1
330
3C0
100
AcDbEntity
  8
DEFAULT
100
AcDbVertex
100
AcDb2dVertex
 10
32680.68314080499
 20
122.4439221460669
 30
21.0
  0
VERTEX
  5
3C2
330
3C0
100
AcDbEntity
  8
DEFAULT
100
AcDbVertex
100
AcDb2dVertex
 10
32699.44430573086
 20
61.54037884463025
 30
21.0
  0
VERTEX
  5
3C3
330
3C0
100
AcDbEntity
  8
DEFAULT
100
AcDbVertex
100
AcDb2dVertex
 10
32657.60569921923
 20
61.54037884463025
 30
21.0
  0
SEQEND
  5
3C4
330
3C0
100
AcDbEntity
  8
DEFAULT
  0
POLYLINE
  5
3C5
330
1F
100
AcDbEntity
  8
DEFAULT
100
AcDb2dPolyline
 66
     1
 10
0.0
 20
0.0
 30
21.0
 70
     1
  0
VERTEX
  5
3C6
330
3C5
100
AcDbEntity
  8
DEFAULT
100
AcDbVertex
100
AcDb2dVertex
 10
32103.56268925853
 20
2051.7587493448
 30
21.0
  0
VERTEX
  5
3C7
330
3C5
100
AcDbEntity
  8
DEFAULT
100
AcDbVertex
100
AcDb2dVertex
 10
32103.56268925853
 20
0.0
 30
21.0
  0
VERTEX
  5
3C8
330
3C5
100
AcDbEntity
  8
DEFAULT
100
AcDbVertex
100
AcDb2dVertex
 10
32264.24478226506
 20
0.0
 30
21.0
  0
VERTEX
  5
3C9
330
3C5
100
AcDbEntity
  8
DEFAULT
100
AcDbVertex
100
AcDb2dVertex
 10
32264.24478226506
 20
2051.7587493448
 30
21.0
  0
SEQEND
  5
3CA
330
3C5
100
AcDbEntity
  8
DEFAULT
  0
ENDSEC
  0
SECTION
  2
OBJECTS
  0
DICTIONARY
  5
C
330
0
100
AcDbDictionary
281
     1
  3
ACAD_DETAILVIEWSTYLE
350
3D2
  3
ACAD_GROUP
350
D
  3
ACAD_LAYOUT
350
1A
  3
ACAD_MATERIAL
350
43
  3
ACAD_MLEADERSTYLE
350
5B
  3
ACAD_MLINESTYLE
350
17
  3
ACAD_PLOTSETTINGS
350
19
  3
ACAD_PLOTSTYLENAME
350
E
  3
ACAD_SCALELIST
350
47
  3
ACAD_SECTIONVIEWSTYLE
350
3D3
  3
ACAD_TABLESTYLE
350
59
  3
ACAD_VISUALSTYLE
350
2A
  3
ACDB_RECOMPOSE_DATA
350
3CF
  3
AcDbVariableDictionary
350
3CB
  0
SUN
  5
5D
330
29
100
AcDbSun
 90
        1
290
     0
 63
     7
421
 16777215
 40
1.0
291
     1
 91
  2455826
 92
 54000000
292
     0
 70
     2
 71
   256
280
     1
  0
DICTIONARY
  5
3D2
102
{ACAD_REACTORS
330
C
102
}
330
C
100
AcDbDictionary
281
     1
  0
DICTIONARY
  5
D
102
{ACAD_REACTORS
330
C
102
}
330
C
100
AcDbDictionary
281
     1
  0
DICTIONARY
  5
1A
102
{ACAD_REACTORS
330
C
102
}
330
C
100
AcDbDictionary
281
     1
  3
Layout1
350
1E
  3
Layout2
350
26
  3
Model
350
22
  0
DICTIONARY
  5
43
102
{ACAD_REACTORS
330
C
102
}
330
C
100
AcDbDictionary
281
     1
  3
ByBlock
350
45
  3
ByLayer
350
44
  3
Global
350
46
  0
DICTIONARY
  5
5B
102
{ACAD_REACTORS
330
C
102
}
330
C
100
AcDbDictionary
281
     1
  3
Standard
350
5C
  0
DICTIONARY
  5
17
102
{ACAD_REACTORS
330
C
102
}
330
C
100
AcDbDictionary
281
     1
  3
Standard
350
18
  0
DICTIONARY
  5
19
102
{ACAD_REACTORS
330
C
102
}
330
C
100
AcDbDictionary
281
     1
  0
ACDBDICTIONARYWDFLT
  5
E
102
{ACAD_REACTORS
330
C
102
}
330
C
100
AcDbDictionary
281
     1
  3
Normal
350
F
100
AcDbDictionaryWithDefault
340
F
  0
DICTIONARY
  5
47
102
{ACAD_REACTORS
330
C
102
}
330
C
100
AcDbDictionary
281
     1
  3
A0
350
48
  3
A1
350
49
  3
A2
350
4A
  3
A3
350
4B
  3
A4
350
4C
  3
A5
350
4D
  3
A6
350
4E
  3
A7
350
4F
  3
A8
350
50
  3
A9
350
51
  3
B1
350
52
  3
B2
350
53
  3
B3
350
54
  3
B4
350
55
  3
B5
350
56
  3
B6
350
57
  3
B7
350
58
  0
DICTIONARY
  5
3D3
102
{ACAD_REACTORS
330
C
102
}
330
C
100
AcDbDictionary
281
     1
  0
DICTIONARY
  5
59
102
{ACAD_REACTORS
330
C
102
}
330
C
100
AcDbDictionary
281
     1
  3
Standard
350
5A
  0
DICTIONARY
  5
2A
102
{ACAD_REACTORS
330
C
102
}
330
C
100
AcDbDictionary
281
     1
  3
2dWireframe
350
2F
  3
Basic
350
32
  3
Brighten
350
36
  3
ColorChange
350
3A
  3
Conceptual
350
34
  3
Dim
350
35
  3
EdgeColorOff
350
3D
  3
Facepattern
350
39
  3
Flat
350
2B
  3
FlatWithEdges
350
2C
  3
Gouraud
350
2D
  3
GouraudWithEdges
350
2E
  3
Hidden
350
31
  3
JitterOff
350
3B
  3
Linepattern
350
38
  3
OverhangOff
350
3C
  3
Realistic
350
33
  3
Shaded
350
42
  3
Shaded with edges
350
41
  3
Shades of Gray
350
3E
  3
Sketchy
350
3F
  3
Thicken
350
37
  3
Wireframe
350
30
  3
X-Ray
350
40
  0
XRECORD
  5
3CF
102
{ACAD_REACTORS
330
C
102
}
330
C
100
AcDbXrecord
280
     1
 90
        1
330
5A
  0
DICTIONARY
  5
3CB
102
{ACAD_REACTORS
330
C
102
}
330
C
100
AcDbDictionary
281
     1
  3
CANNOSCALE
350
3CC
  3
CMLEADERSTYLE
350
3D1
  3
CTABLESTYLE
350
3D0
  0
LAYOUT
  5
1E
102
{ACAD_REACTORS
330
1A
102
}
330
1A
100
AcDbPlotSettings
  1

  2
none_device
  4

  6

 40
0.0
 41
0.0
 42
0.0
 43
0.0
 44
0.0
 45
0.0
 46
0.0
 47
0.0
 48
0.0
 49
0.0
140
0.0
141
0.0
142
1.0
143
1.0
 70
   688
 72
     0
 73
     0
 74
     5
  7

 75
    16
 76
     0
 77
     2
 78
   300
147
1.0
148
0.0
149
0.0
100
AcDbLayout
  1
Layout1
 70
     1
 71
     1
 10
0.0
 20
0.0
 11
12.0
 21
9.0
 12
0.0
 22
0.0
 32
0.0
 14
1.000000000000000E+20
 24
1.000000000000000E+20
 34
1.000000000000000E+20
 15
-1.000000000000000E+20
 25
-1.000000000000000E+20
 35
-1.000000000000000E+20
146
0.0
 13
0.0
 23
0.0
 33
0.0
 16
1.0
 26
0.0
 36
0.0
 17
0.0
 27
1.0
 37
0.0
 76
     0
330
1B
  0
LAYOUT
  5
26
102
{ACAD_REACTORS
330
1A
102
}
330
1A
100
AcDbPlotSettings
  1

  2
none_device
  4

  6

 40
0.0
 41
0.0
 42
0.0
 43
0.0
 44
0.0
 45
0.0
 46
0.0
 47
0.0
 48
0.0
 49
0.0
140
0.0
141
0.0
142
1.0
143
1.0
 70
   688
 72
     0
 73
     0
 74
     5
  7

 75
    16
 76
     0
 77
     2
 78
   300
147
1.0
148
0.0
149
0.0
100
AcDbLayout
  1
Layout2
 70
     1
 71
     2
 10
0.0
 20
0.0
 11
0.0
 21
0.0
 12
0.0
 22
0.0
 32
0.0
 14
0.0
 24
0.0
 34
0.0
 15
0.0
 25
0.0
 35
0.0
146
0.0
 13
0.0
 23
0.0
 33
0.0
 16
1.0
 26
0.0
 36
0.0
 17
0.0
 27
1.0
 37
0.0
 76
     0
330
23
  0
LAYOUT
  5
22
102
{ACAD_REACTORS
330
1A
102
}
330
1A
100
AcDbPlotSettings
  1

  2
none_device
  4
Letter_(8.50_x_11.00_Inches)
  6

 40
6.35
 41
6.35
 42
6.35000508
 43
6.35000508
 44
215.9
 45
279.4
 46
0.0
 47
0.0
 48
0.0
 49
0.0
140
0.0
141
0.0
142
1.0
143
1.0
 70
  1712
 72
     0
 73
     0
 74
     0
  7

 75
     0
 76
     0
 77
     2
 78
   300
147
1.0
148
0.0
149
0.0
100
AcDbLayout
  1
Model
 70
     1
 71
     0
 10
0.0
 20
0.0
 11
12.0
 21
9.0
 12
0.0
 22
0.0
 32
0.0
 14
32099.41306926461
 24
-0.0000000000069704
 34
21.0
 15
42097.08882098889
 25
7662.735351311464
 35
26.0
146
0.0
 13
0.0
 23
0.0
 33
0.0
 16
1.0
 26
0.0
 36
0.0
 17
0.0
 27
1.0
 37
0.0
 76
     0
330
1F
331
29
  0
MATERIAL
  5
45
102
{ACAD_REACTORS
330
43
102
}
330
43
100
AcDbMaterial
  1
ByBlock
 72
     1
 94
      127
  0
MATERIAL
  5
44
102
{ACAD_REACTORS
330
43
102
}
330
43
100
AcDbMaterial
  1
ByLayer
 72
     1
 94
      127
  0
MATERIAL
  5
46
102
{ACAD_REACTORS
330
43
102
}
330
43
100
AcDbMaterial
  1
Global
 72
     1
 94
      127
  0
MLEADERSTYLE
  5
5C
102
{ACAD_REACTORS
330
5B
102
}
330
5B
100
AcDbMLeaderStyle
179
     2
170
     2
171
     1
172
     0
 90
        2
 40
0.0
 41
0.0
173
     1
 91
-1056964608
340
14
 92
       -2
290
     1
 42
0.09
291
     1
 43
0.36
  3
Standard
341
0
 44
0.18
300

342
11
174
     1
178
     6
175
     1
176
     0
 93
-1056964608
 45
0.18
292
     0
297
     0
 46
0.18
343
0
 94
-1056964608
 47
1.0
 49
1.0
140
1.0
293
     1
141
0.0
294
     1
177
     0
142
1.0
295
     0
296
     0
143
0.125
271
     0
272
     9
273
     9
298
     0
  0
MLINESTYLE
  5
18
102
{ACAD_REACTORS
330
17
102
}
330
17
100
AcDbMlineStyle
  2
Standard
 70
     0
  3

 62
   256
 51
90.0
 52
90.0
 71
     2
 49
0.5
 62
   256
  6
BYLAYER
 49
-0.5
 62
   256
  6
BYLAYER
  0
ACDBPLACEHOLDER
  5
F
102
{ACAD_REACTORS
330
E
102
}
330
E
  0
SCALE
  5
48
102
{ACAD_REACTORS
330
47
102
}
330
47
100
AcDbScale
 70
     0
300
1:1
140
1.0
141
1.0
290
     1
  0
SCALE
  5
49
102
{ACAD_REACTORS
330
47
102
}
330
47
100
AcDbScale
 70
     0
300
1/128" = 1'-0"
140
0.0078125
141
12.0
290
     0
  0
SCALE
  5
4A
102
{ACAD_REACTORS
330
47
102
}
330
47
100
AcDbScale
 70
     0
300
1/64" = 1'-0"
140
0.015625
141
12.0
290
     0
  0
SCALE
  5
4B
102
{ACAD_REACTORS
330
47
102
}
330
47
100
AcDbScale
 70
     0
300
1/32" = 1'-0"
140
0.03125
141
12.0
290
     0
  0
SCALE
  5
4C
102
{ACAD_REACTORS
330
47
102
}
330
47
100
AcDbScale
 70
     0
300
1/16" = 1'-0"
140
0.0625
141
12.0
290
     0
  0
SCALE
  5
4D
102
{ACAD_REACTORS
330
47
102
}
330
47
100
AcDbScale
 70
     0
300
3/32" = 1'-0"
140
0.09375
141
12.0
290
     0
  0
SCALE
  5
4E
102
{ACAD_REACTORS
330
47
102
}
330
47
100
AcDbScale
 70
     0
300
1/8" = 1'-0"
140
0.125
141
12.0
290
     0
  0
SCALE
  5
4F
102
{ACAD_REACTORS
330
47
102
}
330
47
100
AcDbScale
 70
     0
300
3/16" = 1'-0"
140
0.1875
141
12.0
290
     0
  0
SCALE
  5
50
102
{ACAD_REACTORS
330
47
102
}
330
47
100
AcDbScale
 70
     0
300
1/4" = 1'-0"
140
0.25
141
12.0
290
     0
  0
SCALE
  5
51
102
{ACAD_REACTORS
330
47
102
}
330
47
100
AcDbScale
 70
     0
300
3/8" = 1'-0"
140
0.375
141
12.0
290
     0
  0
SCALE
  5
52
102
{ACAD_REACTORS
330
47
102
}
330
47
100
AcDbScale
 70
     0
300
1/2" = 1'-0"
140
0.5
141
12.0
290
     0
  0
SCALE
  5
53
102
{ACAD_REACTORS
330
47
102
}
330
47
100
AcDbScale
 70
     0
300
3/4" = 1'-0"
140
0.75
141
12.0
290
     0
  0
SCALE
  5
54
102
{ACAD_REACTORS
330
47
102
}
330
47
100
AcDbScale
 70
     0
300
1" = 1'-0"
140
1.0
141
12.0
290
     0
  0
SCALE
  5
55
102
{ACAD_REACTORS
330
47
102
}
330
47
100
AcDbScale
 70
     0
300
1-1/2" = 1'-0"
140
1.5
141
12.0
290
     0
  0
SCALE
  5
56
102
{ACAD_REACTORS
330
47
102
}
330
47
100
AcDbScale
 70
     0
300
3" = 1'-0"
140
3.0
141
12.0
290
     0
  0
SCALE
  5
57
102
{ACAD_REACTORS
330
47
102
}
330
47
100
AcDbScale
 70
     0
300
6" = 1'-0"
140
6.0
141
12.0
290
     0
  0
SCALE
  5
58
102
{ACAD_REACTORS
330
47
102
}
330
47
100
AcDbScale
 70
     0
300
1'-0" = 1'-0"
140
12.0
141
12.0
290
     0
  0
TABLESTYLE
  5
5A
102
{ACAD_REACTORS
330
59
102
}
102
{ACAD_XDICTIONARY
360
3CD
102
}
330
59
100
AcDbTableStyle
  3
Standard
 70
     0
 71
     0
 40
0.06
 41
0.06
280
     0
281
     0
  7
Standard
140
0.18
170
     2
 62
     0
 63
   257
283
     0
 90
        4
 91
        0
  1

274
    -2
284
     1
 64
     0
275
    -2
285
     1
 65
     0
276
    -2
286
     1
 66
     0
277
    -2
287
     1
 67
     0
278
    -2
288
     1
 68
     0
279
    -2
289
     1
 69
     0
  7
Standard
140
0.25
170
     5
 62
     0
 63
   257
283
     0
 90
        4
 91
        0
  1

274
    -2
284
     1
 64
     0
275
    -2
285
     1
 65
     0
276
    -2
286
     1
 66
     0
277
    -2
287
     1
 67
     0
278
    -2
288
     1
 68
     0
279
    -2
289
     1
 69
     0
  7
Standard
140
0.18
170
     5
 62
     0
 63
   257
283
     0
 90
        4
 91
        0
  1

274
    -2
284
     1
 64
     0
275
    -2
285
     1
 65
     0
276
    -2
286
     1
 66
     0
277
    -2
287
     1
 67
     0
278
    -2
288
     1
 68
     0
279
    -2
289
     1
 69
     0
  0
VISUALSTYLE
  5
2F
102
{ACAD_REACTORS
330
2A
102
}
330
2A
100
AcDbVisualStyle
  2
2dWireframe
 70
     4
177
     3
291
     0
 70
    58
 90
        0
176
     1
 90
        2
176
     1
 90
        0
176
     1
 90
        0
176
     1
 40
0.6
176
     1
 40
30.0
176
     1
 62
     7
420
 16777215
176
     1
 90
        1
176
     1
 90
        4
176
     1
 62
     7
176
     1
 62
   257
176
     1
 90
        1
176
     1
 90
        1
176
     1
 40
1.0
176
     1
 90
        0
176
     1
 62
   257
176
     1
 40
1.0
176
     1
 90
        1
176
     1
 90
        6
176
     1
 90
        2
176
     1
 62
     7
176
     1
 90
        5
176
     1
 90
        0
176
     1
 90
        0
176
     1
290
     0
176
     1
 90
        1
176
     1
 40
0.0
176
     1
 90
        0
176
     1
290
     1
176
     1
290
     1
176
     1
290
     0
176
     1
290
     0
176
     1
290
     0
176
     1
290
     0
176
     1
290
     0
176
     1
290
     0
176
     1
290
     0
176
     1
 90
       50
176
     1
 40
0.0
176
     1
 40
1.0
176
     1
 90
        0
176
     1
 62
    18
420
        0
176
     1
 90
       50
176
     1
 90
        3
176
     1
 62
     5
420
      255
176
     1
290
     0
176
     1
 90
       50
176
     1
 90
       50
176
     1
 90
       50
176
     1
290
     0
176
     1
 90
       50
176
     1
 62
   256
176
     0
 40
1.0
176
     0
 90
        2
176
     1
  1
strokes_ogs.tif
176
     1
290
     0
176
     1
 40
1.0
176
     1
 40
1.0
176
     1
  0
VISUALSTYLE
  5
32
102
{ACAD_REACTORS
330
2A
102
}
330
2A
100
AcDbVisualStyle
  2
Basic
 70
     7
177
     3
291
     1
 70
    58
 90
        1
176
     1
 90
        0
176
     1
 90
        1
176
     1
 90
        0
176
     1
 40
0.6
176
     1
 40
30.0
176
     1
 62
     7
420
 16777215
176
     1
 90
        0
176
     1
 90
        4
176
     1
 62
     7
176
     1
 62
   257
176
     1
 90
        1
176
     1
 90
        1
176
     1
 40
1.0
176
     1
 90
        8
176
     1
 62
     7
176
     1
 40
1.0
176
     1
 90
        1
176
     1
 90
        6
176
     1
 90
        2
176
     1
 62
     7
176
     1
 90
        5
176
     1
 90
        0
176
     1
 90
        0
176
     1
290
     0
176
     1
 90
        1
176
     1
 40
0.0
176
     1
 90
        0
176
     1
290
     0
176
     1
290
     1
176
     1
290
     1
176
     1
290
     0
176
     1
290
     0
176
     1
290
     0
176
     1
290
     0
176
     1
290
     0
176
     1
290
     0
176
     1
 90
       50
176
     1
 40
0.0
176
     1
 40
1.0
176
     1
 90
        0
176
     1
 62
    18
420
        0
176
     1
 90
       50
176
     1
 90
        3
176
     1
 62
     5
420
      255
176
     1
290
     0
176
     1
 90
       50
176
     1
 90
       50
176
     1
 90
       50
176
     1
290
     0
176
     1
 90
       50
176
     1
 62
   256
176
     0
 40
1.0
176
     0
 90
        2
176
     1
  1
strokes_ogs.tif
176
     1
290
     0
176
     1
 40
1.0
176
     1
 40
1.0
176
     1
  0
VISUALSTYLE
  5
36
102
{ACAD_REACTORS
330
2A
102
}
330
2A
100
AcDbVisualStyle
  2
Brighten
 70
    12
177
     3
291
     1
 70
    58
 90
        2
176
     1
 90
        2
176
     1
 90
        0
176
     1
 90
        0
176
     1
 40
0.6
176
     1
 40
30.0
176
     1
 62
     7
420
 16777215
176
     1
 90
        1
176
     1
 90
        4
176
     1
 62
     7
176
     1
 62
   257
176
     1
 90
        1
176
     1
 90
        1
176
     1
 40
1.0
176
     1
 90
        8
176
     1
 62
     7
176
     1
 40
1.0
176
     1
 90
        1
176
     1
 90
        6
176
     1
 90
        2
176
     1
 62
     7
176
     1
 90
        5
176
     1
 90
        0
176
     1
 90
        0
176
     1
290
     0
176
     1
 90
        1
176
     1
 40
50.0
176
     1
 90
        0
176
     1
290
     0
176
     1
290
     1
176
     1
290
     1
176
     1
290
     0
176
     1
290
     0
176
     1
290
     0
176
     1
290
     0
176
     1
290
     0
176
     1
290
     0
176
     1
 90
       50
176
     1
 40
0.0
176
     1
 40
1.0
176
     1
 90
        0
176
     1
 62
    18
420
        0
176
     1
 90
       50
176
     1
 90
        3
176
     1
 62
     5
420
      255
176
     1
290
     0
176
     1
 90
       50
176
     1
 90
       50
176
     1
 90
       50
176
     1
290
     0
176
     1
 90
       50
176
     1
 62
   256
176
     0
 40
1.0
176
     0
 90
        2
176
     1
  1
strokes_ogs.tif
176
     1
290
     0
176
     1
 40
1.0
176
     1
 40
1.0
176
     1
  0
VISUALSTYLE
  5
3A
102
{ACAD_REACTORS
330
2A
102
}
330
2A
100
AcDbVisualStyle
  2
ColorChange
 70
    16
177
     3
291
     1
 70
    58
 90
        2
176
     1
 90
        2
176
     1
 90
        3
176
     1
 90
        0
176
     1
 40
0.6
176
     1
 40
30.0
176
     1
 62
     8
420
  8421504
176
     1
 90
        1
176
     1
 90
        4
176
     1
 62
     7
176
     1
 62
   257
176
     1
 90
        1
176
     1
 90
        1
176
     1
 40
1.0
176
     1
 90
        8
176
     1
 62
     8
420
  8421504
176
     1
 40
1.0
176
     1
 90
        1
176
     1
 90
        6
176
     1
 90
        2
176
     1
 62
     7
176
     1
 90
        5
176
     1
 90
        0
176
     1
 90
        0
176
     1
290
     0
176
     1
 90
        1
176
     1
 40
0.0
176
     1
 90
        0
176
     1
290
     0
176
     1
290
     1
176
     1
290
     1
176
     1
290
     0
176
     1
290
     0
176
     1
290
     0
176
     1
290
     0
176
     1
290
     0
176
     1
290
     0
176
     1
 90
       50
176
     1
 40
0.0
176
     1
 40
1.0
176
     1
 90
        0
176
     1
 62
    18
420
        0
176
     1
 90
       50
176
     1
 90
        3
176
     1
 62
     5
420
      255
176
     1
290
     0
176
     1
 90
       50
176
     1
 90
       50
176
     1
 90
       50
176
     1
290
     0
176
     1
 90
       50
176
     1
 62
   256
176
     0
 40
1.0
176
     0
 90
        2
176
     1
  1
strokes_ogs.tif
176
     1
290
     0
176
     1
 40
1.0
176
     1
 40
1.0
176
     1
  0
VISUALSTYLE
  5
34
102
{ACAD_REACTORS
330
2A
102
}
330
2A
100
AcDbVisualStyle
  2
Conceptual
 70
     9
177
     3
291
     0
 70
    58
 90
        3
176
     1
 90
        2
176
     1
 90
        0
176
     1
 90
        0
176
     1
 40
0.6
176
     1
 40
30.0
176
     1
 62
     7
420
 16777215
176
     1
 90
        2
176
     1
 90
        2
176
     1
 62
     7
176
     1
 62
   257
176
     1
 90
        1
176
     1
 90
        1
176
     1
 40
179.0
176
     1
 90
        8
176
     1
 62
     7
176
     1
 40
1.0
176
     1
 90
        1
176
     1
 90
        6
176
     1
 90
        2
176
     1
 62
     7
176
     1
 90
        3
176
     1
 90
        0
176
     1
 90
        0
176
     1
290
     0
176
     1
 90
        1
176
     1
 40
0.0
176
     1
 90
        0
176
     1
290
     0
176
     1
290
     1
176
     1
290
     1
176
     1
290
     0
176
     1
290
     0
176
     1
290
     0
176
     1
290
     0
176
     1
290
     0
176
     1
290
     0
176
     1
 90
       50
176
     1
 40
0.0
176
     1
 40
1.0
176
     1
 90
        0
176
     1
 62
    18
420
        0
176
     1
 90
       50
176
     1
 90
        3
176
     1
 62
     5
420
      255
176
     1
290
     0
176
     1
 90
       50
176
     1
 90
       50
176
     1
 90
       50
176
     1
290
     0
176
     1
 90
       50
176
     1
 62
   256
176
     0
 40
1.0
176
     0
 90
        2
176
     1
  1
strokes_ogs.tif
176
     1
290
     0
176
     1
 40
1.0
176
     1
 40
1.0
176
     1
  0
VISUALSTYLE
  5
35
102
{ACAD_REACTORS
330
2A
102
}
330
2A
100
AcDbVisualStyle
  2
Dim
 70
    11
177
     3
291
     1
 70
    58
 90
        2
176
     1
 90
        2
176
     1
 90
        0
176
     1
 90
        0
176
     1
 40
0.6
176
     1
 40
30.0
176
     1
 62
     7
420
 16777215
176
     1
 90
        1
176
     1
 90
        4
176
     1
 62
     7
176
     1
 62
   257
176
     1
 90
        1
176
     1
 90
        1
176
     1
 40
1.0
176
     1
 90
        8
176
     1
 62
     7
176
     1
 40
1.0
176
     1
 90
        1
176
     1
 90
        6
176
     1
 90
        2
176
     1
 62
     7
176
     1
 90
        5
176
     1
 90
        0
176
     1
 90
        0
176
     1
290
     0
176
     1
 90
        1
176
     1
 40
-50.0
176
     1
 90
        0
176
     1
290
     0
176
     1
290
     1
176
     1
290
     1
176
     1
290
     0
176
     1
290
     0
176
     1
290
     0
176
     1
290
     0
176
     1
290
     0
176
     1
290
     0
176
     1
 90
       50
176
     1
 40
0.0
176
     1
 40
1.0
176
     1
 90
        0
176
     1
 62
    18
420
        0
176
     1
 90
       50
176
     1
 90
        3
176
     1
 62
     5
420
      255
176
     1
290
     0
176
     1
 90
       50
176
     1
 90
       50
176
     1
 90
       50
176
     1
290
     0
176
     1
 90
       50
176
     1
 62
   256
176
     0
 40
1.0
176
     0
 90
        2
176
     1
  1
strokes_ogs.tif
176
     1
290
     0
176
     1
 40
1.0
176
     1
 40
1.0
176
     1
  0
VISUALSTYLE
  5
3D
102
{ACAD_REACTORS
330
2A
102
}
330
2A
100
AcDbVisualStyle
  2
EdgeColorOff
 70
    22
177
     3
291
     1
 70
    58
 90
        2
176
     0
 90
        2
176
     0
 90
        0
176
     0
 90
        0
176
     0
 40
0.6
176
     0
 40
30.0
176
     0
 62
     7
420
 16777215
176
     0
 90
        1
176
     0
 90
        4
176
     0
 62
     7
176
     0
 62
   257
176
     0
 90
        1
176
     0
 90
        1
176
     0
 40
1.0
176
     0
 90
        8
176
     2
 62
     7
176
     0
 40
1.0
176
     0
 90
        1
176
     0
 90
        6
176
     0
 90
        2
176
     0
 62
     7
176
     0
 90
        5
176
     0
 90
        0
176
     0
 90
        0
176
     0
290
     0
176
     0
 90
        1
176
     0
 40
0.0
176
     0
 90
        0
176
     0
290
     0
176
     0
290
     1
176
     0
290
     1
176
     0
290
     0
176
     0
290
     0
176
     0
290
     0
176
     0
290
     0
176
     0
290
     0
176
     0
290
     0
176
     0
 90
       50
176
     0
 40
0.0
176
     0
 40
1.0
176
     0
 90
        0
176
     0
 62
    18
420
        0
176
     0
 90
       50
176
     0
 90
        3
176
     0
 62
     5
420
      255
176
     0
290
     0
176
     0
 90
       50
176
     0
 90
       50
176
     0
 90
       50
176
     0
290
     0
176
     0
 90
       50
176
     0
 62
   256
176
     0
 40
1.0
176
     0
 90
        2
176
     0
  1
strokes_ogs.tif
176
     0
290
     0
176
     0
 40
1.0
176
     0
 40
1.0
176
     0
  0
VISUALSTYLE
  5
39
102
{ACAD_REACTORS
330
2A
102
}
330
2A
100
AcDbVisualStyle
  2
Facepattern
 70
    15
177
     3
291
     1
 70
    58
 90
        2
176
     1
 90
        2
176
     1
 90
        0
176
     1
 90
        0
176
     1
 40
0.6
176
     1
 40
30.0
176
     1
 62
     7
420
 16777215
176
     1
 90
        1
176
     1
 90
        4
176
     1
 62
     7
176
     1
 62
   257
176
     1
 90
        1
176
     1
 90
        1
176
     1
 40
1.0
176
     1
 90
        8
176
     1
 62
     7
176
     1
 40
1.0
176
     1
 90
        1
176
     1
 90
        6
176
     1
 90
        2
176
     1
 62
     7
176
     1
 90
        5
176
     1
 90
        0
176
     1
 90
        0
176
     1
290
     0
176
     1
 90
        1
176
     1
 40
0.0
176
     1
 90
        0
176
     1
290
     0
176
     1
290
     1
176
     1
290
     1
176
     1
290
     0
176
     1
290
     0
176
     1
290
     0
176
     1
290
     0
176
     1
290
     0
176
     1
290
     0
176
     1
 90
       50
176
     1
 40
0.0
176
     1
 40
1.0
176
     1
 90
        0
176
     1
 62
    18
420
        0
176
     1
 90
       50
176
     1
 90
        3
176
     1
 62
     5
420
      255
176
     1
290
     0
176
     1
 90
       50
176
     1
 90
       50
176
     1
 90
       50
176
     1
290
     0
176
     1
 90
       50
176
     1
 62
   256
176
     0
 40
1.0
176
     0
 90
        2
176
     1
  1
strokes_ogs.tif
176
     1
290
     0
176
     1
 40
1.0
176
     1
 40
1.0
176
     1
  0
VISUALSTYLE
  5
2B
102
{ACAD_REACTORS
330
2A
102
}
330
2A
100
AcDbVisualStyle
  2
Flat
 70
     0
177
     3
291
     1
 70
    58
 90
        2
176
     1
 90
        1
176
     1
 90
        1
176
     1
 90
        2
176
     1
 40
0.6
176
     1
 40
30.0
176
     1
 62
     7
420
 16777215
176
     1
 90
        0
176
     1
 90
        0
176
     1
 62
     7
176
     1
 62
   257
176
     1
 90
        1
176
     1
 90
        1
176
     1
 40
1.0
176
     1
 90
        8
176
     1
 62
     7
176
     1
 40
1.0
176
     1
 90
        1
176
     1
 90
        6
176
     1
 90
        2
176
     1
 62
     7
176
     1
 90
        5
176
     1
 90
        0
176
     1
 90
        0
176
     1
290
     0
176
     1
 90
       13
176
     1
 40
0.0
176
     1
 90
        0
176
     1
290
     0
176
     1
290
     1
176
     1
290
     1
176
     1
290
     0
176
     1
290
     0
176
     1
290
     0
176
     1
290
     0
176
     1
290
     0
176
     1
290
     0
176
     1
 90
       50
176
     1
 40
0.0
176
     1
 40
1.0
176
     1
 90
        0
176
     1
 62
    18
420
        0
176
     1
 90
       50
176
     1
 90
        3
176
     1
 62
     5
420
      255
176
     1
290
     0
176
     1
 90
       50
176
     1
 90
       50
176
     1
 90
       50
176
     1
290
     0
176
     1
 90
       50
176
     1
 62
   256
176
     0
 40
1.0
176
     0
 90
        2
176
     1
  1
strokes_ogs.tif
176
     1
290
     0
176
     1
 40
1.0
176
     1
 40
1.0
176
     1
  0
VISUALSTYLE
  5
2C
102
{ACAD_REACTORS
330
2A
102
}
330
2A
100
AcDbVisualStyle
  2
FlatWithEdges
 70
     1
177
     3
291
     1
 70
    58
 90
        2
176
     1
 90
        1
176
     1
 90
        1
176
     1
 90
        2
176
     1
 40
0.6
176
     1
 40
30.0
176
     1
 62
     7
420
 16777215
176
     1
 90
        1
176
     1
 90
        0
176
     1
 62
     7
176
     1
 62
   257
176
     1
 90
        1
176
     1
 90
        1
176
     1
 40
1.0
176
     1
 90
        0
176
     1
 62
   257
176
     1
 40
1.0
176
     1
 90
        1
176
     1
 90
        6
176
     1
 90
        2
176
     1
 62
     7
176
     1
 90
        5
176
     1
 90
        0
176
     1
 90
        0
176
     1
290
     0
176
     1
 90
       13
176
     1
 40
0.0
176
     1
 90
        0
176
     1
290
     0
176
     1
290
     1
176
     1
290
     1
176
     1
290
     0
176
     1
290
     0
176
     1
290
     0
176
     1
290
     0
176
     1
290
     0
176
     1
290
     0
176
     1
 90
       50
176
     1
 40
0.0
176
     1
 40
1.0
176
     1
 90
        0
176
     1
 62
    18
420
        0
176
     1
 90
       50
176
     1
 90
        3
176
     1
 62
     5
420
      255
176
     1
290
     0
176
     1
 90
       50
176
     1
 90
       50
176
     1
 90
       50
176
     1
290
     0
176
     1
 90
       50
176
     1
 62
   256
176
     0
 40
1.0
176
     0
 90
        2
176
     1
  1
strokes_ogs.tif
176
     1
290
     0
176
     1
 40
1.0
176
     1
 40
1.0
176
     1
  0
VISUALSTYLE
  5
2D
102
{ACAD_REACTORS
330
2A
102
}
330
2A
100
AcDbVisualStyle
  2
Gouraud
 70
     2
177
     3
291
     1
 70
    58
 90
        2
176
     1
 90
        2
176
     1
 90
        1
176
     1
 90
        2
176
     1
 40
0.6
176
     1
 40
30.0
176
     1
 62
     7
420
 16777215
176
     1
 90
        0
176
     1
 90
        0
176
     1
 62
     7
176
     1
 62
   257
176
     1
 90
        1
176
     1
 90
        1
176
     1
 40
1.0
176
     1
 90
        0
176
     1
 62
     7
176
     1
 40
1.0
176
     1
 90
        1
176
     1
 90
        6
176
     1
 90
        2
176
     1
 62
     7
176
     1
 90
        5
176
     1
 90
        0
176
     1
 90
        0
176
     1
290
     0
176
     1
 90
       13
176
     1
 40
0.0
176
     1
 90
        0
176
     1
290
     0
176
     1
290
     1
176
     1
290
     1
176
     1
290
     0
176
     1
290
     0
176
     1
290
     0
176
     1
290
     0
176
     1
290
     0
176
     1
290
     0
176
     1
 90
       50
176
     1
 40
0.0
176
     1
 40
1.0
176
     1
 90
        0
176
     1
 62
    18
420
        0
176
     1
 90
       50
176
     1
 90
        3
176
     1
 62
     5
420
      255
176
     1
290
     0
176
     1
 90
       50
176
     1
 90
       50
176
     1
 90
       50
176
     1
290
     0
176
     1
 90
       50
176
     1
 62
   256
176
     0
 40
1.0
176
     0
 90
        2
176
     1
  1
strokes_ogs.tif
176
     1
290
     0
176
     1
 40
1.0
176
     1
 40
1.0
176
     1
  0
VISUALSTYLE
  5
2E
102
{ACAD_REACTORS
330
2A
102
}
330
2A
100
AcDbVisualStyle
  2
GouraudWithEdges
 70
     3
177
     3
291
     1
 70
    58
 90
        2
176
     1
 90
        2
176
     1
 90
        1
176
     1
 90
        2
176
     1
 40
0.6
176
     1
 40
30.0
176
     1
 62
     7
420
 16777215
176
     1
 90
        1
176
     1
 90
        0
176
     1
 62
     7
176
     1
 62
   257
176
     1
 90
        1
176
     1
 90
        1
176
     1
 40
1.0
176
     1
 90
        0
176
     1
 62
   257
176
     1
 40
1.0
176
     1
 90
        1
176
     1
 90
        6
176
     1
 90
        2
176
     1
 62
     7
176
     1
 90
        5
176
     1
 90
        0
176
     1
 90
        0
176
     1
290
     0
176
     1
 90
       13
176
     1
 40
0.0
176
     1
 90
        0
176
     1
290
     0
176
     1
290
     1
176
     1
290
     1
176
     1
290
     0
176
     1
290
     0
176
     1
290
     0
176
     1
290
     0
176
     1
290
     0
176
     1
290
     0
176
     1
 90
       50
176
     1
 40
0.0
176
     1
 40
1.0
176
     1
 90
        0
176
     1
 62
    18
420
        0
176
     1
 90
       50
176
     1
 90
        3
176
     1
 62
     5
420
      255
176
     1
290
     0
176
     1
 90
       50
176
     1
 90
       50
176
     1
 90
       50
176
     1
290
     0
176
     1
 90
       50
176
     1
 62
   256
176
     0
 40
1.0
176
     0
 90
        2
176
     1
  1
strokes_ogs.tif
176
     1
290
     0
176
     1
 40
1.0
176
     1
 40
1.0
176
     1
  0
VISUALSTYLE
  5
31
102
{ACAD_REACTORS
330
2A
102
}
330
2A
100
AcDbVisualStyle
  2
Hidden
 70
     6
177
     3
291
     0
 70
    58
 90
        1
176
     1
 90
        2
176
     1
 90
        2
176
     1
 90
        0
176
     1
 40
0.6
176
     1
 40
30.0
176
     1
 62
     7
420
 16777215
176
     1
 90
        2
176
     1
 90
        2
176
     1
 62
     7
176
     1
 62
   257
176
     1
 90
        2
176
     1
 90
        1
176
     1
 40
40.0
176
     1
 90
        0
176
     1
 62
   257
176
     1
 40
1.0
176
     1
 90
        1
176
     1
 90
        6
176
     1
 90
        2
176
     1
 62
     7
176
     1
 90
        3
176
     1
 90
        0
176
     1
 90
        0
176
     1
290
     0
176
     1
 90
        1
176
     1
 40
0.0
176
     1
 90
        0
176
     1
290
     0
176
     1
290
     1
176
     1
290
     1
176
     1
290
     0
176
     1
290
     0
176
     1
290
     0
176
     1
290
     0
176
     1
290
     0
176
     1
290
     0
176
     1
 90
       50
176
     1
 40
0.0
176
     1
 40
1.0
176
     1
 90
        0
176
     1
 62
    18
420
        0
176
     1
 90
       50
176
     1
 90
        3
176
     1
 62
     5
420
      255
176
     1
290
     0
176
     1
 90
       50
176
     1
 90
       50
176
     1
 90
       50
176
     1
290
     0
176
     1
 90
       50
176
     1
 62
   256
176
     0
 40
1.0
176
     0
 90
        2
176
     1
  1
strokes_ogs.tif
176
     1
290
     0
176
     1
 40
1.0
176
     1
 40
1.0
176
     1
  0
VISUALSTYLE
  5
3B
102
{ACAD_REACTORS
330
2A
102
}
330
2A
100
AcDbVisualStyle
  2
JitterOff
 70
    20
177
     3
291
     1
 70
    58
 90
        2
176
     0
 90
        2
176
     0
 90
        0
176
     0
 90
        0
176
     0
 40
0.6
176
     0
 40
30.0
176
     0
 62
     7
420
 16777215
176
     0
 90
        1
176
     0
 90
        4
176
     0
 62
     7
176
     0
 62
   257
176
     0
 90
        1
176
     0
 90
        1
176
     0
 40
1.0
176
     0
 90
       10
176
     2
 62
     7
176
     0
 40
1.0
176
     0
 90
        1
176
     0
 90
        6
176
     0
 90
        2
176
     0
 62
     7
176
     0
 90
        5
176
     0
 90
        0
176
     0
 90
        0
176
     0
290
     0
176
     0
 90
        1
176
     0
 40
0.0
176
     0
 90
        0
176
     0
290
     0
176
     0
290
     1
176
     0
290
     1
176
     0
290
     0
176
     0
290
     0
176
     0
290
     0
176
     0
290
     0
176
     0
290
     0
176
     0
290
     0
176
     0
 90
       50
176
     0
 40
0.0
176
     0
 40
1.0
176
     0
 90
        0
176
     0
 62
    18
420
        0
176
     0
 90
       50
176
     0
 90
        3
176
     0
 62
     5
420
      255
176
     0
290
     0
176
     0
 90
       50
176
     0
 90
       50
176
     0
 90
       50
176
     0
290
     0
176
     0
 90
       50
176
     0
 62
   256
176
     0
 40
1.0
176
     0
 90
        2
176
     0
  1
strokes_ogs.tif
176
     0
290
     0
176
     0
 40
1.0
176
     0
 40
1.0
176
     0
  0
VISUALSTYLE
  5
38
102
{ACAD_REACTORS
330
2A
102
}
330
2A
100
AcDbVisualStyle
  2
Linepattern
 70
    14
177
     3
291
     1
 70
    58
 90
        2
176
     1
 90
        2
176
     1
 90
        0
176
     1
 90
        0
176
     1
 40
0.6
176
     1
 40
30.0
176
     1
 62
     7
420
 16777215
176
     1
 90
        1
176
     1
 90
        4
176
     1
 62
     7
176
     1
 62
   257
176
     1
 90
        7
176
     1
 90
        7
176
     1
 40
1.0
176
     1
 90
        8
176
     1
 62
     7
176
     1
 40
1.0
176
     1
 90
        1
176
     1
 90
        6
176
     1
 90
        2
176
     1
 62
     7
176
     1
 90
        5
176
     1
 90
        0
176
     1
 90
        0
176
     1
290
     0
176
     1
 90
        1
176
     1
 40
0.0
176
     1
 90
        0
176
     1
290
     0
176
     1
290
     1
176
     1
290
     1
176
     1
290
     0
176
     1
290
     0
176
     1
290
     0
176
     1
290
     0
176
     1
290
     0
176
     1
290
     0
176
     1
 90
       50
176
     1
 40
0.0
176
     1
 40
1.0
176
     1
 90
        0
176
     1
 62
    18
420
        0
176
     1
 90
       50
176
     1
 90
        3
176
     1
 62
     5
420
      255
176
     1
290
     0
176
     1
 90
       50
176
     1
 90
       50
176
     1
 90
       50
176
     1
290
     0
176
     1
 90
       50
176
     1
 62
   256
176
     0
 40
1.0
176
     0
 90
        2
176
     1
  1
strokes_ogs.tif
176
     1
290
     0
176
     1
 40
1.0
176
     1
 40
1.0
176
     1
  0
VISUALSTYLE
  5
3C
102
{ACAD_REACTORS
330
2A
102
}
330
2A
100
AcDbVisualStyle
  2
OverhangOff
 70
    21
177
     3
291
     1
 70
    58
 90
        2
176
     0
 90
        2
176
     0
 90
        0
176
     0
 90
        0
176
     0
 40
0.6
176
     0
 40
30.0
176
     0
 62
     7
420
 16777215
176
     0
 90
        1
176
     0
 90
        4
176
     0
 62
     7
176
     0
 62
   257
176
     0
 90
        1
176
     0
 90
        1
176
     0
 40
1.0
176
     0
 90
        9
176
     2
 62
     7
176
     0
 40
1.0
176
     0
 90
        1
176
     0
 90
        6
176
     0
 90
        2
176
     0
 62
     7
176
     0
 90
        5
176
     0
 90
        0
176
     0
 90
        0
176
     0
290
     0
176
     0
 90
        1
176
     0
 40
0.0
176
     0
 90
        0
176
     0
290
     0
176
     0
290
     1
176
     0
290
     1
176
     0
290
     0
176
     0
290
     0
176
     0
290
     0
176
     0
290
     0
176
     0
290
     0
176
     0
290
     0
176
     0
 90
       50
176
     0
 40
0.0
176
     0
 40
1.0
176
     0
 90
        0
176
     0
 62
    18
420
        0
176
     0
 90
       50
176
     0
 90
        3
176
     0
 62
     5
420
      255
176
     0
290
     0
176
     0
 90
       50
176
     0
 90
       50
176
     0
 90
       50
176
     0
290
     0
176
     0
 90
       50
176
     0
 62
   256
176
     0
 40
1.0
176
     0
 90
        2
176
     0
  1
strokes_ogs.tif
176
     0
290
     0
176
     0
 40
1.0
176
     0
 40
1.0
176
     0
  0
VISUALSTYLE
  5
33
102
{ACAD_REACTORS
330
2A
102
}
330
2A
100
AcDbVisualStyle
  2
Realistic
 70
     8
177
     3
291
     0
 70
    58
 90
        2
176
     1
 90
        3
176
     1
 90
        0
176
     1
 90
        2
176
     1
 40
0.6
176
     1
 40
30.0
176
     1
 62
     7
420
 16777215
176
     1
 90
        0
176
     1
 90
        0
176
     1
 62
     7
176
     1
 62
   257
176
     1
 90
        1
176
     1
 90
        1
176
     1
 40
1.0
176
     1
 90
        8
176
     1
 62
   257
176
     1
 40
1.0
176
     1
 90
        1
176
     1
 90
        6
176
     1
 90
        2
176
     1
 62
     7
176
     1
 90
        3
176
     1
 90
        0
176
     1
 90
        0
176
     1
290
     0
176
     1
 90
       13
176
     1
 40
0.0
176
     1
 90
        0
176
     1
290
     0
176
     1
290
     1
176
     1
290
     1
176
     1
290
     0
176
     1
290
     0
176
     1
290
     0
176
     1
290
     0
176
     1
290
     0
176
     1
290
     0
176
     1
 90
       50
176
     1
 40
0.0
176
     1
 40
1.0
176
     1
 90
        0
176
     1
 62
    18
420
        0
176
     1
 90
       50
176
     1
 90
        3
176
     1
 62
     5
420
      255
176
     1
290
     0
176
     1
 90
       50
176
     1
 90
       50
176
     1
 90
       50
176
     1
290
     0
176
     1
 90
       50
176
     1
 62
   256
176
     0
 40
1.0
176
     0
 90
        2
176
     1
  1
strokes_ogs.tif
176
     1
290
     0
176
     1
 40
1.0
176
     1
 40
1.0
176
     1
  0
VISUALSTYLE
  5
42
102
{ACAD_REACTORS
330
2A
102
}
330
2A
100
AcDbVisualStyle
  2
Shaded
 70
    27
177
     3
291
     0
 70
    58
 90
        2
176
     1
 90
        2
176
     1
 90
        1
176
     1
 90
        2
176
     1
 40
0.6
176
     1
 40
30.0
176
     1
 62
     7
420
 16777215
176
     1
 90
        0
176
     1
 90
        4
176
     1
 62
     7
176
     1
 62
   257
176
     1
 90
        1
176
     1
 90
        1
176
     1
 40
1.0
176
     1
 90
        8
176
     1
 62
   257
176
     1
 40
1.0
176
     1
 90
        1
176
     1
 90
        6
176
     1
 90
        2
176
     1
 62
     8
420
  7895160
176
     1
 90
        3
176
     1
 90
        0
176
     1
 90
        0
176
     1
290
     0
176
     1
 90
        5
176
     1
 40
0.0
176
     1
 90
        0
176
     1
290
     0
176
     1
290
     1
176
     1
290
     1
176
     1
290
     0
176
     1
290
     0
176
     1
290
     0
176
     1
290
     0
176
     1
290
     0
176
     1
290
     0
176
     1
 90
       50
176
     1
 40
0.0
176
     1
 40
1.0
176
     1
 90
        0
176
     1
 62
    18
420
        0
176
     1
 90
       50
176
     1
 90
        3
176
     1
 62
     5
420
      255
176
     1
290
     0
176
     1
 90
       50
176
     1
 90
       50
176
     1
 90
       50
176
     1
290
     0
176
     1
 90
       50
176
     1
 62
   256
176
     0
 40
1.0
176
     0
 90
        2
176
     1
  1
strokes_ogs.tif
176
     1
290
     0
176
     1
 40
1.0
176
     1
 40
1.0
176
     1
  0
VISUALSTYLE
  5
41
102
{ACAD_REACTORS
330
2A
102
}
330
2A
100
AcDbVisualStyle
  2
Shaded with edges
 70
    26
177
     3
291
     0
 70
    58
 90
        2
176
     1
 90
        2
176
     1
 90
        1
176
     1
 90
        2
176
     1
 40
0.6
176
     1
 40
30.0
176
     1
 62
     7
420
 16777215
176
     1
 90
        1
176
     1
 90
       10
176
     1
 62
     7
176
     1
 62
   257
176
     1
 90
        2
176
     1
 90
        1
176
     1
 40
1.0
176
     1
 90
        8
176
     1
 62
   257
176
     1
 40
1.0
176
     1
 90
        1
176
     1
 90
        6
176
     1
 90
        2
176
     1
 62
     7
176
     1
 90
        3
176
     1
 90
        0
176
     1
 90
        0
176
     1
290
     0
176
     1
 90
        5
176
     1
 40
0.0
176
     1
 90
        0
176
     1
290
     0
176
     1
290
     1
176
     1
290
     1
176
     1
290
     0
176
     1
290
     0
176
     1
290
     0
176
     1
290
     0
176
     1
290
     0
176
     1
290
     0
176
     1
 90
       50
176
     1
 40
0.0
176
     1
 40
1.0
176
     1
 90
        0
176
     1
 62
    18
420
        0
176
     1
 90
       50
176
     1
 90
        3
176
     1
 62
     5
420
      255
176
     1
290
     0
176
     1
 90
       50
176
     1
 90
       50
176
     1
 90
       50
176
     1
290
     0
176
     1
 90
       50
176
     1
 62
   256
176
     0
 40
1.0
176
     0
 90
        2
176
     1
  1
strokes_ogs.tif
176
     1
290
     0
176
     1
 40
1.0
176
     1
 40
1.0
176
     1
  0
VISUALSTYLE
  5
3E
102
{ACAD_REACTORS
330
2A
102
}
330
2A
100
AcDbVisualStyle
  2
Shades of Gray
 70
    23
177
     3
291
     0
 70
    58
 90
        2
176
     1
 90
        2
176
     1
 90
        3
176
     1
 90
        0
176
     1
 40
0.6
176
     1
 40
30.0
176
     1
 62
     7
420
 16777215
176
     1
 90
        2
176
     1
 90
        2
176
     1
 62
     7
176
     1
 62
     7
176
     1
 90
        1
176
     1
 90
        1
176
     1
 40
40.0
176
     1
 90
        8
176
     1
 62
     7
176
     1
 40
1.0
176
     1
 90
        1
176
     1
 90
        6
176
     1
 90
        2
176
     1
 62
     7
176
     1
 90
        3
176
     1
 90
        0
176
     1
 90
        0
176
     1
290
     0
176
     1
 90
        1
176
     1
 40
0.0
176
     1
 90
        0
176
     1
290
     0
176
     1
290
     1
176
     1
290
     1
176
     1
290
     0
176
     1
290
     0
176
     1
290
     0
176
     1
290
     0
176
     1
290
     0
176
     1
290
     0
176
     1
 90
       50
176
     1
 40
0.0
176
     1
 40
1.0
176
     1
 90
        0
176
     1
 62
    18
420
        0
176
     1
 90
       50
176
     1
 90
        3
176
     1
 62
     5
420
      255
176
     1
290
     0
176
     1
 90
       50
176
     1
 90
       50
176
     1
 90
       50
176
     1
290
     0
176
     1
 90
       50
176
     1
 62
   256
176
     0
 40
1.0
176
     0
 90
        2
176
     1
  1
strokes_ogs.tif
176
     1
290
     0
176
     1
 40
1.0
176
     1
 40
1.0
176
     1
  0
VISUALSTYLE
  5
3F
102
{ACAD_REACTORS
330
2A
102
}
330
2A
100
AcDbVisualStyle
  2
Sketchy
 70
    24
177
     3
291
     0
 70
    58
 90
        1
176
     1
 90
        2
176
     1
 90
        2
176
     1
 90
        0
176
     1
 40
0.6
176
     1
 40
30.0
176
     1
 62
     7
420
 16777215
176
     1
 90
        2
176
     1
 90
        2
176
     1
 62
     7
176
     1
 62
     7
176
     1
 90
        1
176
     1
 90
        1
176
     1
 40
40.0
176
     1
 90
       11
176
     1
 62
     7
176
     1
 40
1.0
176
     1
 90
        1
176
     1
 90
        6
176
     1
 90
        2
176
     1
 62
     7
176
     1
 90
        6
176
     1
 90
        0
176
     1
 90
        0
176
     1
290
     0
176
     1
 90
        1
176
     1
 40
0.0
176
     1
 90
        0
176
     1
290
     0
176
     1
290
     1
176
     1
290
     1
176
     1
290
     0
176
     1
290
     0
176
     1
290
     0
176
     1
290
     0
176
     1
290
     0
176
     1
290
     0
176
     1
 90
       50
176
     1
 40
0.0
176
     1
 40
1.0
176
     1
 90
        0
176
     1
 62
    18
420
        0
176
     1
 90
       50
176
     1
 90
        3
176
     1
 62
     5
420
      255
176
     1
290
     0
176
     1
 90
       50
176
     1
 90
       50
176
     1
 90
       50
176
     1
290
     0
176
     1
 90
       50
176
     1
 62
   256
176
     0
 40
1.0
176
     0
 90
        2
176
     1
  1
strokes_ogs.tif
176
     1
290
     0
176
     1
 40
1.0
176
     1
 40
1.0
176
     1
  0
VISUALSTYLE
  5
37
102
{ACAD_REACTORS
330
2A
102
}
330
2A
100
AcDbVisualStyle
  2
Thicken
 70
    13
177
     3
291
     1
 70
    58
 90
        2
176
     1
 90
        2
176
     1
 90
        0
176
     1
 90
        0
176
     1
 40
0.6
176
     1
 40
30.0
176
     1
 62
     7
420
 16777215
176
     1
 90
        1
176
     1
 90
        4
176
     1
 62
     7
176
     1
 62
   257
176
     1
 90
        1
176
     1
 90
        1
176
     1
 40
1.0
176
     1
 90
       12
176
     1
 62
     7
176
     1
 40
1.0
176
     1
 90
        1
176
     1
 90
        6
176
     1
 90
        2
176
     1
 62
     7
176
     1
 90
        5
176
     1
 90
        0
176
     1
 90
        0
176
     1
290
     0
176
     1
 90
        1
176
     1
 40
0.0
176
     1
 90
        0
176
     1
290
     0
176
     1
290
     1
176
     1
290
     1
176
     1
290
     0
176
     1
290
     0
176
     1
290
     0
176
     1
290
     0
176
     1
290
     0
176
     1
290
     0
176
     1
 90
       50
176
     1
 40
0.0
176
     1
 40
1.0
176
     1
 90
        0
176
     1
 62
    18
420
        0
176
     1
 90
       50
176
     1
 90
        3
176
     1
 62
     5
420
      255
176
     1
290
     0
176
     1
 90
       50
176
     1
 90
       50
176
     1
 90
       50
176
     1
290
     0
176
     1
 90
       50
176
     1
 62
   256
176
     0
 40
1.0
176
     0
 90
        2
176
     1
  1
strokes_ogs.tif
176
     1
290
     0
176
     1
 40
1.0
176
     1
 40
1.0
176
     1
  0
VISUALSTYLE
  5
30
102
{ACAD_REACTORS
330
2A
102
}
330
2A
100
AcDbVisualStyle
  2
Wireframe
 70
     5
177
     3
291
     0
 70
    58
 90
        0
176
     1
 90
        2
176
     1
 90
        0
176
     1
 90
        0
176
     1
 40
0.6
176
     1
 40
30.0
176
     1
 62
     7
420
 16777215
176
     1
 90
        1
176
     1
 90
        4
176
     1
 62
     7
176
     1
 62
   257
176
     1
 90
        1
176
     1
 90
        1
176
     1
 40
1.0
176
     1
 90
        0
176
     1
 62
   257
176
     1
 40
1.0
176
     1
 90
        1
176
     1
 90
        6
176
     1
 90
        2
176
     1
 62
     7
176
     1
 90
        3
176
     1
 90
        0
176
     1
 90
        0
176
     1
290
     0
176
     1
 90
        1
176
     1
 40
0.0
176
     1
 90
        0
176
     1
290
     0
176
     1
290
     1
176
     1
290
     1
176
     1
290
     0
176
     1
290
     0
176
     1
290
     0
176
     1
290
     0
176
     1
290
     0
176
     1
290
     0
176
     1
 90
       50
176
     1
 40
0.0
176
     1
 40
1.0
176
     1
 90
        0
176
     1
 62
    18
420
        0
176
     1
 90
       50
176
     1
 90
        3
176
     1
 62
     5
420
      255
176
     1
290
     0
176
     1
 90
       50
176
     1
 90
       50
176
     1
 90
       50
176
     1
290
     0
176
     1
 90
       50
176
     1
 62
   256
176
     0
 40
1.0
176
     0
 90
        2
176
     1
  1
strokes_ogs.tif
176
     1
290
     0
176
     1
 40
1.0
176
     1
 40
1.0
176
     1
  0
VISUALSTYLE
  5
40
102
{ACAD_REACTORS
330
2A
102
}
330
2A
100
AcDbVisualStyle
  2
X-Ray
 70
    25
177
     3
291
     0
 70
    58
 90
        2
176
     1
 90
        2
176
     1
 90
        1
176
     1
 90
        1
176
     1
 40
0.5
176
     1
 40
30.0
176
     1
 62
     7
420
 16777215
176
     1
 90
        1
176
     1
 90
        0
176
     1
 62
     7
176
     1
 62
   257
176
     1
 90
        1
176
     1
 90
        1
176
     1
 40
1.0
176
     1
 90
        8
176
     1
 62
     7
176
     1
 40
1.0
176
     1
 90
        1
176
     1
 90
        6
176
     1
 90
        2
176
     1
 62
     7
176
     1
 90
        3
176
     1
 90
        0
176
     1
 90
        0
176
     1
290
     0
176
     1
 90
       13
176
     1
 40
0.0
176
     1
 90
        0
176
     1
290
     0
176
     1
290
     1
176
     1
290
     1
176
     1
290
     0
176
     1
290
     0
176
     1
290
     0
176
     1
290
     0
176
     1
290
     0
176
     1
290
     0
176
     1
 90
       50
176
     1
 40
0.0
176
     1
 40
1.0
176
     1
 90
        0
176
     1
 62
    18
420
        0
176
     1
 90
       50
176
     1
 90
        3
176
     1
 62
     5
420
      255
176
     1
290
     0
176
     1
 90
       50
176
     1
 90
       50
176
     1
 90
       50
176
     1
290
     0
176
     1
 90
       50
176
     1
 62
   256
176
     0
 40
1.0
176
     0
 90
        2
176
     1
  1
strokes_ogs.tif
176
     1
290
     0
176
     1
 40
1.0
176
     1
 40
1.0
176
     1
  0
DICTIONARYVAR
  5
3CC
102
{ACAD_REACTORS
330
3CB
102
}
330
3CB
100
DictionaryVariables
280
     0
  1
1:1
  0
DICTIONARYVAR
  5
3D1
102
{ACAD_REACTORS
330
3CB
102
}
330
3CB
100
DictionaryVariables
280
     0
  1
Standard
  0
DICTIONARYVAR
  5
3D0
102
{ACAD_REACTORS
330
3CB
102
}
330
3CB
100
DictionaryVariables
280
     0
  1
Standard
  0
DICTIONARY
  5
3CD
330
5A
100
AcDbDictionary
280
     1
281
     1
  3
ACAD_ROUNDTRIP_2008_TABLESTYLE_CELLSTYLEMAP
360
3CE
  0
CELLSTYLEMAP
  5
3CE
102
{ACAD_REACTORS
330
3CD
102
}
330
3CD
100
AcDbCellStyleMap
 90
        3
300
CELLSTYLE
  1
TABLEFORMAT_BEGIN
 90
        5
170
     1
 91
        0
 92
    32768
 62
   257
 93
        1
300
CONTENTFORMAT
  1
CONTENTFORMAT_BEGIN
 90
        0
 91
        0
 92
        4
 93
        0
300

 40
0.0
140
1.0
 94
        5
 62
     0
340
11
144
0.25
309
CONTENTFORMAT_END
171
     1
301
MARGIN
  1
CELLMARGIN_BEGIN
 40
0.06
 40
0.06
 40
0.06
 40
0.06
 40
0.06
 40
0.06
309
CELLMARGIN_END
 94
        6
 95
        1
302
GRIDFORMAT
  1
GRIDFORMAT_BEGIN
 90
        0
 91
        1
 62
     0
 92
       -2
340
14
 93
        0
 40
0.045
309
GRIDFORMAT_END
 95
        2
302
GRIDFORMAT
  1
GRIDFORMAT_BEGIN
 90
        0
 91
        1
 62
     0
 92
       -2
340
14
 93
        0
 40
0.045
309
GRIDFORMAT_END
 95
        4
302
GRIDFORMAT
  1
GRIDFORMAT_BEGIN
 90
        0
 91
        1
 62
     0
 92
       -2
340
14
 93
        0
 40
0.045
309
GRIDFORMAT_END
 95
        8
302
GRIDFORMAT
  1
GRIDFORMAT_BEGIN
 90
        0
 91
        1
 62
     0
 92
       -2
340
14
 93
        0
 40
0.045
309
GRIDFORMAT_END
 95
       16
302
GRIDFORMAT
  1
GRIDFORMAT_BEGIN
 90
        0
 91
        1
 62
     0
 92
       -2
340
14
 93
        0
 40
0.045
309
GRIDFORMAT_END
 95
       32
302
GRIDFORMAT
  1
GRIDFORMAT_BEGIN
 90
        0
 91
        1
 62
     0
 92
       -2
340
14
 93
        0
 40
0.045
309
GRIDFORMAT_END
309
TABLEFORMAT_END
  1
CELLSTYLE_BEGIN
 90
        1
 91
        1
300
_TITLE
309
CELLSTYLE_END
300
CELLSTYLE
  1
TABLEFORMAT_BEGIN
 90
        5
170
     1
 91
        0
 92
        0
 62
   257
 93
        1
300
CONTENTFORMAT
  1
CONTENTFORMAT_BEGIN
 90
        0
 91
        0
 92
        4
 93
        0
300

 40
0.0
140
1.0
 94
        5
 62
     0
340
11
144
0.18
309
CONTENTFORMAT_END
171
     1
301
MARGIN
  1
CELLMARGIN_BEGIN
 40
0.06
 40
0.06
 40
0.06
 40
0.06
 40
0.06
 40
0.06
309
CELLMARGIN_END
 94
        6
 95
        1
302
GRIDFORMAT
  1
GRIDFORMAT_BEGIN
 90
        0
 91
        1
 62
     0
 92
       -2
340
14
 93
        0
 40
0.045
309
GRIDFORMAT_END
 95
        2
302
GRIDFORMAT
  1
GRIDFORMAT_BEGIN
 90
        0
 91
        1
 62
     0
 92
       -2
340
14
 93
        0
 40
0.045
309
GRIDFORMAT_END
 95
        4
302
GRIDFORMAT
  1
GRIDFORMAT_BEGIN
 90
        0
 91
        1
 62
     0
 92
       -2
340
14
 93
        0
 40
0.045
309
GRIDFORMAT_END
 95
        8
302
GRIDFORMAT
  1
GRIDFORMAT_BEGIN
 90
        0
 91
        1
 62
     0
 92
       -2
340
14
 93
        0
 40
0.045
309
GRIDFORMAT_END
 95
       16
302
GRIDFORMAT
  1
GRIDFORMAT_BEGIN
 90
        0
 91
        1
 62
     0
 92
       -2
340
14
 93
        0
 40
0.045
309
GRIDFORMAT_END
 95
       32
302
GRIDFORMAT
  1
GRIDFORMAT_BEGIN
 90
        0
 91
        1
 62
     0
 92
       -2
340
14
 93
        0
 40
0.045
309
GRIDFORMAT_END
309
TABLEFORMAT_END
  1
CELLSTYLE_BEGIN
 90
        2
 91
        1
300
_HEADER
309
CELLSTYLE_END
300
CELLSTYLE
  1
TABLEFORMAT_BEGIN
 90
        5
170
     1
 91
        0
 92
        0
 62
   257
 93
        1
300
CONTENTFORMAT
  1
CONTENTFORMAT_BEGIN
 90
        0
 91
        0
 92
        4
 93
        0
300

 40
0.0
140
1.0
 94
        2
 62
     0
340
11
144
0.18
309
CONTENTFORMAT_END
171
     1
301
MARGIN
  1
CELLMARGIN_BEGIN
 40
0.06
 40
0.06
 40
0.06
 40
0.06
 40
0.06
 40
0.06
309
CELLMARGIN_END
 94
        6
 95
        1
302
GRIDFORMAT
  1
GRIDFORMAT_BEGIN
 90
        0
 91
        1
 62
     0
 92
       -2
340
14
 93
        0
 40
0.045
309
GRIDFORMAT_END
 95
        2
302
GRIDFORMAT
  1
GRIDFORMAT_BEGIN
 90
        0
 91
        1
 62
     0
 92
       -2
340
14
 93
        0
 40
0.045
309
GRIDFORMAT_END
 95
        4
302
GRIDFORMAT
  1
GRIDFORMAT_BEGIN
 90
        0
 91
        1
 62
     0
 92
       -2
340
14
 93
        0
 40
0.045
309
GRIDFORMAT_END
 95
        8
302
GRIDFORMAT
  1
GRIDFORMAT_BEGIN
 90
        0
 91
        1
 62
     0
 92
       -2
340
14
 93
        0
 40
0.045
309
GRIDFORMAT_END
 95
       16
302
GRIDFORMAT
  1
GRIDFORMAT_BEGIN
 90
        0
 91
        1
 62
     0
 92
       -2
340
14
 93
        0
 40
0.045
309
GRIDFORMAT_END
 95
       32
302
GRIDFORMAT
  1
GRIDFORMAT_BEGIN
 90
        0
 91
        1
 62
     0
 92
       -2
340
14
 93
        0
 40
0.045
309
GRIDFORMAT_END
309
TABLEFORMAT_END
  1
CELLSTYLE_BEGIN
 90
        3
 91
        2
300
_DATA
309
CELLSTYLE_END
  0
ENDSEC
  0
EOF
